<svg width="31" height="23" viewBox="0 0 31 23" fill="none" xmlns="http://www.w3.org/2000/svg">
<mask id="path-1-outside-1_2_114" maskUnits="userSpaceOnUse" x="-0.599998" y="-0.6" width="32" height="24" fill="black">
<rect fill="white" x="-0.599998" y="-0.6" width="32" height="24"/>
<path fill-rule="evenodd" clip-rule="evenodd" d="M17.9 20.4V12.0987C17.6426 12.0026 17.1595 11.9238 16.4 11.9238H16.3883H16.3767H16.3653H16.3539H16.3425H16.3313H16.3202H16.3092H16.2982H16.2873H16.2766H16.2659H16.2553H16.2447H16.2343H16.224H16.2137H16.2035H16.1935H16.1835H16.1735H16.1637H16.154H16.1443H16.1347H16.1252H16.1158H16.1065H16.0972H16.088H16.0789H16.0699H16.061H16.0521H16.0434H16.0347H16.0261H16.0175H16.0091H16.0007H15.9924H15.9841H15.976H15.9679H15.9599H15.952H15.9442H15.9364H15.9287H15.9211H15.9135H15.906H15.8986H15.8913H15.884H15.8768H15.8697H15.8627H15.8557H15.8488H15.842H15.8352H15.8285H15.8219H15.8153H15.8088H15.8024H15.7961H15.7898H15.7835H15.7774H15.7713H15.7653H15.7593H15.7534H15.7476H15.7419H15.7362H15.7305H15.725H15.7194H15.714H15.7086H15.7033H15.698H15.6928H15.6877H15.6826H15.6776H15.6727H15.6678H15.6629H15.6581H15.6534H15.6487H15.6441H15.6396H15.6351H15.6307H15.6263H15.622H15.6177H15.6135H15.6093H15.6052H15.6012H15.5972H15.5932H15.5893H15.5855H15.5817H15.578H15.5743H15.5707H15.5671H15.5636H15.5601H15.5566H15.5533H15.5499H15.5467H15.5434H15.5402H15.5371H15.534H15.531H15.528H15.525H15.5221H15.5192H15.5164H15.5136H15.5109H15.5082H15.5056H15.503H15.5004H15.4979H15.4955H15.493H15.4907H15.4883H15.486H15.4837H15.4815H15.4793H15.4772H15.4751H15.473H15.471H15.469H15.467H15.4651H15.4633H15.4614H15.4596H15.4578H15.4561H15.4544H15.4527H15.4511H15.4495H15.4479H15.4464H15.4449H15.4435H15.442H15.4406H15.4393H15.4379H15.4366H15.4353H15.4341H15.4329H15.4317H15.4305H15.4294H15.4283H15.4272H15.4262H15.4251H15.4242H15.4232H15.4222H15.4213H15.4204H15.4196H15.4187H15.4179H15.4171H15.4164H15.4156H15.4149H15.4142H15.4135H15.4129H15.4122H15.4116H15.411H15.4105H15.4099H15.4094H15.4089H15.4084H15.4079H15.4075H15.407H15.4066H15.4062H15.4058H15.4054H15.4051H15.4047H15.4044H15.4041H15.4038H15.4035H15.4033H15.403H15.4028H15.4026H15.4023H15.4021H15.402H15.4018H15.4016H15.4015H15.4013H15.4012H15.401H15.4009H15.4008H15.4007H15.4006H15.4006H15.4005H15.4004H15.4003H15.4003H15.4002H15.4002H15.4002H15.4001H15.4001H15.4001H15.4001H15.4H15.4H15.4H15.4H15.4H15.4H15.4H15.4H15.4H15.3999H15.3999H15.3999H15.3999H15.3998H15.3998H15.3998H15.3997H15.3997H15.3996H15.3995H15.3994H15.3994H15.3993H15.3992H15.3991H15.399H15.3988H15.3987H15.3985H15.3984H15.3982H15.398H15.3979H15.3977H15.3974H15.3972H15.397H15.3967H15.3965H15.3962H15.3959H15.3956H15.3953H15.3949H15.3946H15.3942H15.3938H15.3934H15.393H15.3926H15.3921H15.3916H15.3911H15.3906H15.3901H15.3895H15.389H15.3884H15.3878H15.3871H15.3865H15.3858H15.3851H15.3844H15.3836H15.3829H15.3821H15.3813H15.3804H15.3796H15.3787H15.3778H15.3768H15.3758H15.3749H15.3738H15.3728H15.3717H15.3706H15.3695H15.3683H15.3671H15.3659H15.3647H15.3634H15.3621H15.3608H15.3594H15.358H15.3566H15.3551H15.3536H15.3521H15.3505H15.3489H15.3473H15.3456H15.3439H15.3422H15.3404H15.3386H15.3367H15.3349H15.333H15.331H15.329H15.327H15.3249H15.3228H15.3207H15.3185H15.3163H15.314H15.3117H15.3094H15.307H15.3045H15.3021H15.2996H15.297H15.2944H15.2918H15.2891H15.2864H15.2836H15.2808H15.2779H15.275H15.272H15.2691H15.266H15.2629H15.2598H15.2566H15.2534H15.2501H15.2467H15.2434H15.2399H15.2364H15.2329H15.2293H15.2257H15.222H15.2183H15.2145H15.2107H15.2068H15.2028H15.1988H15.1948H15.1907H15.1865H15.1823H15.178H15.1737H15.1693H15.1649H15.1604H15.1559H15.1513H15.1466H15.1419H15.1371H15.1322H15.1274H15.1224H15.1174H15.1123H15.1072H15.102H15.0967H15.0914H15.086H15.0806H15.0751H15.0695H15.0638H15.0581H15.0524H15.0466H15.0407H15.0347H15.0287H15.0226H15.0165H15.0102H15.0039H14.9976H14.9912H14.9847H14.9781H14.9715H14.9648H14.958H14.9512H14.9443H14.9373H14.9303H14.9232H14.916H14.9087H14.9014H14.894H14.8865H14.8789H14.8713H14.8636H14.8559H14.848H14.8401H14.8321H14.824H14.8159H14.8076H14.7993H14.7909H14.7825H14.7739H14.7653H14.7566H14.7479H14.739H14.7301H14.7211H14.712H14.7028H14.6935H14.6842H14.6748H14.6653H14.6557H14.646H14.6363H14.6265H14.6165H14.6065H14.5965H14.5863H14.576H14.5657H14.5553H14.5447H14.5341H14.5234H14.5127H14.5018H14.4909H14.4798H14.4687H14.4575H14.4461H14.4347H14.4233H14.4117H14.4C13.6405 11.9238 13.1574 12.0026 12.9 12.0987V20.4C12.9 21.5046 12.0046 22.4 10.9 22.4H2.4C1.29543 22.4 0.400002 21.5046 0.400002 20.4V15.7333C0.400002 14.6288 1.29543 13.7333 2.4 13.7333L6.4 13.7333V10.0191H2.4C1.29543 10.0191 0.400002 9.12364 0.400002 8.01906V3.3524C0.400002 2.24783 1.29543 1.3524 2.4 1.3524H7.4C7.95229 1.3524 8.4 1.80011 8.4 2.3524C8.4 2.90468 7.95229 3.3524 7.4 3.3524L2.4 3.3524V8.01906L6.4 8.01906C7.50457 8.01906 8.4 8.91449 8.4 10.0191V13.7333C8.4 14.8379 7.50457 15.7333 6.4 15.7333H2.4V20.4H10.9V11.8762V9.97144V9.96212V9.95275V9.94334V9.93388V9.92438V9.91484V9.90525V9.89561V9.88594V9.87622V9.86645V9.85665V9.8468V9.8369V9.82697V9.81699V9.80697V9.79691V9.78681V9.77666V9.76647V9.75625V9.74598V9.73567V9.72532V9.71493V9.70449V9.69402V9.68351V9.67296V9.66237V9.65174V9.64107V9.63036V9.61961V9.60882V9.598V9.58713V9.57623V9.56529V9.55431V9.54329V9.53224V9.52115V9.51002V9.49886V9.48765V9.47641V9.46514V9.45383V9.44248V9.4311V9.41968V9.40822V9.39673V9.38521V9.37365V9.36205V9.35042V9.33876V9.32706V9.31533V9.30356V9.29176V9.27992V9.26806V9.25615V9.24422V9.23225V9.22025V9.20822V9.19616V9.18406V9.17193V9.15977V9.14758V9.13535V9.1231V9.11081V9.0985V9.08615V9.07377V9.06136V9.04892V9.03645V9.02395V9.01143V8.99887V8.98628V8.97367V8.96102V8.94835V8.93564V8.92291V8.91015V8.89737V8.88455V8.87171V8.85884V8.84594V8.83301V8.82006V8.80708V8.79408V8.78105V8.76799V8.7549V8.74179V8.72866V8.71549V8.70231V8.6891V8.67586V8.6626V8.64931V8.636V8.62266V8.6093V8.59592V8.58251V8.56908V8.55563V8.54215V8.52865V8.51513V8.50158V8.48801V8.47442V8.46081V8.44717V8.43352V8.41984V8.40614V8.39242V8.37867V8.36491V8.35113V8.33732V8.3235V8.30965V8.29579V8.2819V8.268V8.25407V8.24013V8.22617V8.21218V8.19818V8.18417V8.17013V8.15607V8.142V8.12791V8.1138V8.09967V8.08553V8.07137V8.05719V8.04299V8.02878V8.01455V8.00031V7.98605V7.97177V7.95748V7.94317V7.92885V7.91451V7.90016V7.88579V7.87141V7.85701V7.8426V7.82818V7.81374V7.79928V7.78482V7.77034V7.75584V7.74134V7.72682V7.71229V7.69774V7.68319V7.66862V7.65404V7.63944V7.62484V7.61022V7.5956V7.58096V7.56631V7.55165V7.53698V7.5223V7.50761V7.49291V7.4782V7.46348V7.44875V7.43401V7.41926V7.40451V7.38974V7.37497V7.36018V7.34539V7.33059V7.31579V7.30097V7.28615V7.27132V7.25648V7.24164V7.22679V7.21193V7.19707V7.1822V7.16733V7.15244V7.13756V7.12266V7.10777V7.09286V7.07796V7.06304V7.04813V7.0332V7.01828V7.00335V6.98841V6.97347V6.95853V6.94359V6.92864V6.91369V6.89873V6.88378V6.86882V6.85386V6.83889V6.82393V6.80896V6.79399V6.77902V6.76405V6.74908V6.7341V6.71913V6.70415V6.68918V6.6742V6.65923V6.64425V6.62928V6.6143V6.59933V6.58436V6.56938V6.55441V6.53944V6.52448V6.50951V6.49455V6.47959V6.46463V6.44967V6.43472V6.41977V6.40482V6.38987V6.37493V6.36V6.34506V6.33013V6.31521V6.30028V6.28537V6.27046V6.25555V6.24065V6.22575V6.21086V6.19597V6.18109V6.16621V6.15135V6.13648V6.12163V6.10678V6.09194V6.0771V6.06227V6.04745V6.03264V6.01783V6.00303V5.98824V5.97346V5.95869V5.94393V5.92917V5.91442V5.89968V5.88496V5.87024V5.85553V5.84083V5.82614V5.81146V5.79679V5.78213V5.76749V5.75285V5.73822V5.72361V5.70901V5.69442V5.67984V5.66527V5.65071V5.63617V5.62164V5.60712V5.59262V5.57813V5.56365V5.54918V5.53473V5.5203V5.50587V5.49146V5.47707V5.46269V5.44832V5.43397V5.41963V5.40531V5.39101V5.37672V5.36244V5.34818V5.33394V5.31972V5.30551V5.29131V5.27714V5.26298V5.24884V5.23471V5.22061V5.20652V5.19245V5.17839V5.16436V5.15034V5.13634V5.12236V5.1084V5.09446V5.08054V5.06664V5.05276V5.03889V5.02505V5.01123V4.99743V4.98365V4.96989V4.95615V4.94243V4.92873V4.91505V4.9014V4.88777V4.87416V4.86057V4.847V4.83346V4.81994V4.80644V4.79297V4.77952V4.76609V4.75268V4.7393V4.72595V4.71261V4.69931V4.68602V4.67276V4.65953V4.64632V4.63314V4.61998V4.60685V4.59374V4.58066V4.5676V4.55457V4.54157V4.5286V4.51565V4.50273V4.48983V4.47697V4.46413V4.45131V4.43853V4.42577V4.41305V4.40035V4.38768V4.37504V4.36242V4.34984V4.33729V4.32476V4.31227V4.2998V4.28737V4.27496V4.26259V4.25024V4.23793V4.22565V4.2134V4.20118V4.18899V4.17683V4.16471V4.15261V4.14055V4.12853V4.11653V4.10457V4.09264V4.08074V4.06888V4.05705V4.04525V4.03349V4.02176V4.01006V3.9984V3.98678V3.97519V3.96363V3.95211V3.94063V3.92918V3.91776V3.90638V3.89504V3.88373V3.87246V3.86123V3.85003V3.83887V3.82775V3.81666V3.80561V3.7946V3.78363V3.77269V3.76179V3.75093V3.74011V3.72933V3.71859V3.70788V3.69722V3.68659V3.676V3.66546V3.65495V3.64448V3.63406V3.62367V3.61333V3.60302V3.59276V3.58253V3.57235V3.56221V3.55212V3.54206V3.53204V3.52207V3.51214V3.50226V3.49241V3.48261V3.47285V3.46314V3.45347V3.44384V3.43425V3.42471V3.41522V3.40577V3.39636V3.387V3.37768V3.36841V3.35918V3.35V3.34086V3.33177V3.32273V3.31373V3.30478C10.9 2.5859 11.1453 1.98191 11.5752 1.52127C11.9833 1.084 12.5024 0.834206 12.9724 0.684987C13.8717 0.399498 14.8745 0.39984 15.366 0.400008L15.4 0.400016L15.434 0.400008C15.9255 0.39984 16.9283 0.399498 17.8276 0.684987C18.2976 0.834206 18.8167 1.084 19.2248 1.52127C19.6547 1.98191 19.9 2.5859 19.9 3.30478V3.31373V3.32273V3.33177V3.34086V3.35V3.35918V3.36841V3.37768V3.387V3.39636V3.40577V3.41522V3.42471V3.43425V3.44384V3.45347V3.46314V3.47285V3.48261V3.49241V3.50226V3.51214V3.52207V3.53204V3.54206V3.55212V3.56221V3.57235V3.58253V3.59276V3.60302V3.61333V3.62367V3.63406V3.64448V3.65495V3.66546V3.676V3.68659V3.69722V3.70788V3.71859V3.72933V3.74011V3.75093V3.76179V3.77269V3.78363V3.7946V3.80561V3.81666V3.82775V3.83887V3.85003V3.86123V3.87246V3.88373V3.89504V3.90638V3.91776V3.92918V3.94063V3.95211V3.96363V3.97519V3.98678V3.9984V4.01006V4.02176V4.03349V4.04525V4.05705V4.06888V4.08074V4.09264V4.10457V4.11653V4.12853V4.14055V4.15261V4.16471V4.17683V4.18899V4.20118V4.2134V4.22565V4.23793V4.25024V4.26259V4.27496V4.28737V4.2998V4.31227V4.32476V4.33729V4.34984V4.36242V4.37504V4.38768V4.40035V4.41305V4.42577V4.43853V4.45131V4.46413V4.47697V4.48983V4.50273V4.51565V4.5286V4.54157V4.55457V4.5676V4.58066V4.59374V4.60685V4.61998V4.63314V4.64632V4.65953V4.67276V4.68602V4.69931V4.71261V4.72595V4.7393V4.75268V4.76609V4.77952V4.79297V4.80644V4.81994V4.83346V4.847V4.86057V4.87416V4.88777V4.9014V4.91505V4.92873V4.94243V4.95615V4.96989V4.98365V4.99743V5.01123V5.02505V5.03889V5.05276V5.06664V5.08054V5.09446V5.1084V5.12236V5.13634V5.15034V5.16436V5.17839V5.19245V5.20652V5.22061V5.23471V5.24884V5.26298V5.27714V5.29131V5.30551V5.31972V5.33394V5.34818V5.36244V5.37672V5.39101V5.40531V5.41963V5.43397V5.44832V5.46269V5.47707V5.49146V5.50587V5.5203V5.53473V5.54918V5.56365V5.57813V5.59262V5.60712V5.62164V5.63617V5.65071V5.66527V5.67984V5.69442V5.70901V5.72361V5.73822V5.75285V5.76749V5.78213V5.79679V5.81146V5.82614V5.84083V5.85553V5.87024V5.88496V5.89968V5.91442V5.92917V5.94393V5.95869V5.97346V5.98824V6.00303V6.01783V6.03264V6.04745V6.06227V6.0771V6.09194V6.10678V6.12163V6.13648V6.15135V6.16621V6.18109V6.19597V6.21086V6.22575V6.24065V6.25555V6.27046V6.28537V6.30028V6.31521V6.33013V6.34506V6.36V6.37493V6.38987V6.40482V6.41977V6.43472V6.44967V6.46463V6.47959V6.49455V6.50951V6.52448V6.53944V6.55441V6.56938V6.58436V6.59933V6.6143V6.62928V6.64425V6.65923V6.6742V6.68918V6.70415V6.71913V6.7341V6.74908V6.76405V6.77902V6.79399V6.80896V6.82393V6.83889V6.85386V6.86882V6.88378V6.89873V6.91369V6.92864V6.94359V6.95853V6.97347V6.98841V7.00335V7.01828V7.0332V7.04813V7.06304V7.07796V7.09286V7.10777V7.12266V7.13756V7.15244V7.16733V7.1822V7.19707V7.21193V7.22679V7.24164V7.25648V7.27132V7.28615V7.30097V7.31579V7.33059V7.34539V7.36018V7.37497V7.38974V7.40451V7.41926V7.43401V7.44875V7.46348V7.4782V7.49291V7.50761V7.5223V7.53698V7.55165V7.56631V7.58096V7.5956V7.61022V7.62484V7.63944V7.65404V7.66862V7.68319V7.69774V7.71229V7.72682V7.74134V7.75584V7.77034V7.78482V7.79928V7.81374V7.82818V7.8426V7.85701V7.87141V7.88579V7.90016V7.91451V7.92885V7.94317V7.95748V7.97177V7.98605V8.00031V8.01455V8.02878V8.04299V8.05719V8.07137V8.08553V8.09967V8.1138V8.12791V8.142V8.15607V8.17013V8.18417V8.19818V8.21218V8.22617V8.24013V8.25407V8.268V8.2819V8.29579V8.30965V8.3235V8.33732V8.35113V8.36491V8.37867V8.39242V8.40614V8.41984V8.43352V8.44717V8.46081V8.47442V8.48801V8.50158V8.51513V8.52865V8.54215V8.55563V8.56908V8.58251V8.59592V8.6093V8.62266V8.636V8.64931V8.6626V8.67586V8.6891V8.70231V8.71549V8.72866V8.74179V8.7549V8.76799V8.78105V8.79408V8.80708V8.82006V8.83301V8.84594V8.85884V8.87171V8.88455V8.89737V8.91015V8.92291V8.93564V8.94835V8.96102V8.97367V8.98628V8.99887V9.01143V9.02395V9.03645V9.04892V9.06136V9.07377V9.08615V9.0985V9.11081V9.1231V9.13535V9.14758V9.15977V9.17193V9.18406V9.19616V9.20822V9.22025V9.23225V9.24422V9.25615V9.26806V9.27992V9.29176V9.30356V9.31533V9.32706V9.33876V9.35042V9.36205V9.37365V9.38521V9.39673V9.40822V9.41968V9.4311V9.44248V9.45383V9.46514V9.47641V9.48765V9.49886V9.51002V9.52115V9.53224V9.54329V9.55431V9.56529V9.57623V9.58713V9.598V9.60882V9.61961V9.63036V9.64107V9.65174V9.66237V9.67296V9.68351V9.69402V9.70449V9.71493V9.72532V9.73567V9.74598V9.75625V9.76647V9.77666V9.78681V9.79691V9.80697V9.81699V9.82697V9.8369V9.8468V9.85665V9.86645V9.87622V9.88594V9.89561V9.90525V9.91484V9.92438V9.93388V9.94334V9.95275V9.96212V9.97144V11.8762V20.4H28.4V15.7333H24.4C23.2954 15.7333 22.4 14.8379 22.4 13.7333V10.0191C22.4 8.9145 23.2954 8.01906 24.4 8.01906H28.4V3.3524H23.4C22.8477 3.3524 22.4 2.90468 22.4 2.3524C22.4 1.80011 22.8477 1.3524 23.4 1.3524H28.4C29.5046 1.3524 30.4 2.24783 30.4 3.3524V8.01906C30.4 9.12363 29.5046 10.0191 28.4 10.0191L24.4 10.0191V13.7333H28.4C29.5046 13.7333 30.4 14.6288 30.4 15.7333V20.4C30.4 21.5046 29.5046 22.4 28.4 22.4H19.9C18.7954 22.4 17.9 21.5046 17.9 20.4Z"/>
</mask>
<path fill-rule="evenodd" clip-rule="evenodd" d="M17.9 20.4V12.0987C17.6426 12.0026 17.1595 11.9238 16.4 11.9238H16.3883H16.3767H16.3653H16.3539H16.3425H16.3313H16.3202H16.3092H16.2982H16.2873H16.2766H16.2659H16.2553H16.2447H16.2343H16.224H16.2137H16.2035H16.1935H16.1835H16.1735H16.1637H16.154H16.1443H16.1347H16.1252H16.1158H16.1065H16.0972H16.088H16.0789H16.0699H16.061H16.0521H16.0434H16.0347H16.0261H16.0175H16.0091H16.0007H15.9924H15.9841H15.976H15.9679H15.9599H15.952H15.9442H15.9364H15.9287H15.9211H15.9135H15.906H15.8986H15.8913H15.884H15.8768H15.8697H15.8627H15.8557H15.8488H15.842H15.8352H15.8285H15.8219H15.8153H15.8088H15.8024H15.7961H15.7898H15.7835H15.7774H15.7713H15.7653H15.7593H15.7534H15.7476H15.7419H15.7362H15.7305H15.725H15.7194H15.714H15.7086H15.7033H15.698H15.6928H15.6877H15.6826H15.6776H15.6727H15.6678H15.6629H15.6581H15.6534H15.6487H15.6441H15.6396H15.6351H15.6307H15.6263H15.622H15.6177H15.6135H15.6093H15.6052H15.6012H15.5972H15.5932H15.5893H15.5855H15.5817H15.578H15.5743H15.5707H15.5671H15.5636H15.5601H15.5566H15.5533H15.5499H15.5467H15.5434H15.5402H15.5371H15.534H15.531H15.528H15.525H15.5221H15.5192H15.5164H15.5136H15.5109H15.5082H15.5056H15.503H15.5004H15.4979H15.4955H15.493H15.4907H15.4883H15.486H15.4837H15.4815H15.4793H15.4772H15.4751H15.473H15.471H15.469H15.467H15.4651H15.4633H15.4614H15.4596H15.4578H15.4561H15.4544H15.4527H15.4511H15.4495H15.4479H15.4464H15.4449H15.4435H15.442H15.4406H15.4393H15.4379H15.4366H15.4353H15.4341H15.4329H15.4317H15.4305H15.4294H15.4283H15.4272H15.4262H15.4251H15.4242H15.4232H15.4222H15.4213H15.4204H15.4196H15.4187H15.4179H15.4171H15.4164H15.4156H15.4149H15.4142H15.4135H15.4129H15.4122H15.4116H15.411H15.4105H15.4099H15.4094H15.4089H15.4084H15.4079H15.4075H15.407H15.4066H15.4062H15.4058H15.4054H15.4051H15.4047H15.4044H15.4041H15.4038H15.4035H15.4033H15.403H15.4028H15.4026H15.4023H15.4021H15.402H15.4018H15.4016H15.4015H15.4013H15.4012H15.401H15.4009H15.4008H15.4007H15.4006H15.4006H15.4005H15.4004H15.4003H15.4003H15.4002H15.4002H15.4002H15.4001H15.4001H15.4001H15.4001H15.4H15.4H15.4H15.4H15.4H15.4H15.4H15.4H15.4H15.3999H15.3999H15.3999H15.3999H15.3998H15.3998H15.3998H15.3997H15.3997H15.3996H15.3995H15.3994H15.3994H15.3993H15.3992H15.3991H15.399H15.3988H15.3987H15.3985H15.3984H15.3982H15.398H15.3979H15.3977H15.3974H15.3972H15.397H15.3967H15.3965H15.3962H15.3959H15.3956H15.3953H15.3949H15.3946H15.3942H15.3938H15.3934H15.393H15.3926H15.3921H15.3916H15.3911H15.3906H15.3901H15.3895H15.389H15.3884H15.3878H15.3871H15.3865H15.3858H15.3851H15.3844H15.3836H15.3829H15.3821H15.3813H15.3804H15.3796H15.3787H15.3778H15.3768H15.3758H15.3749H15.3738H15.3728H15.3717H15.3706H15.3695H15.3683H15.3671H15.3659H15.3647H15.3634H15.3621H15.3608H15.3594H15.358H15.3566H15.3551H15.3536H15.3521H15.3505H15.3489H15.3473H15.3456H15.3439H15.3422H15.3404H15.3386H15.3367H15.3349H15.333H15.331H15.329H15.327H15.3249H15.3228H15.3207H15.3185H15.3163H15.314H15.3117H15.3094H15.307H15.3045H15.3021H15.2996H15.297H15.2944H15.2918H15.2891H15.2864H15.2836H15.2808H15.2779H15.275H15.272H15.2691H15.266H15.2629H15.2598H15.2566H15.2534H15.2501H15.2467H15.2434H15.2399H15.2364H15.2329H15.2293H15.2257H15.222H15.2183H15.2145H15.2107H15.2068H15.2028H15.1988H15.1948H15.1907H15.1865H15.1823H15.178H15.1737H15.1693H15.1649H15.1604H15.1559H15.1513H15.1466H15.1419H15.1371H15.1322H15.1274H15.1224H15.1174H15.1123H15.1072H15.102H15.0967H15.0914H15.086H15.0806H15.0751H15.0695H15.0638H15.0581H15.0524H15.0466H15.0407H15.0347H15.0287H15.0226H15.0165H15.0102H15.0039H14.9976H14.9912H14.9847H14.9781H14.9715H14.9648H14.958H14.9512H14.9443H14.9373H14.9303H14.9232H14.916H14.9087H14.9014H14.894H14.8865H14.8789H14.8713H14.8636H14.8559H14.848H14.8401H14.8321H14.824H14.8159H14.8076H14.7993H14.7909H14.7825H14.7739H14.7653H14.7566H14.7479H14.739H14.7301H14.7211H14.712H14.7028H14.6935H14.6842H14.6748H14.6653H14.6557H14.646H14.6363H14.6265H14.6165H14.6065H14.5965H14.5863H14.576H14.5657H14.5553H14.5447H14.5341H14.5234H14.5127H14.5018H14.4909H14.4798H14.4687H14.4575H14.4461H14.4347H14.4233H14.4117H14.4C13.6405 11.9238 13.1574 12.0026 12.9 12.0987V20.4C12.9 21.5046 12.0046 22.4 10.9 22.4H2.4C1.29543 22.4 0.400002 21.5046 0.400002 20.4V15.7333C0.400002 14.6288 1.29543 13.7333 2.4 13.7333L6.4 13.7333V10.0191H2.4C1.29543 10.0191 0.400002 9.12364 0.400002 8.01906V3.3524C0.400002 2.24783 1.29543 1.3524 2.4 1.3524H7.4C7.95229 1.3524 8.4 1.80011 8.4 2.3524C8.4 2.90468 7.95229 3.3524 7.4 3.3524L2.4 3.3524V8.01906L6.4 8.01906C7.50457 8.01906 8.4 8.91449 8.4 10.0191V13.7333C8.4 14.8379 7.50457 15.7333 6.4 15.7333H2.4V20.4H10.9V11.8762V9.97144V9.96212V9.95275V9.94334V9.93388V9.92438V9.91484V9.90525V9.89561V9.88594V9.87622V9.86645V9.85665V9.8468V9.8369V9.82697V9.81699V9.80697V9.79691V9.78681V9.77666V9.76647V9.75625V9.74598V9.73567V9.72532V9.71493V9.70449V9.69402V9.68351V9.67296V9.66237V9.65174V9.64107V9.63036V9.61961V9.60882V9.598V9.58713V9.57623V9.56529V9.55431V9.54329V9.53224V9.52115V9.51002V9.49886V9.48765V9.47641V9.46514V9.45383V9.44248V9.4311V9.41968V9.40822V9.39673V9.38521V9.37365V9.36205V9.35042V9.33876V9.32706V9.31533V9.30356V9.29176V9.27992V9.26806V9.25615V9.24422V9.23225V9.22025V9.20822V9.19616V9.18406V9.17193V9.15977V9.14758V9.13535V9.1231V9.11081V9.0985V9.08615V9.07377V9.06136V9.04892V9.03645V9.02395V9.01143V8.99887V8.98628V8.97367V8.96102V8.94835V8.93564V8.92291V8.91015V8.89737V8.88455V8.87171V8.85884V8.84594V8.83301V8.82006V8.80708V8.79408V8.78105V8.76799V8.7549V8.74179V8.72866V8.71549V8.70231V8.6891V8.67586V8.6626V8.64931V8.636V8.62266V8.6093V8.59592V8.58251V8.56908V8.55563V8.54215V8.52865V8.51513V8.50158V8.48801V8.47442V8.46081V8.44717V8.43352V8.41984V8.40614V8.39242V8.37867V8.36491V8.35113V8.33732V8.3235V8.30965V8.29579V8.2819V8.268V8.25407V8.24013V8.22617V8.21218V8.19818V8.18417V8.17013V8.15607V8.142V8.12791V8.1138V8.09967V8.08553V8.07137V8.05719V8.04299V8.02878V8.01455V8.00031V7.98605V7.97177V7.95748V7.94317V7.92885V7.91451V7.90016V7.88579V7.87141V7.85701V7.8426V7.82818V7.81374V7.79928V7.78482V7.77034V7.75584V7.74134V7.72682V7.71229V7.69774V7.68319V7.66862V7.65404V7.63944V7.62484V7.61022V7.5956V7.58096V7.56631V7.55165V7.53698V7.5223V7.50761V7.49291V7.4782V7.46348V7.44875V7.43401V7.41926V7.40451V7.38974V7.37497V7.36018V7.34539V7.33059V7.31579V7.30097V7.28615V7.27132V7.25648V7.24164V7.22679V7.21193V7.19707V7.1822V7.16733V7.15244V7.13756V7.12266V7.10777V7.09286V7.07796V7.06304V7.04813V7.0332V7.01828V7.00335V6.98841V6.97347V6.95853V6.94359V6.92864V6.91369V6.89873V6.88378V6.86882V6.85386V6.83889V6.82393V6.80896V6.79399V6.77902V6.76405V6.74908V6.7341V6.71913V6.70415V6.68918V6.6742V6.65923V6.64425V6.62928V6.6143V6.59933V6.58436V6.56938V6.55441V6.53944V6.52448V6.50951V6.49455V6.47959V6.46463V6.44967V6.43472V6.41977V6.40482V6.38987V6.37493V6.36V6.34506V6.33013V6.31521V6.30028V6.28537V6.27046V6.25555V6.24065V6.22575V6.21086V6.19597V6.18109V6.16621V6.15135V6.13648V6.12163V6.10678V6.09194V6.0771V6.06227V6.04745V6.03264V6.01783V6.00303V5.98824V5.97346V5.95869V5.94393V5.92917V5.91442V5.89968V5.88496V5.87024V5.85553V5.84083V5.82614V5.81146V5.79679V5.78213V5.76749V5.75285V5.73822V5.72361V5.70901V5.69442V5.67984V5.66527V5.65071V5.63617V5.62164V5.60712V5.59262V5.57813V5.56365V5.54918V5.53473V5.5203V5.50587V5.49146V5.47707V5.46269V5.44832V5.43397V5.41963V5.40531V5.39101V5.37672V5.36244V5.34818V5.33394V5.31972V5.30551V5.29131V5.27714V5.26298V5.24884V5.23471V5.22061V5.20652V5.19245V5.17839V5.16436V5.15034V5.13634V5.12236V5.1084V5.09446V5.08054V5.06664V5.05276V5.03889V5.02505V5.01123V4.99743V4.98365V4.96989V4.95615V4.94243V4.92873V4.91505V4.9014V4.88777V4.87416V4.86057V4.847V4.83346V4.81994V4.80644V4.79297V4.77952V4.76609V4.75268V4.7393V4.72595V4.71261V4.69931V4.68602V4.67276V4.65953V4.64632V4.63314V4.61998V4.60685V4.59374V4.58066V4.5676V4.55457V4.54157V4.5286V4.51565V4.50273V4.48983V4.47697V4.46413V4.45131V4.43853V4.42577V4.41305V4.40035V4.38768V4.37504V4.36242V4.34984V4.33729V4.32476V4.31227V4.2998V4.28737V4.27496V4.26259V4.25024V4.23793V4.22565V4.2134V4.20118V4.18899V4.17683V4.16471V4.15261V4.14055V4.12853V4.11653V4.10457V4.09264V4.08074V4.06888V4.05705V4.04525V4.03349V4.02176V4.01006V3.9984V3.98678V3.97519V3.96363V3.95211V3.94063V3.92918V3.91776V3.90638V3.89504V3.88373V3.87246V3.86123V3.85003V3.83887V3.82775V3.81666V3.80561V3.7946V3.78363V3.77269V3.76179V3.75093V3.74011V3.72933V3.71859V3.70788V3.69722V3.68659V3.676V3.66546V3.65495V3.64448V3.63406V3.62367V3.61333V3.60302V3.59276V3.58253V3.57235V3.56221V3.55212V3.54206V3.53204V3.52207V3.51214V3.50226V3.49241V3.48261V3.47285V3.46314V3.45347V3.44384V3.43425V3.42471V3.41522V3.40577V3.39636V3.387V3.37768V3.36841V3.35918V3.35V3.34086V3.33177V3.32273V3.31373V3.30478C10.9 2.5859 11.1453 1.98191 11.5752 1.52127C11.9833 1.084 12.5024 0.834206 12.9724 0.684987C13.8717 0.399498 14.8745 0.39984 15.366 0.400008L15.4 0.400016L15.434 0.400008C15.9255 0.39984 16.9283 0.399498 17.8276 0.684987C18.2976 0.834206 18.8167 1.084 19.2248 1.52127C19.6547 1.98191 19.9 2.5859 19.9 3.30478V3.31373V3.32273V3.33177V3.34086V3.35V3.35918V3.36841V3.37768V3.387V3.39636V3.40577V3.41522V3.42471V3.43425V3.44384V3.45347V3.46314V3.47285V3.48261V3.49241V3.50226V3.51214V3.52207V3.53204V3.54206V3.55212V3.56221V3.57235V3.58253V3.59276V3.60302V3.61333V3.62367V3.63406V3.64448V3.65495V3.66546V3.676V3.68659V3.69722V3.70788V3.71859V3.72933V3.74011V3.75093V3.76179V3.77269V3.78363V3.7946V3.80561V3.81666V3.82775V3.83887V3.85003V3.86123V3.87246V3.88373V3.89504V3.90638V3.91776V3.92918V3.94063V3.95211V3.96363V3.97519V3.98678V3.9984V4.01006V4.02176V4.03349V4.04525V4.05705V4.06888V4.08074V4.09264V4.10457V4.11653V4.12853V4.14055V4.15261V4.16471V4.17683V4.18899V4.20118V4.2134V4.22565V4.23793V4.25024V4.26259V4.27496V4.28737V4.2998V4.31227V4.32476V4.33729V4.34984V4.36242V4.37504V4.38768V4.40035V4.41305V4.42577V4.43853V4.45131V4.46413V4.47697V4.48983V4.50273V4.51565V4.5286V4.54157V4.55457V4.5676V4.58066V4.59374V4.60685V4.61998V4.63314V4.64632V4.65953V4.67276V4.68602V4.69931V4.71261V4.72595V4.7393V4.75268V4.76609V4.77952V4.79297V4.80644V4.81994V4.83346V4.847V4.86057V4.87416V4.88777V4.9014V4.91505V4.92873V4.94243V4.95615V4.96989V4.98365V4.99743V5.01123V5.02505V5.03889V5.05276V5.06664V5.08054V5.09446V5.1084V5.12236V5.13634V5.15034V5.16436V5.17839V5.19245V5.20652V5.22061V5.23471V5.24884V5.26298V5.27714V5.29131V5.30551V5.31972V5.33394V5.34818V5.36244V5.37672V5.39101V5.40531V5.41963V5.43397V5.44832V5.46269V5.47707V5.49146V5.50587V5.5203V5.53473V5.54918V5.56365V5.57813V5.59262V5.60712V5.62164V5.63617V5.65071V5.66527V5.67984V5.69442V5.70901V5.72361V5.73822V5.75285V5.76749V5.78213V5.79679V5.81146V5.82614V5.84083V5.85553V5.87024V5.88496V5.89968V5.91442V5.92917V5.94393V5.95869V5.97346V5.98824V6.00303V6.01783V6.03264V6.04745V6.06227V6.0771V6.09194V6.10678V6.12163V6.13648V6.15135V6.16621V6.18109V6.19597V6.21086V6.22575V6.24065V6.25555V6.27046V6.28537V6.30028V6.31521V6.33013V6.34506V6.36V6.37493V6.38987V6.40482V6.41977V6.43472V6.44967V6.46463V6.47959V6.49455V6.50951V6.52448V6.53944V6.55441V6.56938V6.58436V6.59933V6.6143V6.62928V6.64425V6.65923V6.6742V6.68918V6.70415V6.71913V6.7341V6.74908V6.76405V6.77902V6.79399V6.80896V6.82393V6.83889V6.85386V6.86882V6.88378V6.89873V6.91369V6.92864V6.94359V6.95853V6.97347V6.98841V7.00335V7.01828V7.0332V7.04813V7.06304V7.07796V7.09286V7.10777V7.12266V7.13756V7.15244V7.16733V7.1822V7.19707V7.21193V7.22679V7.24164V7.25648V7.27132V7.28615V7.30097V7.31579V7.33059V7.34539V7.36018V7.37497V7.38974V7.40451V7.41926V7.43401V7.44875V7.46348V7.4782V7.49291V7.50761V7.5223V7.53698V7.55165V7.56631V7.58096V7.5956V7.61022V7.62484V7.63944V7.65404V7.66862V7.68319V7.69774V7.71229V7.72682V7.74134V7.75584V7.77034V7.78482V7.79928V7.81374V7.82818V7.8426V7.85701V7.87141V7.88579V7.90016V7.91451V7.92885V7.94317V7.95748V7.97177V7.98605V8.00031V8.01455V8.02878V8.04299V8.05719V8.07137V8.08553V8.09967V8.1138V8.12791V8.142V8.15607V8.17013V8.18417V8.19818V8.21218V8.22617V8.24013V8.25407V8.268V8.2819V8.29579V8.30965V8.3235V8.33732V8.35113V8.36491V8.37867V8.39242V8.40614V8.41984V8.43352V8.44717V8.46081V8.47442V8.48801V8.50158V8.51513V8.52865V8.54215V8.55563V8.56908V8.58251V8.59592V8.6093V8.62266V8.636V8.64931V8.6626V8.67586V8.6891V8.70231V8.71549V8.72866V8.74179V8.7549V8.76799V8.78105V8.79408V8.80708V8.82006V8.83301V8.84594V8.85884V8.87171V8.88455V8.89737V8.91015V8.92291V8.93564V8.94835V8.96102V8.97367V8.98628V8.99887V9.01143V9.02395V9.03645V9.04892V9.06136V9.07377V9.08615V9.0985V9.11081V9.1231V9.13535V9.14758V9.15977V9.17193V9.18406V9.19616V9.20822V9.22025V9.23225V9.24422V9.25615V9.26806V9.27992V9.29176V9.30356V9.31533V9.32706V9.33876V9.35042V9.36205V9.37365V9.38521V9.39673V9.40822V9.41968V9.4311V9.44248V9.45383V9.46514V9.47641V9.48765V9.49886V9.51002V9.52115V9.53224V9.54329V9.55431V9.56529V9.57623V9.58713V9.598V9.60882V9.61961V9.63036V9.64107V9.65174V9.66237V9.67296V9.68351V9.69402V9.70449V9.71493V9.72532V9.73567V9.74598V9.75625V9.76647V9.77666V9.78681V9.79691V9.80697V9.81699V9.82697V9.8369V9.8468V9.85665V9.86645V9.87622V9.88594V9.89561V9.90525V9.91484V9.92438V9.93388V9.94334V9.95275V9.96212V9.97144V11.8762V20.4H28.4V15.7333H24.4C23.2954 15.7333 22.4 14.8379 22.4 13.7333V10.0191C22.4 8.9145 23.2954 8.01906 24.4 8.01906H28.4V3.3524H23.4C22.8477 3.3524 22.4 2.90468 22.4 2.3524C22.4 1.80011 22.8477 1.3524 23.4 1.3524H28.4C29.5046 1.3524 30.4 2.24783 30.4 3.3524V8.01906C30.4 9.12363 29.5046 10.0191 28.4 10.0191L24.4 10.0191V13.7333H28.4C29.5046 13.7333 30.4 14.6288 30.4 15.7333V20.4C30.4 21.5046 29.5046 22.4 28.4 22.4H19.9C18.7954 22.4 17.9 21.5046 17.9 20.4Z" fill="url(#paint0_linear_2_114)"/>
<path d="M17.9 12.0987H18.3V11.821L18.0399 11.7239L17.9 12.0987ZM12.9 12.0987L12.7601 11.7239L12.5 11.821V12.0987H12.9ZM2.4 13.7333V14.1333L2.4 14.1333L2.4 13.7333ZM6.4 13.7333L6.4 14.1333L6.8 14.1333V13.7333H6.4ZM6.4 10.0191H6.8V9.61906H6.4V10.0191ZM7.4 3.3524L7.4 2.9524L7.4 2.9524L7.4 3.3524ZM2.4 3.3524L2.4 2.9524L2 2.9524V3.3524H2.4ZM2.4 8.01906H2V8.41906L2.4 8.41906L2.4 8.01906ZM6.4 8.01906V7.61906L6.4 7.61906L6.4 8.01906ZM2.4 15.7333V15.3333H2V15.7333H2.4ZM2.4 20.4H2V20.8H2.4V20.4ZM10.9 20.4V20.8H11.3V20.4H10.9ZM11.5752 1.52127L11.8676 1.7942L11.8676 1.7942L11.5752 1.52127ZM12.9724 0.684987L13.0935 1.06624L13.0935 1.06624L12.9724 0.684987ZM15.366 0.400008L15.3659 0.800008L15.3659 0.800008L15.366 0.400008ZM15.4 0.400016L15.3999 0.800016L15.4001 0.800016L15.4 0.400016ZM15.434 0.400008L15.4341 0.800008L15.4341 0.800008L15.434 0.400008ZM17.8276 0.684987L17.9486 0.303738L17.9486 0.303737L17.8276 0.684987ZM19.2248 1.52127L19.5172 1.24834L19.5172 1.24834L19.2248 1.52127ZM19.9 20.4H19.5V20.8H19.9V20.4ZM28.4 20.4V20.8H28.8V20.4H28.4ZM28.4 15.7333H28.8V15.3333H28.4V15.7333ZM28.4 8.01906V8.41906H28.8V8.01906H28.4ZM28.4 3.3524H28.8V2.9524H28.4V3.3524ZM28.4 10.0191L28.4 9.61906L28.4 9.61906L28.4 10.0191ZM24.4 10.0191L24.4 9.61907L24 9.61907V10.0191H24.4ZM24.4 13.7333H24V14.1333H24.4V13.7333ZM17.5 12.0987V20.4H18.3V12.0987H17.5ZM16.4 12.3238C17.1436 12.3238 17.5698 12.4024 17.7601 12.4734L18.0399 11.7239C17.7153 11.6028 17.1754 11.5238 16.4 11.5238V12.3238ZM16.3883 12.3238H16.4V11.5238H16.3883V12.3238ZM16.3767 12.3238H16.3883V11.5238H16.3767V12.3238ZM16.3653 12.3238H16.3767V11.5238H16.3653V12.3238ZM16.3539 12.3238H16.3653V11.5238H16.3539V12.3238ZM16.3425 12.3238H16.3539V11.5238H16.3425V12.3238ZM16.3313 12.3238H16.3425V11.5238H16.3313V12.3238ZM16.3202 12.3238H16.3313V11.5238H16.3202V12.3238ZM16.3092 12.3238H16.3202V11.5238H16.3092V12.3238ZM16.2982 12.3238H16.3092V11.5238H16.2982V12.3238ZM16.2873 12.3238H16.2982V11.5238H16.2873V12.3238ZM16.2766 12.3238H16.2873V11.5238H16.2766V12.3238ZM16.2659 12.3238H16.2766V11.5238H16.2659V12.3238ZM16.2553 12.3238H16.2659V11.5238H16.2553V12.3238ZM16.2447 12.3238H16.2553V11.5238H16.2447V12.3238ZM16.2343 12.3238H16.2447V11.5238H16.2343V12.3238ZM16.224 12.3238H16.2343V11.5238H16.224V12.3238ZM16.2137 12.3238H16.224V11.5238H16.2137V12.3238ZM16.2035 12.3238H16.2137V11.5238H16.2035V12.3238ZM16.1935 12.3238H16.2035V11.5238H16.1935V12.3238ZM16.1835 12.3238H16.1935V11.5238H16.1835V12.3238ZM16.1735 12.3238H16.1835V11.5238H16.1735V12.3238ZM16.1637 12.3238H16.1735V11.5238H16.1637V12.3238ZM16.154 12.3238H16.1637V11.5238H16.154V12.3238ZM16.1443 12.3238H16.154V11.5238H16.1443V12.3238ZM16.1347 12.3238H16.1443V11.5238H16.1347V12.3238ZM16.1252 12.3238H16.1347V11.5238H16.1252V12.3238ZM16.1158 12.3238H16.1252V11.5238H16.1158V12.3238ZM16.1065 12.3238H16.1158V11.5238H16.1065V12.3238ZM16.0972 12.3238H16.1065V11.5238H16.0972V12.3238ZM16.088 12.3238H16.0972V11.5238H16.088V12.3238ZM16.0789 12.3238H16.088V11.5238H16.0789V12.3238ZM16.0699 12.3238H16.0789V11.5238H16.0699V12.3238ZM16.061 12.3238H16.0699V11.5238H16.061V12.3238ZM16.0521 12.3238H16.061V11.5238H16.0521V12.3238ZM16.0434 12.3238H16.0521V11.5238H16.0434V12.3238ZM16.0347 12.3238H16.0434V11.5238H16.0347V12.3238ZM16.0261 12.3238H16.0347V11.5238H16.0261V12.3238ZM16.0175 12.3238H16.0261V11.5238H16.0175V12.3238ZM16.0091 12.3238H16.0175V11.5238H16.0091V12.3238ZM16.0007 12.3238H16.0091V11.5238H16.0007V12.3238ZM15.9924 12.3238H16.0007V11.5238H15.9924V12.3238ZM15.9841 12.3238H15.9924V11.5238H15.9841V12.3238ZM15.976 12.3238H15.9841V11.5238H15.976V12.3238ZM15.9679 12.3238H15.976V11.5238H15.9679V12.3238ZM15.9599 12.3238H15.9679V11.5238H15.9599V12.3238ZM15.952 12.3238H15.9599V11.5238H15.952V12.3238ZM15.9442 12.3238H15.952V11.5238H15.9442V12.3238ZM15.9364 12.3238H15.9442V11.5238H15.9364V12.3238ZM15.9287 12.3238H15.9364V11.5238H15.9287V12.3238ZM15.9211 12.3238H15.9287V11.5238H15.9211V12.3238ZM15.9135 12.3238H15.9211V11.5238H15.9135V12.3238ZM15.906 12.3238H15.9135V11.5238H15.906V12.3238ZM15.8986 12.3238H15.906V11.5238H15.8986V12.3238ZM15.8913 12.3238H15.8986V11.5238H15.8913V12.3238ZM15.884 12.3238H15.8913V11.5238H15.884V12.3238ZM15.8768 12.3238H15.884V11.5238H15.8768V12.3238ZM15.8697 12.3238H15.8768V11.5238H15.8697V12.3238ZM15.8627 12.3238H15.8697V11.5238H15.8627V12.3238ZM15.8557 12.3238H15.8627V11.5238H15.8557V12.3238ZM15.8488 12.3238H15.8557V11.5238H15.8488V12.3238ZM15.842 12.3238H15.8488V11.5238H15.842V12.3238ZM15.8352 12.3238H15.842V11.5238H15.8352V12.3238ZM15.8285 12.3238H15.8352V11.5238H15.8285V12.3238ZM15.8219 12.3238H15.8285V11.5238H15.8219V12.3238ZM15.8153 12.3238H15.8219V11.5238H15.8153V12.3238ZM15.8088 12.3238H15.8153V11.5238H15.8088V12.3238ZM15.8024 12.3238H15.8088V11.5238H15.8024V12.3238ZM15.7961 12.3238H15.8024V11.5238H15.7961V12.3238ZM15.7898 12.3238H15.7961V11.5238H15.7898V12.3238ZM15.7835 12.3238H15.7898V11.5238H15.7835V12.3238ZM15.7774 12.3238H15.7835V11.5238H15.7774V12.3238ZM15.7713 12.3238H15.7774V11.5238H15.7713V12.3238ZM15.7653 12.3238H15.7713V11.5238H15.7653V12.3238ZM15.7593 12.3238H15.7653V11.5238H15.7593V12.3238ZM15.7534 12.3238H15.7593V11.5238H15.7534V12.3238ZM15.7476 12.3238H15.7534V11.5238H15.7476V12.3238ZM15.7419 12.3238H15.7476V11.5238H15.7419V12.3238ZM15.7362 12.3238H15.7419V11.5238H15.7362V12.3238ZM15.7305 12.3238H15.7362V11.5238H15.7305V12.3238ZM15.725 12.3238H15.7305V11.5238H15.725V12.3238ZM15.7194 12.3238H15.725V11.5238H15.7194V12.3238ZM15.714 12.3238H15.7194V11.5238H15.714V12.3238ZM15.7086 12.3238H15.714V11.5238H15.7086V12.3238ZM15.7033 12.3238H15.7086V11.5238H15.7033V12.3238ZM15.698 12.3238H15.7033V11.5238H15.698V12.3238ZM15.6928 12.3238H15.698V11.5238H15.6928V12.3238ZM15.6877 12.3238H15.6928V11.5238H15.6877V12.3238ZM15.6826 12.3238H15.6877V11.5238H15.6826V12.3238ZM15.6776 12.3238H15.6826V11.5238H15.6776V12.3238ZM15.6727 12.3238H15.6776V11.5238H15.6727V12.3238ZM15.6678 12.3238H15.6727V11.5238H15.6678V12.3238ZM15.6629 12.3238H15.6678V11.5238H15.6629V12.3238ZM15.6581 12.3238H15.6629V11.5238H15.6581V12.3238ZM15.6534 12.3238H15.6581V11.5238H15.6534V12.3238ZM15.6487 12.3238H15.6534V11.5238H15.6487V12.3238ZM15.6441 12.3238H15.6487V11.5238H15.6441V12.3238ZM15.6396 12.3238H15.6441V11.5238H15.6396V12.3238ZM15.6351 12.3238H15.6396V11.5238H15.6351V12.3238ZM15.6307 12.3238H15.6351V11.5238H15.6307V12.3238ZM15.6263 12.3238H15.6307V11.5238H15.6263V12.3238ZM15.622 12.3238H15.6263V11.5238H15.622V12.3238ZM15.6177 12.3238H15.622V11.5238H15.6177V12.3238ZM15.6135 12.3238H15.6177V11.5238H15.6135V12.3238ZM15.6093 12.3238H15.6135V11.5238H15.6093V12.3238ZM15.6052 12.3238H15.6093V11.5238H15.6052V12.3238ZM15.6012 12.3238H15.6052V11.5238H15.6012V12.3238ZM15.5972 12.3238H15.6012V11.5238H15.5972V12.3238ZM15.5932 12.3238H15.5972V11.5238H15.5932V12.3238ZM15.5893 12.3238H15.5932V11.5238H15.5893V12.3238ZM15.5855 12.3238H15.5893V11.5238H15.5855V12.3238ZM15.5817 12.3238H15.5855V11.5238H15.5817V12.3238ZM15.578 12.3238H15.5817V11.5238H15.578V12.3238ZM15.5743 12.3238H15.578V11.5238H15.5743V12.3238ZM15.5707 12.3238H15.5743V11.5238H15.5707V12.3238ZM15.5671 12.3238H15.5707V11.5238H15.5671V12.3238ZM15.5636 12.3238H15.5671V11.5238H15.5636V12.3238ZM15.5601 12.3238H15.5636V11.5238H15.5601V12.3238ZM15.5566 12.3238H15.5601V11.5238H15.5566V12.3238ZM15.5533 12.3238H15.5566V11.5238H15.5533V12.3238ZM15.5499 12.3238H15.5533V11.5238H15.5499V12.3238ZM15.5467 12.3238H15.5499V11.5238H15.5467V12.3238ZM15.5434 12.3238H15.5467V11.5238H15.5434V12.3238ZM15.5402 12.3238H15.5434V11.5238H15.5402V12.3238ZM15.5371 12.3238H15.5402V11.5238H15.5371V12.3238ZM15.534 12.3238H15.5371V11.5238H15.534V12.3238ZM15.531 12.3238H15.534V11.5238H15.531V12.3238ZM15.528 12.3238H15.531V11.5238H15.528V12.3238ZM15.525 12.3238H15.528V11.5238H15.525V12.3238ZM15.5221 12.3238H15.525V11.5238H15.5221V12.3238ZM15.5192 12.3238H15.5221V11.5238H15.5192V12.3238ZM15.5164 12.3238H15.5192V11.5238H15.5164V12.3238ZM15.5136 12.3238H15.5164V11.5238H15.5136V12.3238ZM15.5109 12.3238H15.5136V11.5238H15.5109V12.3238ZM15.5082 12.3238H15.5109V11.5238H15.5082V12.3238ZM15.5056 12.3238H15.5082V11.5238H15.5056V12.3238ZM15.503 12.3238H15.5056V11.5238H15.503V12.3238ZM15.5004 12.3238H15.503V11.5238H15.5004V12.3238ZM15.4979 12.3238H15.5004V11.5238H15.4979V12.3238ZM15.4955 12.3238H15.4979V11.5238H15.4955V12.3238ZM15.493 12.3238H15.4955V11.5238H15.493V12.3238ZM15.4907 12.3238H15.493V11.5238H15.4907V12.3238ZM15.4883 12.3238H15.4907V11.5238H15.4883V12.3238ZM15.486 12.3238H15.4883V11.5238H15.486V12.3238ZM15.4837 12.3238H15.486V11.5238H15.4837V12.3238ZM15.4815 12.3238H15.4837V11.5238H15.4815V12.3238ZM15.4793 12.3238H15.4815V11.5238H15.4793V12.3238ZM15.4772 12.3238H15.4793V11.5238H15.4772V12.3238ZM15.4751 12.3238H15.4772V11.5238H15.4751V12.3238ZM15.473 12.3238H15.4751V11.5238H15.473V12.3238ZM15.471 12.3238H15.473V11.5238H15.471V12.3238ZM15.469 12.3238H15.471V11.5238H15.469V12.3238ZM15.467 12.3238H15.469V11.5238H15.467V12.3238ZM15.4651 12.3238H15.467V11.5238H15.4651V12.3238ZM15.4633 12.3238H15.4651V11.5238H15.4633V12.3238ZM15.4614 12.3238H15.4633V11.5238H15.4614V12.3238ZM15.4596 12.3238H15.4614V11.5238H15.4596V12.3238ZM15.4578 12.3238H15.4596V11.5238H15.4578V12.3238ZM15.4561 12.3238H15.4578V11.5238H15.4561V12.3238ZM15.4544 12.3238H15.4561V11.5238H15.4544V12.3238ZM15.4527 12.3238H15.4544V11.5238H15.4527V12.3238ZM15.4511 12.3238H15.4527V11.5238H15.4511V12.3238ZM15.4495 12.3238H15.4511V11.5238H15.4495V12.3238ZM15.4479 12.3238H15.4495V11.5238H15.4479V12.3238ZM15.4464 12.3238H15.4479V11.5238H15.4464V12.3238ZM15.4449 12.3238H15.4464V11.5238H15.4449V12.3238ZM15.4435 12.3238H15.4449V11.5238H15.4435V12.3238ZM15.442 12.3238H15.4435V11.5238H15.442V12.3238ZM15.4406 12.3238H15.442V11.5238H15.4406V12.3238ZM15.4393 12.3238H15.4406V11.5238H15.4393V12.3238ZM15.4379 12.3238H15.4393V11.5238H15.4379V12.3238ZM15.4366 12.3238H15.4379V11.5238H15.4366V12.3238ZM15.4353 12.3238H15.4366V11.5238H15.4353V12.3238ZM15.4341 12.3238H15.4353V11.5238H15.4341V12.3238ZM15.4329 12.3238H15.4341V11.5238H15.4329V12.3238ZM15.4317 12.3238H15.4329V11.5238H15.4317V12.3238ZM15.4305 12.3238H15.4317V11.5238H15.4305V12.3238ZM15.4294 12.3238H15.4305V11.5238H15.4294V12.3238ZM15.4283 12.3238H15.4294V11.5238H15.4283V12.3238ZM15.4272 12.3238H15.4283V11.5238H15.4272V12.3238ZM15.4262 12.3238H15.4272V11.5238H15.4262V12.3238ZM15.4251 12.3238H15.4262V11.5238H15.4251V12.3238ZM15.4242 12.3238H15.4251V11.5238H15.4242V12.3238ZM15.4232 12.3238H15.4242V11.5238H15.4232V12.3238ZM15.4222 12.3238H15.4232V11.5238H15.4222V12.3238ZM15.4213 12.3238H15.4222V11.5238H15.4213V12.3238ZM15.4204 12.3238H15.4213V11.5238H15.4204V12.3238ZM15.4196 12.3238H15.4204V11.5238H15.4196V12.3238ZM15.4187 12.3238H15.4196V11.5238H15.4187V12.3238ZM15.4179 12.3238H15.4187V11.5238H15.4179V12.3238ZM15.4171 12.3238H15.4179V11.5238H15.4171V12.3238ZM15.4164 12.3238H15.4171V11.5238H15.4164V12.3238ZM15.4156 12.3238H15.4164V11.5238H15.4156V12.3238ZM15.4149 12.3238H15.4156V11.5238H15.4149V12.3238ZM15.4142 12.3238H15.4149V11.5238H15.4142V12.3238ZM15.4135 12.3238H15.4142V11.5238H15.4135V12.3238ZM15.4129 12.3238H15.4135V11.5238H15.4129V12.3238ZM15.4122 12.3238H15.4129V11.5238H15.4122V12.3238ZM15.4116 12.3238H15.4122V11.5238H15.4116V12.3238ZM15.411 12.3238H15.4116V11.5238H15.411V12.3238ZM15.4105 12.3238H15.411V11.5238H15.4105V12.3238ZM15.4099 12.3238H15.4105V11.5238H15.4099V12.3238ZM15.4094 12.3238H15.4099V11.5238H15.4094V12.3238ZM15.4089 12.3238H15.4094V11.5238H15.4089V12.3238ZM15.4084 12.3238H15.4089V11.5238H15.4084V12.3238ZM15.4079 12.3238H15.4084V11.5238H15.4079V12.3238ZM15.4075 12.3238H15.4079V11.5238H15.4075V12.3238ZM15.407 12.3238H15.4075V11.5238H15.407V12.3238ZM15.4066 12.3238H15.407V11.5238H15.4066V12.3238ZM15.4062 12.3238H15.4066V11.5238H15.4062V12.3238ZM15.4058 12.3238H15.4062V11.5238H15.4058V12.3238ZM15.4054 12.3238H15.4058V11.5238H15.4054V12.3238ZM15.4051 12.3238H15.4054V11.5238H15.4051V12.3238ZM15.4047 12.3238H15.4051V11.5238H15.4047V12.3238ZM15.4044 12.3238H15.4047V11.5238H15.4044V12.3238ZM15.4041 12.3238H15.4044V11.5238H15.4041V12.3238ZM15.4038 12.3238H15.4041V11.5238H15.4038V12.3238ZM15.4035 12.3238H15.4038V11.5238H15.4035V12.3238ZM15.4033 12.3238H15.4035V11.5238H15.4033V12.3238ZM15.403 12.3238H15.4033V11.5238H15.403V12.3238ZM15.4028 12.3238H15.403V11.5238H15.4028V12.3238ZM15.4026 12.3238H15.4028V11.5238H15.4026V12.3238ZM15.4023 12.3238H15.4026V11.5238H15.4023V12.3238ZM15.4021 12.3238H15.4023V11.5238H15.4021V12.3238ZM15.402 12.3238H15.4021V11.5238H15.402V12.3238ZM15.4018 12.3238H15.402V11.5238H15.4018V12.3238ZM15.4016 12.3238H15.4018V11.5238H15.4016V12.3238ZM15.4015 12.3238H15.4016V11.5238H15.4015V12.3238ZM15.4013 12.3238H15.4015V11.5238H15.4013V12.3238ZM15.4012 12.3238H15.4013V11.5238H15.4012V12.3238ZM15.401 12.3238H15.4012V11.5238H15.401V12.3238ZM15.4009 12.3238H15.401V11.5238H15.4009V12.3238ZM15.4008 12.3238H15.4009V11.5238H15.4008V12.3238ZM15.4007 12.3238H15.4008V11.5238H15.4007V12.3238ZM15.4006 12.3238H15.4007V11.5238H15.4006V12.3238ZM15.4006 12.3238H15.4006V11.5238H15.4006V12.3238ZM15.4005 12.3238H15.4006V11.5238H15.4005V12.3238ZM15.4004 12.3238H15.4005V11.5238H15.4004V12.3238ZM15.4003 12.3238H15.4004V11.5238H15.4003V12.3238ZM15.4003 12.3238H15.4003V11.5238H15.4003V12.3238ZM15.4002 12.3238H15.4003V11.5238H15.4002V12.3238ZM15.4002 12.3238H15.4002V11.5238H15.4002V12.3238ZM15.4002 12.3238H15.4002V11.5238H15.4002V12.3238ZM15.4001 12.3238H15.4002V11.5238H15.4001V12.3238ZM15.4001 12.3238H15.4001V11.5238H15.4001V12.3238ZM15.4001 12.3238H15.4001V11.5238H15.4001V12.3238ZM15.4001 12.3238H15.4001V11.5238H15.4001V12.3238ZM15.4 12.3238H15.4001V11.5238H15.4V12.3238ZM15.4 12.3238H15.4V11.5238H15.4V12.3238ZM15.4 12.3238H15.4V11.5238H15.4V12.3238ZM15.4 12.3238H15.4V11.5238H15.4V12.3238ZM15.4 12.3238H15.4V11.5238H15.4V12.3238ZM15.4 12.3238H15.4V11.5238H15.4V12.3238ZM15.4 12.3238H15.4V11.5238H15.4V12.3238ZM15.4 12.3238H15.4V11.5238H15.4V12.3238ZM15.4 12.3238H15.4V11.5238H15.4V12.3238ZM15.3999 12.3238H15.4V11.5238H15.3999V12.3238ZM15.3999 12.3238H15.3999V11.5238H15.3999V12.3238ZM15.3999 12.3238H15.3999V11.5238H15.3999V12.3238ZM15.3999 12.3238H15.3999V11.5238H15.3999V12.3238ZM15.3998 12.3238H15.3999V11.5238H15.3998V12.3238ZM15.3998 12.3238H15.3998V11.5238H15.3998V12.3238ZM15.3998 12.3238H15.3998V11.5238H15.3998V12.3238ZM15.3997 12.3238H15.3998V11.5238H15.3997V12.3238ZM15.3997 12.3238H15.3997V11.5238H15.3997V12.3238ZM15.3996 12.3238H15.3997V11.5238H15.3996V12.3238ZM15.3995 12.3238H15.3996V11.5238H15.3995V12.3238ZM15.3994 12.3238H15.3995V11.5238H15.3994V12.3238ZM15.3994 12.3238H15.3994V11.5238H15.3994V12.3238ZM15.3993 12.3238H15.3994V11.5238H15.3993V12.3238ZM15.3992 12.3238H15.3993V11.5238H15.3992V12.3238ZM15.3991 12.3238H15.3992V11.5238H15.3991V12.3238ZM15.399 12.3238H15.3991V11.5238H15.399V12.3238ZM15.3988 12.3238H15.399V11.5238H15.3988V12.3238ZM15.3987 12.3238H15.3988V11.5238H15.3987V12.3238ZM15.3985 12.3238H15.3987V11.5238H15.3985V12.3238ZM15.3984 12.3238H15.3985V11.5238H15.3984V12.3238ZM15.3982 12.3238H15.3984V11.5238H15.3982V12.3238ZM15.398 12.3238H15.3982V11.5238H15.398V12.3238ZM15.3979 12.3238H15.398V11.5238H15.3979V12.3238ZM15.3977 12.3238H15.3979V11.5238H15.3977V12.3238ZM15.3974 12.3238H15.3977V11.5238H15.3974V12.3238ZM15.3972 12.3238H15.3974V11.5238H15.3972V12.3238ZM15.397 12.3238H15.3972V11.5238H15.397V12.3238ZM15.3967 12.3238H15.397V11.5238H15.3967V12.3238ZM15.3965 12.3238H15.3967V11.5238H15.3965V12.3238ZM15.3962 12.3238H15.3965V11.5238H15.3962V12.3238ZM15.3959 12.3238H15.3962V11.5238H15.3959V12.3238ZM15.3956 12.3238H15.3959V11.5238H15.3956V12.3238ZM15.3953 12.3238H15.3956V11.5238H15.3953V12.3238ZM15.3949 12.3238H15.3953V11.5238H15.3949V12.3238ZM15.3946 12.3238H15.3949V11.5238H15.3946V12.3238ZM15.3942 12.3238H15.3946V11.5238H15.3942V12.3238ZM15.3938 12.3238H15.3942V11.5238H15.3938V12.3238ZM15.3934 12.3238H15.3938V11.5238H15.3934V12.3238ZM15.393 12.3238H15.3934V11.5238H15.393V12.3238ZM15.3926 12.3238H15.393V11.5238H15.3926V12.3238ZM15.3921 12.3238H15.3926V11.5238H15.3921V12.3238ZM15.3916 12.3238H15.3921V11.5238H15.3916V12.3238ZM15.3911 12.3238H15.3916V11.5238H15.3911V12.3238ZM15.3906 12.3238H15.3911V11.5238H15.3906V12.3238ZM15.3901 12.3238H15.3906V11.5238H15.3901V12.3238ZM15.3895 12.3238H15.3901V11.5238H15.3895V12.3238ZM15.389 12.3238H15.3895V11.5238H15.389V12.3238ZM15.3884 12.3238H15.389V11.5238H15.3884V12.3238ZM15.3878 12.3238H15.3884V11.5238H15.3878V12.3238ZM15.3871 12.3238H15.3878V11.5238H15.3871V12.3238ZM15.3865 12.3238H15.3871V11.5238H15.3865V12.3238ZM15.3858 12.3238H15.3865V11.5238H15.3858V12.3238ZM15.3851 12.3238H15.3858V11.5238H15.3851V12.3238ZM15.3844 12.3238H15.3851V11.5238H15.3844V12.3238ZM15.3836 12.3238H15.3844V11.5238H15.3836V12.3238ZM15.3829 12.3238H15.3836V11.5238H15.3829V12.3238ZM15.3821 12.3238H15.3829V11.5238H15.3821V12.3238ZM15.3813 12.3238H15.3821V11.5238H15.3813V12.3238ZM15.3804 12.3238H15.3813V11.5238H15.3804V12.3238ZM15.3796 12.3238H15.3804V11.5238H15.3796V12.3238ZM15.3787 12.3238H15.3796V11.5238H15.3787V12.3238ZM15.3778 12.3238H15.3787V11.5238H15.3778V12.3238ZM15.3768 12.3238H15.3778V11.5238H15.3768V12.3238ZM15.3758 12.3238H15.3768V11.5238H15.3758V12.3238ZM15.3749 12.3238H15.3758V11.5238H15.3749V12.3238ZM15.3738 12.3238H15.3749V11.5238H15.3738V12.3238ZM15.3728 12.3238H15.3738V11.5238H15.3728V12.3238ZM15.3717 12.3238H15.3728V11.5238H15.3717V12.3238ZM15.3706 12.3238H15.3717V11.5238H15.3706V12.3238ZM15.3695 12.3238H15.3706V11.5238H15.3695V12.3238ZM15.3683 12.3238H15.3695V11.5238H15.3683V12.3238ZM15.3671 12.3238H15.3683V11.5238H15.3671V12.3238ZM15.3659 12.3238H15.3671V11.5238H15.3659V12.3238ZM15.3647 12.3238H15.3659V11.5238H15.3647V12.3238ZM15.3634 12.3238H15.3647V11.5238H15.3634V12.3238ZM15.3621 12.3238H15.3634V11.5238H15.3621V12.3238ZM15.3608 12.3238H15.3621V11.5238H15.3608V12.3238ZM15.3594 12.3238H15.3608V11.5238H15.3594V12.3238ZM15.358 12.3238H15.3594V11.5238H15.358V12.3238ZM15.3566 12.3238H15.358V11.5238H15.3566V12.3238ZM15.3551 12.3238H15.3566V11.5238H15.3551V12.3238ZM15.3536 12.3238H15.3551V11.5238H15.3536V12.3238ZM15.3521 12.3238H15.3536V11.5238H15.3521V12.3238ZM15.3505 12.3238H15.3521V11.5238H15.3505V12.3238ZM15.3489 12.3238H15.3505V11.5238H15.3489V12.3238ZM15.3473 12.3238H15.3489V11.5238H15.3473V12.3238ZM15.3456 12.3238H15.3473V11.5238H15.3456V12.3238ZM15.3439 12.3238H15.3456V11.5238H15.3439V12.3238ZM15.3422 12.3238H15.3439V11.5238H15.3422V12.3238ZM15.3404 12.3238H15.3422V11.5238H15.3404V12.3238ZM15.3386 12.3238H15.3404V11.5238H15.3386V12.3238ZM15.3367 12.3238H15.3386V11.5238H15.3367V12.3238ZM15.3349 12.3238H15.3367V11.5238H15.3349V12.3238ZM15.333 12.3238H15.3349V11.5238H15.333V12.3238ZM15.331 12.3238H15.333V11.5238H15.331V12.3238ZM15.329 12.3238H15.331V11.5238H15.329V12.3238ZM15.327 12.3238H15.329V11.5238H15.327V12.3238ZM15.3249 12.3238H15.327V11.5238H15.3249V12.3238ZM15.3228 12.3238H15.3249V11.5238H15.3228V12.3238ZM15.3207 12.3238H15.3228V11.5238H15.3207V12.3238ZM15.3185 12.3238H15.3207V11.5238H15.3185V12.3238ZM15.3163 12.3238H15.3185V11.5238H15.3163V12.3238ZM15.314 12.3238H15.3163V11.5238H15.314V12.3238ZM15.3117 12.3238H15.314V11.5238H15.3117V12.3238ZM15.3094 12.3238H15.3117V11.5238H15.3094V12.3238ZM15.307 12.3238H15.3094V11.5238H15.307V12.3238ZM15.3045 12.3238H15.307V11.5238H15.3045V12.3238ZM15.3021 12.3238H15.3045V11.5238H15.3021V12.3238ZM15.2996 12.3238H15.3021V11.5238H15.2996V12.3238ZM15.297 12.3238H15.2996V11.5238H15.297V12.3238ZM15.2944 12.3238H15.297V11.5238H15.2944V12.3238ZM15.2918 12.3238H15.2944V11.5238H15.2918V12.3238ZM15.2891 12.3238H15.2918V11.5238H15.2891V12.3238ZM15.2864 12.3238H15.2891V11.5238H15.2864V12.3238ZM15.2836 12.3238H15.2864V11.5238H15.2836V12.3238ZM15.2808 12.3238H15.2836V11.5238H15.2808V12.3238ZM15.2779 12.3238H15.2808V11.5238H15.2779V12.3238ZM15.275 12.3238H15.2779V11.5238H15.275V12.3238ZM15.272 12.3238H15.275V11.5238H15.272V12.3238ZM15.2691 12.3238H15.272V11.5238H15.2691V12.3238ZM15.266 12.3238H15.2691V11.5238H15.266V12.3238ZM15.2629 12.3238H15.266V11.5238H15.2629V12.3238ZM15.2598 12.3238H15.2629V11.5238H15.2598V12.3238ZM15.2566 12.3238H15.2598V11.5238H15.2566V12.3238ZM15.2534 12.3238H15.2566V11.5238H15.2534V12.3238ZM15.2501 12.3238H15.2534V11.5238H15.2501V12.3238ZM15.2467 12.3238H15.2501V11.5238H15.2467V12.3238ZM15.2434 12.3238H15.2467V11.5238H15.2434V12.3238ZM15.2399 12.3238H15.2434V11.5238H15.2399V12.3238ZM15.2364 12.3238H15.2399V11.5238H15.2364V12.3238ZM15.2329 12.3238H15.2364V11.5238H15.2329V12.3238ZM15.2293 12.3238H15.2329V11.5238H15.2293V12.3238ZM15.2257 12.3238H15.2293V11.5238H15.2257V12.3238ZM15.222 12.3238H15.2257V11.5238H15.222V12.3238ZM15.2183 12.3238H15.222V11.5238H15.2183V12.3238ZM15.2145 12.3238H15.2183V11.5238H15.2145V12.3238ZM15.2107 12.3238H15.2145V11.5238H15.2107V12.3238ZM15.2068 12.3238H15.2107V11.5238H15.2068V12.3238ZM15.2028 12.3238H15.2068V11.5238H15.2028V12.3238ZM15.1988 12.3238H15.2028V11.5238H15.1988V12.3238ZM15.1948 12.3238H15.1988V11.5238H15.1948V12.3238ZM15.1907 12.3238H15.1948V11.5238H15.1907V12.3238ZM15.1865 12.3238H15.1907V11.5238H15.1865V12.3238ZM15.1823 12.3238H15.1865V11.5238H15.1823V12.3238ZM15.178 12.3238H15.1823V11.5238H15.178V12.3238ZM15.1737 12.3238H15.178V11.5238H15.1737V12.3238ZM15.1693 12.3238H15.1737V11.5238H15.1693V12.3238ZM15.1649 12.3238H15.1693V11.5238H15.1649V12.3238ZM15.1604 12.3238H15.1649V11.5238H15.1604V12.3238ZM15.1559 12.3238H15.1604V11.5238H15.1559V12.3238ZM15.1513 12.3238H15.1559V11.5238H15.1513V12.3238ZM15.1466 12.3238H15.1513V11.5238H15.1466V12.3238ZM15.1419 12.3238H15.1466V11.5238H15.1419V12.3238ZM15.1371 12.3238H15.1419V11.5238H15.1371V12.3238ZM15.1322 12.3238H15.1371V11.5238H15.1322V12.3238ZM15.1274 12.3238H15.1322V11.5238H15.1274V12.3238ZM15.1224 12.3238H15.1274V11.5238H15.1224V12.3238ZM15.1174 12.3238H15.1224V11.5238H15.1174V12.3238ZM15.1123 12.3238H15.1174V11.5238H15.1123V12.3238ZM15.1072 12.3238H15.1123V11.5238H15.1072V12.3238ZM15.102 12.3238H15.1072V11.5238H15.102V12.3238ZM15.0967 12.3238H15.102V11.5238H15.0967V12.3238ZM15.0914 12.3238H15.0967V11.5238H15.0914V12.3238ZM15.086 12.3238H15.0914V11.5238H15.086V12.3238ZM15.0806 12.3238H15.086V11.5238H15.0806V12.3238ZM15.0751 12.3238H15.0806V11.5238H15.0751V12.3238ZM15.0695 12.3238H15.0751V11.5238H15.0695V12.3238ZM15.0638 12.3238H15.0695V11.5238H15.0638V12.3238ZM15.0581 12.3238H15.0638V11.5238H15.0581V12.3238ZM15.0524 12.3238H15.0581V11.5238H15.0524V12.3238ZM15.0466 12.3238H15.0524V11.5238H15.0466V12.3238ZM15.0407 12.3238H15.0466V11.5238H15.0407V12.3238ZM15.0347 12.3238H15.0407V11.5238H15.0347V12.3238ZM15.0287 12.3238H15.0347V11.5238H15.0287V12.3238ZM15.0226 12.3238H15.0287V11.5238H15.0226V12.3238ZM15.0165 12.3238H15.0226V11.5238H15.0165V12.3238ZM15.0102 12.3238H15.0165V11.5238H15.0102V12.3238ZM15.0039 12.3238H15.0102V11.5238H15.0039V12.3238ZM14.9976 12.3238H15.0039V11.5238H14.9976V12.3238ZM14.9912 12.3238H14.9976V11.5238H14.9912V12.3238ZM14.9847 12.3238H14.9912V11.5238H14.9847V12.3238ZM14.9781 12.3238H14.9847V11.5238H14.9781V12.3238ZM14.9715 12.3238H14.9781V11.5238H14.9715V12.3238ZM14.9648 12.3238H14.9715V11.5238H14.9648V12.3238ZM14.958 12.3238H14.9648V11.5238H14.958V12.3238ZM14.9512 12.3238H14.958V11.5238H14.9512V12.3238ZM14.9443 12.3238H14.9512V11.5238H14.9443V12.3238ZM14.9373 12.3238H14.9443V11.5238H14.9373V12.3238ZM14.9303 12.3238H14.9373V11.5238H14.9303V12.3238ZM14.9232 12.3238H14.9303V11.5238H14.9232V12.3238ZM14.916 12.3238H14.9232V11.5238H14.916V12.3238ZM14.9087 12.3238H14.916V11.5238H14.9087V12.3238ZM14.9014 12.3238H14.9087V11.5238H14.9014V12.3238ZM14.894 12.3238H14.9014V11.5238H14.894V12.3238ZM14.8865 12.3238H14.894V11.5238H14.8865V12.3238ZM14.8789 12.3238H14.8865V11.5238H14.8789V12.3238ZM14.8713 12.3238H14.8789V11.5238H14.8713V12.3238ZM14.8636 12.3238H14.8713V11.5238H14.8636V12.3238ZM14.8559 12.3238H14.8636V11.5238H14.8559V12.3238ZM14.848 12.3238H14.8559V11.5238H14.848V12.3238ZM14.8401 12.3238H14.848V11.5238H14.8401V12.3238ZM14.8321 12.3238H14.8401V11.5238H14.8321V12.3238ZM14.824 12.3238H14.8321V11.5238H14.824V12.3238ZM14.8159 12.3238H14.824V11.5238H14.8159V12.3238ZM14.8076 12.3238H14.8159V11.5238H14.8076V12.3238ZM14.7993 12.3238H14.8076V11.5238H14.7993V12.3238ZM14.7909 12.3238H14.7993V11.5238H14.7909V12.3238ZM14.7825 12.3238H14.7909V11.5238H14.7825V12.3238ZM14.7739 12.3238H14.7825V11.5238H14.7739V12.3238ZM14.7653 12.3238H14.7739V11.5238H14.7653V12.3238ZM14.7566 12.3238H14.7653V11.5238H14.7566V12.3238ZM14.7479 12.3238H14.7566V11.5238H14.7479V12.3238ZM14.739 12.3238H14.7479V11.5238H14.739V12.3238ZM14.7301 12.3238H14.739V11.5238H14.7301V12.3238ZM14.7211 12.3238H14.7301V11.5238H14.7211V12.3238ZM14.712 12.3238H14.7211V11.5238H14.712V12.3238ZM14.7028 12.3238H14.712V11.5238H14.7028V12.3238ZM14.6935 12.3238H14.7028V11.5238H14.6935V12.3238ZM14.6842 12.3238H14.6935V11.5238H14.6842V12.3238ZM14.6748 12.3238H14.6842V11.5238H14.6748V12.3238ZM14.6653 12.3238H14.6748V11.5238H14.6653V12.3238ZM14.6557 12.3238H14.6653V11.5238H14.6557V12.3238ZM14.646 12.3238H14.6557V11.5238H14.646V12.3238ZM14.6363 12.3238H14.646V11.5238H14.6363V12.3238ZM14.6265 12.3238H14.6363V11.5238H14.6265V12.3238ZM14.6165 12.3238H14.6265V11.5238H14.6165V12.3238ZM14.6065 12.3238H14.6165V11.5238H14.6065V12.3238ZM14.5965 12.3238H14.6065V11.5238H14.5965V12.3238ZM14.5863 12.3238H14.5965V11.5238H14.5863V12.3238ZM14.576 12.3238H14.5863V11.5238H14.576V12.3238ZM14.5657 12.3238H14.576V11.5238H14.5657V12.3238ZM14.5553 12.3238H14.5657V11.5238H14.5553V12.3238ZM14.5447 12.3238H14.5553V11.5238H14.5447V12.3238ZM14.5341 12.3238H14.5447V11.5238H14.5341V12.3238ZM14.5234 12.3238H14.5341V11.5238H14.5234V12.3238ZM14.5127 12.3238H14.5234V11.5238H14.5127V12.3238ZM14.5018 12.3238H14.5127V11.5238H14.5018V12.3238ZM14.4909 12.3238H14.5018V11.5238H14.4909V12.3238ZM14.4798 12.3238H14.4909V11.5238H14.4798V12.3238ZM14.4687 12.3238H14.4798V11.5238H14.4687V12.3238ZM14.4575 12.3238H14.4687V11.5238H14.4575V12.3238ZM14.4461 12.3238H14.4575V11.5238H14.4461V12.3238ZM14.4347 12.3238H14.4461V11.5238H14.4347V12.3238ZM14.4233 12.3238H14.4347V11.5238H14.4233V12.3238ZM14.4117 12.3238H14.4233V11.5238H14.4117V12.3238ZM14.4 12.3238H14.4117V11.5238H14.4V12.3238ZM13.0399 12.4734C13.2302 12.4024 13.6564 12.3238 14.4 12.3238V11.5238C13.6246 11.5238 13.0847 11.6028 12.7601 11.7239L13.0399 12.4734ZM13.3 20.4V12.0987H12.5V20.4H13.3ZM10.9 22.8C12.2255 22.8 13.3 21.7255 13.3 20.4H12.5C12.5 21.2837 11.7837 22 10.9 22V22.8ZM2.4 22.8H10.9V22H2.4V22.8ZM1.51992e-06 20.4C1.51992e-06 21.7255 1.07452 22.8 2.4 22.8V22C1.51635 22 0.800002 21.2837 0.800002 20.4H1.51992e-06ZM1.51992e-06 15.7333V20.4H0.800002V15.7333H1.51992e-06ZM2.4 13.3333C1.07452 13.3333 1.51992e-06 14.4079 1.51992e-06 15.7333H0.800002C0.800002 14.8497 1.51635 14.1333 2.4 14.1333V13.3333ZM6.4 13.3333L2.4 13.3333L2.4 14.1333L6.4 14.1333L6.4 13.3333ZM6 10.0191V13.7333H6.8V10.0191H6ZM2.4 10.4191H6.4V9.61906H2.4V10.4191ZM1.51992e-06 8.01906C1.51992e-06 9.34455 1.07452 10.4191 2.4 10.4191V9.61906C1.51635 9.61906 0.800002 8.90272 0.800002 8.01906H1.51992e-06ZM1.51992e-06 3.3524V8.01906H0.800002V3.3524H1.51992e-06ZM2.4 0.952397C1.07452 0.952397 1.51992e-06 2.02691 1.51992e-06 3.3524H0.800002C0.800002 2.46874 1.51635 1.7524 2.4 1.7524V0.952397ZM7.4 0.952397H2.4V1.7524H7.4V0.952397ZM8.8 2.3524C8.8 1.5792 8.1732 0.952397 7.4 0.952397V1.7524C7.73137 1.7524 8 2.02103 8 2.3524H8.8ZM7.4 3.7524C8.1732 3.7524 8.8 3.1256 8.8 2.3524H8C8 2.68377 7.73137 2.9524 7.4 2.9524V3.7524ZM2.4 3.7524L7.4 3.7524L7.4 2.9524L2.4 2.9524L2.4 3.7524ZM2.8 8.01906V3.3524H2V8.01906H2.8ZM6.4 7.61906L2.4 7.61906L2.4 8.41906L6.4 8.41906L6.4 7.61906ZM8.8 10.0191C8.8 8.69358 7.72548 7.61906 6.4 7.61906V8.41906C7.28366 8.41906 8 9.13541 8 10.0191H8.8ZM8.8 13.7333V10.0191H8V13.7333H8.8ZM6.4 16.1333C7.72549 16.1333 8.8 15.0588 8.8 13.7333H8C8 14.617 7.28366 15.3333 6.4 15.3333V16.1333ZM2.4 16.1333H6.4V15.3333H2.4V16.1333ZM2.8 20.4V15.7333H2V20.4H2.8ZM10.9 20H2.4V20.8H10.9V20ZM10.5 11.8762V20.4H11.3V11.8762H10.5ZM10.5 9.97144V11.8762H11.3V9.97144H10.5ZM10.5 9.96212V9.97144H11.3V9.96212H10.5ZM10.5 9.95275V9.96212H11.3V9.95275H10.5ZM10.5 9.94334V9.95275H11.3V9.94334H10.5ZM10.5 9.93388V9.94334H11.3V9.93388H10.5ZM10.5 9.92438V9.93388H11.3V9.92438H10.5ZM10.5 9.91484V9.92438H11.3V9.91484H10.5ZM10.5 9.90525V9.91484H11.3V9.90525H10.5ZM10.5 9.89561V9.90525H11.3V9.89561H10.5ZM10.5 9.88594V9.89561H11.3V9.88594H10.5ZM10.5 9.87622V9.88594H11.3V9.87622H10.5ZM10.5 9.86645V9.87622H11.3V9.86645H10.5ZM10.5 9.85665V9.86645H11.3V9.85665H10.5ZM10.5 9.8468V9.85665H11.3V9.8468H10.5ZM10.5 9.8369V9.8468H11.3V9.8369H10.5ZM10.5 9.82697V9.8369H11.3V9.82697H10.5ZM10.5 9.81699V9.82697H11.3V9.81699H10.5ZM10.5 9.80697V9.81699H11.3V9.80697H10.5ZM10.5 9.79691V9.80697H11.3V9.79691H10.5ZM10.5 9.78681V9.79691H11.3V9.78681H10.5ZM10.5 9.77666V9.78681H11.3V9.77666H10.5ZM10.5 9.76647V9.77666H11.3V9.76647H10.5ZM10.5 9.75625V9.76647H11.3V9.75625H10.5ZM10.5 9.74598V9.75625H11.3V9.74598H10.5ZM10.5 9.73567V9.74598H11.3V9.73567H10.5ZM10.5 9.72532V9.73567H11.3V9.72532H10.5ZM10.5 9.71493V9.72532H11.3V9.71493H10.5ZM10.5 9.70449V9.71493H11.3V9.70449H10.5ZM10.5 9.69402V9.70449H11.3V9.69402H10.5ZM10.5 9.68351V9.69402H11.3V9.68351H10.5ZM10.5 9.67296V9.68351H11.3V9.67296H10.5ZM10.5 9.66237V9.67296H11.3V9.66237H10.5ZM10.5 9.65174V9.66237H11.3V9.65174H10.5ZM10.5 9.64107V9.65174H11.3V9.64107H10.5ZM10.5 9.63036V9.64107H11.3V9.63036H10.5ZM10.5 9.61961V9.63036H11.3V9.61961H10.5ZM10.5 9.60882V9.61961H11.3V9.60882H10.5ZM10.5 9.598V9.60882H11.3V9.598H10.5ZM10.5 9.58713V9.598H11.3V9.58713H10.5ZM10.5 9.57623V9.58713H11.3V9.57623H10.5ZM10.5 9.56529V9.57623H11.3V9.56529H10.5ZM10.5 9.55431V9.56529H11.3V9.55431H10.5ZM10.5 9.54329V9.55431H11.3V9.54329H10.5ZM10.5 9.53224V9.54329H11.3V9.53224H10.5ZM10.5 9.52115V9.53224H11.3V9.52115H10.5ZM10.5 9.51002V9.52115H11.3V9.51002H10.5ZM10.5 9.49886V9.51002H11.3V9.49886H10.5ZM10.5 9.48765V9.49886H11.3V9.48765H10.5ZM10.5 9.47641V9.48765H11.3V9.47641H10.5ZM10.5 9.46514V9.47641H11.3V9.46514H10.5ZM10.5 9.45383V9.46514H11.3V9.45383H10.5ZM10.5 9.44248V9.45383H11.3V9.44248H10.5ZM10.5 9.4311V9.44248H11.3V9.4311H10.5ZM10.5 9.41968V9.4311H11.3V9.41968H10.5ZM10.5 9.40822V9.41968H11.3V9.40822H10.5ZM10.5 9.39673V9.40822H11.3V9.39673H10.5ZM10.5 9.38521V9.39673H11.3V9.38521H10.5ZM10.5 9.37365V9.38521H11.3V9.37365H10.5ZM10.5 9.36205V9.37365H11.3V9.36205H10.5ZM10.5 9.35042V9.36205H11.3V9.35042H10.5ZM10.5 9.33876V9.35042H11.3V9.33876H10.5ZM10.5 9.32706V9.33876H11.3V9.32706H10.5ZM10.5 9.31533V9.32706H11.3V9.31533H10.5ZM10.5 9.30356V9.31533H11.3V9.30356H10.5ZM10.5 9.29176V9.30356H11.3V9.29176H10.5ZM10.5 9.27992V9.29176H11.3V9.27992H10.5ZM10.5 9.26806V9.27992H11.3V9.26806H10.5ZM10.5 9.25615V9.26806H11.3V9.25615H10.5ZM10.5 9.24422V9.25615H11.3V9.24422H10.5ZM10.5 9.23225V9.24422H11.3V9.23225H10.5ZM10.5 9.22025V9.23225H11.3V9.22025H10.5ZM10.5 9.20822V9.22025H11.3V9.20822H10.5ZM10.5 9.19616V9.20822H11.3V9.19616H10.5ZM10.5 9.18406V9.19616H11.3V9.18406H10.5ZM10.5 9.17193V9.18406H11.3V9.17193H10.5ZM10.5 9.15977V9.17193H11.3V9.15977H10.5ZM10.5 9.14758V9.15977H11.3V9.14758H10.5ZM10.5 9.13535V9.14758H11.3V9.13535H10.5ZM10.5 9.1231V9.13535H11.3V9.1231H10.5ZM10.5 9.11081V9.1231H11.3V9.11081H10.5ZM10.5 9.0985V9.11081H11.3V9.0985H10.5ZM10.5 9.08615V9.0985H11.3V9.08615H10.5ZM10.5 9.07377V9.08615H11.3V9.07377H10.5ZM10.5 9.06136V9.07377H11.3V9.06136H10.5ZM10.5 9.04892V9.06136H11.3V9.04892H10.5ZM10.5 9.03645V9.04892H11.3V9.03645H10.5ZM10.5 9.02395V9.03645H11.3V9.02395H10.5ZM10.5 9.01143V9.02395H11.3V9.01143H10.5ZM10.5 8.99887V9.01143H11.3V8.99887H10.5ZM10.5 8.98628V8.99887H11.3V8.98628H10.5ZM10.5 8.97367V8.98628H11.3V8.97367H10.5ZM10.5 8.96102V8.97367H11.3V8.96102H10.5ZM10.5 8.94835V8.96102H11.3V8.94835H10.5ZM10.5 8.93564V8.94835H11.3V8.93564H10.5ZM10.5 8.92291V8.93564H11.3V8.92291H10.5ZM10.5 8.91015V8.92291H11.3V8.91015H10.5ZM10.5 8.89737V8.91015H11.3V8.89737H10.5ZM10.5 8.88455V8.89737H11.3V8.88455H10.5ZM10.5 8.87171V8.88455H11.3V8.87171H10.5ZM10.5 8.85884V8.87171H11.3V8.85884H10.5ZM10.5 8.84594V8.85884H11.3V8.84594H10.5ZM10.5 8.83301V8.84594H11.3V8.83301H10.5ZM10.5 8.82006V8.83301H11.3V8.82006H10.5ZM10.5 8.80708V8.82006H11.3V8.80708H10.5ZM10.5 8.79408V8.80708H11.3V8.79408H10.5ZM10.5 8.78105V8.79408H11.3V8.78105H10.5ZM10.5 8.76799V8.78105H11.3V8.76799H10.5ZM10.5 8.7549V8.76799H11.3V8.7549H10.5ZM10.5 8.74179V8.7549H11.3V8.74179H10.5ZM10.5 8.72866V8.74179H11.3V8.72866H10.5ZM10.5 8.71549V8.72866H11.3V8.71549H10.5ZM10.5 8.70231V8.71549H11.3V8.70231H10.5ZM10.5 8.6891V8.70231H11.3V8.6891H10.5ZM10.5 8.67586V8.6891H11.3V8.67586H10.5ZM10.5 8.6626V8.67586H11.3V8.6626H10.5ZM10.5 8.64931V8.6626H11.3V8.64931H10.5ZM10.5 8.636V8.64931H11.3V8.636H10.5ZM10.5 8.62266V8.636H11.3V8.62266H10.5ZM10.5 8.6093V8.62266H11.3V8.6093H10.5ZM10.5 8.59592V8.6093H11.3V8.59592H10.5ZM10.5 8.58251V8.59592H11.3V8.58251H10.5ZM10.5 8.56908V8.58251H11.3V8.56908H10.5ZM10.5 8.55563V8.56908H11.3V8.55563H10.5ZM10.5 8.54215V8.55563H11.3V8.54215H10.5ZM10.5 8.52865V8.54215H11.3V8.52865H10.5ZM10.5 8.51513V8.52865H11.3V8.51513H10.5ZM10.5 8.50158V8.51513H11.3V8.50158H10.5ZM10.5 8.48801V8.50158H11.3V8.48801H10.5ZM10.5 8.47442V8.48801H11.3V8.47442H10.5ZM10.5 8.46081V8.47442H11.3V8.46081H10.5ZM10.5 8.44717V8.46081H11.3V8.44717H10.5ZM10.5 8.43352V8.44717H11.3V8.43352H10.5ZM10.5 8.41984V8.43352H11.3V8.41984H10.5ZM10.5 8.40614V8.41984H11.3V8.40614H10.5ZM10.5 8.39242V8.40614H11.3V8.39242H10.5ZM10.5 8.37867V8.39242H11.3V8.37867H10.5ZM10.5 8.36491V8.37867H11.3V8.36491H10.5ZM10.5 8.35113V8.36491H11.3V8.35113H10.5ZM10.5 8.33732V8.35113H11.3V8.33732H10.5ZM10.5 8.3235V8.33732H11.3V8.3235H10.5ZM10.5 8.30965V8.3235H11.3V8.30965H10.5ZM10.5 8.29579V8.30965H11.3V8.29579H10.5ZM10.5 8.2819V8.29579H11.3V8.2819H10.5ZM10.5 8.268V8.2819H11.3V8.268H10.5ZM10.5 8.25407V8.268H11.3V8.25407H10.5ZM10.5 8.24013V8.25407H11.3V8.24013H10.5ZM10.5 8.22617V8.24013H11.3V8.22617H10.5ZM10.5 8.21218V8.22617H11.3V8.21218H10.5ZM10.5 8.19818V8.21218H11.3V8.19818H10.5ZM10.5 8.18417V8.19818H11.3V8.18417H10.5ZM10.5 8.17013V8.18417H11.3V8.17013H10.5ZM10.5 8.15607V8.17013H11.3V8.15607H10.5ZM10.5 8.142V8.15607H11.3V8.142H10.5ZM10.5 8.12791V8.142H11.3V8.12791H10.5ZM10.5 8.1138V8.12791H11.3V8.1138H10.5ZM10.5 8.09967V8.1138H11.3V8.09967H10.5ZM10.5 8.08553V8.09967H11.3V8.08553H10.5ZM10.5 8.07137V8.08553H11.3V8.07137H10.5ZM10.5 8.05719V8.07137H11.3V8.05719H10.5ZM10.5 8.04299V8.05719H11.3V8.04299H10.5ZM10.5 8.02878V8.04299H11.3V8.02878H10.5ZM10.5 8.01455V8.02878H11.3V8.01455H10.5ZM10.5 8.00031V8.01455H11.3V8.00031H10.5ZM10.5 7.98605V8.00031H11.3V7.98605H10.5ZM10.5 7.97177V7.98605H11.3V7.97177H10.5ZM10.5 7.95748V7.97177H11.3V7.95748H10.5ZM10.5 7.94317V7.95748H11.3V7.94317H10.5ZM10.5 7.92885V7.94317H11.3V7.92885H10.5ZM10.5 7.91451V7.92885H11.3V7.91451H10.5ZM10.5 7.90016V7.91451H11.3V7.90016H10.5ZM10.5 7.88579V7.90016H11.3V7.88579H10.5ZM10.5 7.87141V7.88579H11.3V7.87141H10.5ZM10.5 7.85701V7.87141H11.3V7.85701H10.5ZM10.5 7.8426V7.85701H11.3V7.8426H10.5ZM10.5 7.82818V7.8426H11.3V7.82818H10.5ZM10.5 7.81374V7.82818H11.3V7.81374H10.5ZM10.5 7.79928V7.81374H11.3V7.79928H10.5ZM10.5 7.78482V7.79928H11.3V7.78482H10.5ZM10.5 7.77034V7.78482H11.3V7.77034H10.5ZM10.5 7.75584V7.77034H11.3V7.75584H10.5ZM10.5 7.74134V7.75584H11.3V7.74134H10.5ZM10.5 7.72682V7.74134H11.3V7.72682H10.5ZM10.5 7.71229V7.72682H11.3V7.71229H10.5ZM10.5 7.69774V7.71229H11.3V7.69774H10.5ZM10.5 7.68319V7.69774H11.3V7.68319H10.5ZM10.5 7.66862V7.68319H11.3V7.66862H10.5ZM10.5 7.65404V7.66862H11.3V7.65404H10.5ZM10.5 7.63944V7.65404H11.3V7.63944H10.5ZM10.5 7.62484V7.63944H11.3V7.62484H10.5ZM10.5 7.61022V7.62484H11.3V7.61022H10.5ZM10.5 7.5956V7.61022H11.3V7.5956H10.5ZM10.5 7.58096V7.5956H11.3V7.58096H10.5ZM10.5 7.56631V7.58096H11.3V7.56631H10.5ZM10.5 7.55165V7.56631H11.3V7.55165H10.5ZM10.5 7.53698V7.55165H11.3V7.53698H10.5ZM10.5 7.5223V7.53698H11.3V7.5223H10.5ZM10.5 7.50761V7.5223H11.3V7.50761H10.5ZM10.5 7.49291V7.50761H11.3V7.49291H10.5ZM10.5 7.4782V7.49291H11.3V7.4782H10.5ZM10.5 7.46348V7.4782H11.3V7.46348H10.5ZM10.5 7.44875V7.46348H11.3V7.44875H10.5ZM10.5 7.43401V7.44875H11.3V7.43401H10.5ZM10.5 7.41926V7.43401H11.3V7.41926H10.5ZM10.5 7.40451V7.41926H11.3V7.40451H10.5ZM10.5 7.38974V7.40451H11.3V7.38974H10.5ZM10.5 7.37497V7.38974H11.3V7.37497H10.5ZM10.5 7.36018V7.37497H11.3V7.36018H10.5ZM10.5 7.34539V7.36018H11.3V7.34539H10.5ZM10.5 7.33059V7.34539H11.3V7.33059H10.5ZM10.5 7.31579V7.33059H11.3V7.31579H10.5ZM10.5 7.30097V7.31579H11.3V7.30097H10.5ZM10.5 7.28615V7.30097H11.3V7.28615H10.5ZM10.5 7.27132V7.28615H11.3V7.27132H10.5ZM10.5 7.25648V7.27132H11.3V7.25648H10.5ZM10.5 7.24164V7.25648H11.3V7.24164H10.5ZM10.5 7.22679V7.24164H11.3V7.22679H10.5ZM10.5 7.21193V7.22679H11.3V7.21193H10.5ZM10.5 7.19707V7.21193H11.3V7.19707H10.5ZM10.5 7.1822V7.19707H11.3V7.1822H10.5ZM10.5 7.16733V7.1822H11.3V7.16733H10.5ZM10.5 7.15244V7.16733H11.3V7.15244H10.5ZM10.5 7.13756V7.15244H11.3V7.13756H10.5ZM10.5 7.12266V7.13756H11.3V7.12266H10.5ZM10.5 7.10777V7.12266H11.3V7.10777H10.5ZM10.5 7.09286V7.10777H11.3V7.09286H10.5ZM10.5 7.07796V7.09286H11.3V7.07796H10.5ZM10.5 7.06304V7.07796H11.3V7.06304H10.5ZM10.5 7.04813V7.06304H11.3V7.04813H10.5ZM10.5 7.0332V7.04813H11.3V7.0332H10.5ZM10.5 7.01828V7.0332H11.3V7.01828H10.5ZM10.5 7.00335V7.01828H11.3V7.00335H10.5ZM10.5 6.98841V7.00335H11.3V6.98841H10.5ZM10.5 6.97347V6.98841H11.3V6.97347H10.5ZM10.5 6.95853V6.97347H11.3V6.95853H10.5ZM10.5 6.94359V6.95853H11.3V6.94359H10.5ZM10.5 6.92864V6.94359H11.3V6.92864H10.5ZM10.5 6.91369V6.92864H11.3V6.91369H10.5ZM10.5 6.89873V6.91369H11.3V6.89873H10.5ZM10.5 6.88378V6.89873H11.3V6.88378H10.5ZM10.5 6.86882V6.88378H11.3V6.86882H10.5ZM10.5 6.85386V6.86882H11.3V6.85386H10.5ZM10.5 6.83889V6.85386H11.3V6.83889H10.5ZM10.5 6.82393V6.83889H11.3V6.82393H10.5ZM10.5 6.80896V6.82393H11.3V6.80896H10.5ZM10.5 6.79399V6.80896H11.3V6.79399H10.5ZM10.5 6.77902V6.79399H11.3V6.77902H10.5ZM10.5 6.76405V6.77902H11.3V6.76405H10.5ZM10.5 6.74908V6.76405H11.3V6.74908H10.5ZM10.5 6.7341V6.74908H11.3V6.7341H10.5ZM10.5 6.71913V6.7341H11.3V6.71913H10.5ZM10.5 6.70415V6.71913H11.3V6.70415H10.5ZM10.5 6.68918V6.70415H11.3V6.68918H10.5ZM10.5 6.6742V6.68918H11.3V6.6742H10.5ZM10.5 6.65923V6.6742H11.3V6.65923H10.5ZM10.5 6.64425V6.65923H11.3V6.64425H10.5ZM10.5 6.62928V6.64425H11.3V6.62928H10.5ZM10.5 6.6143V6.62928H11.3V6.6143H10.5ZM10.5 6.59933V6.6143H11.3V6.59933H10.5ZM10.5 6.58436V6.59933H11.3V6.58436H10.5ZM10.5 6.56938V6.58436H11.3V6.56938H10.5ZM10.5 6.55441V6.56938H11.3V6.55441H10.5ZM10.5 6.53944V6.55441H11.3V6.53944H10.5ZM10.5 6.52448V6.53944H11.3V6.52448H10.5ZM10.5 6.50951V6.52448H11.3V6.50951H10.5ZM10.5 6.49455V6.50951H11.3V6.49455H10.5ZM10.5 6.47959V6.49455H11.3V6.47959H10.5ZM10.5 6.46463V6.47959H11.3V6.46463H10.5ZM10.5 6.44967V6.46463H11.3V6.44967H10.5ZM10.5 6.43472V6.44967H11.3V6.43472H10.5ZM10.5 6.41977V6.43472H11.3V6.41977H10.5ZM10.5 6.40482V6.41977H11.3V6.40482H10.5ZM10.5 6.38987V6.40482H11.3V6.38987H10.5ZM10.5 6.37493V6.38987H11.3V6.37493H10.5ZM10.5 6.36V6.37493H11.3V6.36H10.5ZM10.5 6.34506V6.36H11.3V6.34506H10.5ZM10.5 6.33013V6.34506H11.3V6.33013H10.5ZM10.5 6.31521V6.33013H11.3V6.31521H10.5ZM10.5 6.30028V6.31521H11.3V6.30028H10.5ZM10.5 6.28537V6.30028H11.3V6.28537H10.5ZM10.5 6.27046V6.28537H11.3V6.27046H10.5ZM10.5 6.25555V6.27046H11.3V6.25555H10.5ZM10.5 6.24065V6.25555H11.3V6.24065H10.5ZM10.5 6.22575V6.24065H11.3V6.22575H10.5ZM10.5 6.21086V6.22575H11.3V6.21086H10.5ZM10.5 6.19597V6.21086H11.3V6.19597H10.5ZM10.5 6.18109V6.19597H11.3V6.18109H10.5ZM10.5 6.16621V6.18109H11.3V6.16621H10.5ZM10.5 6.15135V6.16621H11.3V6.15135H10.5ZM10.5 6.13648V6.15135H11.3V6.13648H10.5ZM10.5 6.12163V6.13648H11.3V6.12163H10.5ZM10.5 6.10678V6.12163H11.3V6.10678H10.5ZM10.5 6.09194V6.10678H11.3V6.09194H10.5ZM10.5 6.0771V6.09194H11.3V6.0771H10.5ZM10.5 6.06227V6.0771H11.3V6.06227H10.5ZM10.5 6.04745V6.06227H11.3V6.04745H10.5ZM10.5 6.03264V6.04745H11.3V6.03264H10.5ZM10.5 6.01783V6.03264H11.3V6.01783H10.5ZM10.5 6.00303V6.01783H11.3V6.00303H10.5ZM10.5 5.98824V6.00303H11.3V5.98824H10.5ZM10.5 5.97346V5.98824H11.3V5.97346H10.5ZM10.5 5.95869V5.97346H11.3V5.95869H10.5ZM10.5 5.94393V5.95869H11.3V5.94393H10.5ZM10.5 5.92917V5.94393H11.3V5.92917H10.5ZM10.5 5.91442V5.92917H11.3V5.91442H10.5ZM10.5 5.89968V5.91442H11.3V5.89968H10.5ZM10.5 5.88496V5.89968H11.3V5.88496H10.5ZM10.5 5.87024V5.88496H11.3V5.87024H10.5ZM10.5 5.85553V5.87024H11.3V5.85553H10.5ZM10.5 5.84083V5.85553H11.3V5.84083H10.5ZM10.5 5.82614V5.84083H11.3V5.82614H10.5ZM10.5 5.81146V5.82614H11.3V5.81146H10.5ZM10.5 5.79679V5.81146H11.3V5.79679H10.5ZM10.5 5.78213V5.79679H11.3V5.78213H10.5ZM10.5 5.76749V5.78213H11.3V5.76749H10.5ZM10.5 5.75285V5.76749H11.3V5.75285H10.5ZM10.5 5.73822V5.75285H11.3V5.73822H10.5ZM10.5 5.72361V5.73822H11.3V5.72361H10.5ZM10.5 5.70901V5.72361H11.3V5.70901H10.5ZM10.5 5.69442V5.70901H11.3V5.69442H10.5ZM10.5 5.67984V5.69442H11.3V5.67984H10.5ZM10.5 5.66527V5.67984H11.3V5.66527H10.5ZM10.5 5.65071V5.66527H11.3V5.65071H10.5ZM10.5 5.63617V5.65071H11.3V5.63617H10.5ZM10.5 5.62164V5.63617H11.3V5.62164H10.5ZM10.5 5.60712V5.62164H11.3V5.60712H10.5ZM10.5 5.59262V5.60712H11.3V5.59262H10.5ZM10.5 5.57813V5.59262H11.3V5.57813H10.5ZM10.5 5.56365V5.57813H11.3V5.56365H10.5ZM10.5 5.54918V5.56365H11.3V5.54918H10.5ZM10.5 5.53473V5.54918H11.3V5.53473H10.5ZM10.5 5.5203V5.53473H11.3V5.5203H10.5ZM10.5 5.50587V5.5203H11.3V5.50587H10.5ZM10.5 5.49146V5.50587H11.3V5.49146H10.5ZM10.5 5.47707V5.49146H11.3V5.47707H10.5ZM10.5 5.46269V5.47707H11.3V5.46269H10.5ZM10.5 5.44832V5.46269H11.3V5.44832H10.5ZM10.5 5.43397V5.44832H11.3V5.43397H10.5ZM10.5 5.41963V5.43397H11.3V5.41963H10.5ZM10.5 5.40531V5.41963H11.3V5.40531H10.5ZM10.5 5.39101V5.40531H11.3V5.39101H10.5ZM10.5 5.37672V5.39101H11.3V5.37672H10.5ZM10.5 5.36244V5.37672H11.3V5.36244H10.5ZM10.5 5.34818V5.36244H11.3V5.34818H10.5ZM10.5 5.33394V5.34818H11.3V5.33394H10.5ZM10.5 5.31972V5.33394H11.3V5.31972H10.5ZM10.5 5.30551V5.31972H11.3V5.30551H10.5ZM10.5 5.29131V5.30551H11.3V5.29131H10.5ZM10.5 5.27714V5.29131H11.3V5.27714H10.5ZM10.5 5.26298V5.27714H11.3V5.26298H10.5ZM10.5 5.24884V5.26298H11.3V5.24884H10.5ZM10.5 5.23471V5.24884H11.3V5.23471H10.5ZM10.5 5.22061V5.23471H11.3V5.22061H10.5ZM10.5 5.20652V5.22061H11.3V5.20652H10.5ZM10.5 5.19245V5.20652H11.3V5.19245H10.5ZM10.5 5.17839V5.19245H11.3V5.17839H10.5ZM10.5 5.16436V5.17839H11.3V5.16436H10.5ZM10.5 5.15034V5.16436H11.3V5.15034H10.5ZM10.5 5.13634V5.15034H11.3V5.13634H10.5ZM10.5 5.12236V5.13634H11.3V5.12236H10.5ZM10.5 5.1084V5.12236H11.3V5.1084H10.5ZM10.5 5.09446V5.1084H11.3V5.09446H10.5ZM10.5 5.08054V5.09446H11.3V5.08054H10.5ZM10.5 5.06664V5.08054H11.3V5.06664H10.5ZM10.5 5.05276V5.06664H11.3V5.05276H10.5ZM10.5 5.03889V5.05276H11.3V5.03889H10.5ZM10.5 5.02505V5.03889H11.3V5.02505H10.5ZM10.5 5.01123V5.02505H11.3V5.01123H10.5ZM10.5 4.99743V5.01123H11.3V4.99743H10.5ZM10.5 4.98365V4.99743H11.3V4.98365H10.5ZM10.5 4.96989V4.98365H11.3V4.96989H10.5ZM10.5 4.95615V4.96989H11.3V4.95615H10.5ZM10.5 4.94243V4.95615H11.3V4.94243H10.5ZM10.5 4.92873V4.94243H11.3V4.92873H10.5ZM10.5 4.91505V4.92873H11.3V4.91505H10.5ZM10.5 4.9014V4.91505H11.3V4.9014H10.5ZM10.5 4.88777V4.9014H11.3V4.88777H10.5ZM10.5 4.87416V4.88777H11.3V4.87416H10.5ZM10.5 4.86057V4.87416H11.3V4.86057H10.5ZM10.5 4.847V4.86057H11.3V4.847H10.5ZM10.5 4.83346V4.847H11.3V4.83346H10.5ZM10.5 4.81994V4.83346H11.3V4.81994H10.5ZM10.5 4.80644V4.81994H11.3V4.80644H10.5ZM10.5 4.79297V4.80644H11.3V4.79297H10.5ZM10.5 4.77952V4.79297H11.3V4.77952H10.5ZM10.5 4.76609V4.77952H11.3V4.76609H10.5ZM10.5 4.75268V4.76609H11.3V4.75268H10.5ZM10.5 4.7393V4.75268H11.3V4.7393H10.5ZM10.5 4.72595V4.7393H11.3V4.72595H10.5ZM10.5 4.71261V4.72595H11.3V4.71261H10.5ZM10.5 4.69931V4.71261H11.3V4.69931H10.5ZM10.5 4.68602V4.69931H11.3V4.68602H10.5ZM10.5 4.67276V4.68602H11.3V4.67276H10.5ZM10.5 4.65953V4.67276H11.3V4.65953H10.5ZM10.5 4.64632V4.65953H11.3V4.64632H10.5ZM10.5 4.63314V4.64632H11.3V4.63314H10.5ZM10.5 4.61998V4.63314H11.3V4.61998H10.5ZM10.5 4.60685V4.61998H11.3V4.60685H10.5ZM10.5 4.59374V4.60685H11.3V4.59374H10.5ZM10.5 4.58066V4.59374H11.3V4.58066H10.5ZM10.5 4.5676V4.58066H11.3V4.5676H10.5ZM10.5 4.55457V4.5676H11.3V4.55457H10.5ZM10.5 4.54157V4.55457H11.3V4.54157H10.5ZM10.5 4.5286V4.54157H11.3V4.5286H10.5ZM10.5 4.51565V4.5286H11.3V4.51565H10.5ZM10.5 4.50273V4.51565H11.3V4.50273H10.5ZM10.5 4.48983V4.50273H11.3V4.48983H10.5ZM10.5 4.47697V4.48983H11.3V4.47697H10.5ZM10.5 4.46413V4.47697H11.3V4.46413H10.5ZM10.5 4.45131V4.46413H11.3V4.45131H10.5ZM10.5 4.43853V4.45131H11.3V4.43853H10.5ZM10.5 4.42577V4.43853H11.3V4.42577H10.5ZM10.5 4.41305V4.42577H11.3V4.41305H10.5ZM10.5 4.40035V4.41305H11.3V4.40035H10.5ZM10.5 4.38768V4.40035H11.3V4.38768H10.5ZM10.5 4.37504V4.38768H11.3V4.37504H10.5ZM10.5 4.36242V4.37504H11.3V4.36242H10.5ZM10.5 4.34984V4.36242H11.3V4.34984H10.5ZM10.5 4.33729V4.34984H11.3V4.33729H10.5ZM10.5 4.32476V4.33729H11.3V4.32476H10.5ZM10.5 4.31227V4.32476H11.3V4.31227H10.5ZM10.5 4.2998V4.31227H11.3V4.2998H10.5ZM10.5 4.28737V4.2998H11.3V4.28737H10.5ZM10.5 4.27496V4.28737H11.3V4.27496H10.5ZM10.5 4.26259V4.27496H11.3V4.26259H10.5ZM10.5 4.25024V4.26259H11.3V4.25024H10.5ZM10.5 4.23793V4.25024H11.3V4.23793H10.5ZM10.5 4.22565V4.23793H11.3V4.22565H10.5ZM10.5 4.2134V4.22565H11.3V4.2134H10.5ZM10.5 4.20118V4.2134H11.3V4.20118H10.5ZM10.5 4.18899V4.20118H11.3V4.18899H10.5ZM10.5 4.17683V4.18899H11.3V4.17683H10.5ZM10.5 4.16471V4.17683H11.3V4.16471H10.5ZM10.5 4.15261V4.16471H11.3V4.15261H10.5ZM10.5 4.14055V4.15261H11.3V4.14055H10.5ZM10.5 4.12853V4.14055H11.3V4.12853H10.5ZM10.5 4.11653V4.12853H11.3V4.11653H10.5ZM10.5 4.10457V4.11653H11.3V4.10457H10.5ZM10.5 4.09264V4.10457H11.3V4.09264H10.5ZM10.5 4.08074V4.09264H11.3V4.08074H10.5ZM10.5 4.06888V4.08074H11.3V4.06888H10.5ZM10.5 4.05705V4.06888H11.3V4.05705H10.5ZM10.5 4.04525V4.05705H11.3V4.04525H10.5ZM10.5 4.03349V4.04525H11.3V4.03349H10.5ZM10.5 4.02176V4.03349H11.3V4.02176H10.5ZM10.5 4.01006V4.02176H11.3V4.01006H10.5ZM10.5 3.9984V4.01006H11.3V3.9984H10.5ZM10.5 3.98678V3.9984H11.3V3.98678H10.5ZM10.5 3.97519V3.98678H11.3V3.97519H10.5ZM10.5 3.96363V3.97519H11.3V3.96363H10.5ZM10.5 3.95211V3.96363H11.3V3.95211H10.5ZM10.5 3.94063V3.95211H11.3V3.94063H10.5ZM10.5 3.92918V3.94063H11.3V3.92918H10.5ZM10.5 3.91776V3.92918H11.3V3.91776H10.5ZM10.5 3.90638V3.91776H11.3V3.90638H10.5ZM10.5 3.89504V3.90638H11.3V3.89504H10.5ZM10.5 3.88373V3.89504H11.3V3.88373H10.5ZM10.5 3.87246V3.88373H11.3V3.87246H10.5ZM10.5 3.86123V3.87246H11.3V3.86123H10.5ZM10.5 3.85003V3.86123H11.3V3.85003H10.5ZM10.5 3.83887V3.85003H11.3V3.83887H10.5ZM10.5 3.82775V3.83887H11.3V3.82775H10.5ZM10.5 3.81666V3.82775H11.3V3.81666H10.5ZM10.5 3.80561V3.81666H11.3V3.80561H10.5ZM10.5 3.7946V3.80561H11.3V3.7946H10.5ZM10.5 3.78363V3.7946H11.3V3.78363H10.5ZM10.5 3.77269V3.78363H11.3V3.77269H10.5ZM10.5 3.76179V3.77269H11.3V3.76179H10.5ZM10.5 3.75093V3.76179H11.3V3.75093H10.5ZM10.5 3.74011V3.75093H11.3V3.74011H10.5ZM10.5 3.72933V3.74011H11.3V3.72933H10.5ZM10.5 3.71859V3.72933H11.3V3.71859H10.5ZM10.5 3.70788V3.71859H11.3V3.70788H10.5ZM10.5 3.69722V3.70788H11.3V3.69722H10.5ZM10.5 3.68659V3.69722H11.3V3.68659H10.5ZM10.5 3.676V3.68659H11.3V3.676H10.5ZM10.5 3.66546V3.676H11.3V3.66546H10.5ZM10.5 3.65495V3.66546H11.3V3.65495H10.5ZM10.5 3.64448V3.65495H11.3V3.64448H10.5ZM10.5 3.63406V3.64448H11.3V3.63406H10.5ZM10.5 3.62367V3.63406H11.3V3.62367H10.5ZM10.5 3.61333V3.62367H11.3V3.61333H10.5ZM10.5 3.60302V3.61333H11.3V3.60302H10.5ZM10.5 3.59276V3.60302H11.3V3.59276H10.5ZM10.5 3.58253V3.59276H11.3V3.58253H10.5ZM10.5 3.57235V3.58253H11.3V3.57235H10.5ZM10.5 3.56221V3.57235H11.3V3.56221H10.5ZM10.5 3.55212V3.56221H11.3V3.55212H10.5ZM10.5 3.54206V3.55212H11.3V3.54206H10.5ZM10.5 3.53204V3.54206H11.3V3.53204H10.5ZM10.5 3.52207V3.53204H11.3V3.52207H10.5ZM10.5 3.51214V3.52207H11.3V3.51214H10.5ZM10.5 3.50226V3.51214H11.3V3.50226H10.5ZM10.5 3.49241V3.50226H11.3V3.49241H10.5ZM10.5 3.48261V3.49241H11.3V3.48261H10.5ZM10.5 3.47285V3.48261H11.3V3.47285H10.5ZM10.5 3.46314V3.47285H11.3V3.46314H10.5ZM10.5 3.45347V3.46314H11.3V3.45347H10.5ZM10.5 3.44384V3.45347H11.3V3.44384H10.5ZM10.5 3.43425V3.44384H11.3V3.43425H10.5ZM10.5 3.42471V3.43425H11.3V3.42471H10.5ZM10.5 3.41522V3.42471H11.3V3.41522H10.5ZM10.5 3.40577V3.41522H11.3V3.40577H10.5ZM10.5 3.39636V3.40577H11.3V3.39636H10.5ZM10.5 3.387V3.39636H11.3V3.387H10.5ZM10.5 3.37768V3.387H11.3V3.37768H10.5ZM10.5 3.36841V3.37768H11.3V3.36841H10.5ZM10.5 3.35918V3.36841H11.3V3.35918H10.5ZM10.5 3.35V3.35918H11.3V3.35H10.5ZM10.5 3.34086V3.35H11.3V3.34086H10.5ZM10.5 3.33177V3.34086H11.3V3.33177H10.5ZM10.5 3.32273V3.33177H11.3V3.32273H10.5ZM10.5 3.31373V3.32273H11.3V3.31373H10.5ZM10.5 3.30478V3.31373H11.3V3.30478H10.5ZM11.2828 1.24834C10.7808 1.78616 10.5 2.48892 10.5 3.30478H11.3C11.3 2.68288 11.5097 2.17766 11.8676 1.7942L11.2828 1.24834ZM12.8514 0.303738C12.3434 0.465005 11.7542 0.74327 11.2828 1.24834L11.8676 1.7942C12.2125 1.42472 12.6614 1.20341 13.0935 1.06624L12.8514 0.303738ZM15.3661 8.48724e-06C14.8797 -0.000157856 13.8177 -0.00302805 12.8514 0.303738L13.0935 1.06624C13.9257 0.802023 14.8692 0.799839 15.3659 0.800008L15.3661 8.48724e-06ZM15.4001 1.62229e-05L15.3661 8.47425e-06L15.3659 0.800008L15.3999 0.800016L15.4001 1.62229e-05ZM15.4339 8.47425e-06L15.3999 1.62229e-05L15.4001 0.800016L15.4341 0.800008L15.4339 8.47425e-06ZM17.9486 0.303737C16.9823 -0.00302803 15.9203 -0.000157857 15.4339 8.48724e-06L15.4341 0.800008C15.9308 0.799839 16.8743 0.802023 17.7065 1.06624L17.9486 0.303737ZM19.5172 1.24834C19.0458 0.743271 18.4566 0.465005 17.9486 0.303738L17.7065 1.06624C18.1386 1.20341 18.5875 1.42472 18.9324 1.7942L19.5172 1.24834ZM20.3 3.30478C20.3 2.48892 20.0192 1.78616 19.5172 1.24834L18.9324 1.7942C19.2903 2.17766 19.5 2.68288 19.5 3.30478H20.3ZM20.3 3.31373V3.30478H19.5V3.31373H20.3ZM20.3 3.32273V3.31373H19.5V3.32273H20.3ZM20.3 3.33177V3.32273H19.5V3.33177H20.3ZM20.3 3.34086V3.33177H19.5V3.34086H20.3ZM20.3 3.35V3.34086H19.5V3.35H20.3ZM20.3 3.35918V3.35H19.5V3.35918H20.3ZM20.3 3.36841V3.35918H19.5V3.36841H20.3ZM20.3 3.37768V3.36841H19.5V3.37768H20.3ZM20.3 3.387V3.37768H19.5V3.387H20.3ZM20.3 3.39636V3.387H19.5V3.39636H20.3ZM20.3 3.40577V3.39636H19.5V3.40577H20.3ZM20.3 3.41522V3.40577H19.5V3.41522H20.3ZM20.3 3.42471V3.41522H19.5V3.42471H20.3ZM20.3 3.43425V3.42471H19.5V3.43425H20.3ZM20.3 3.44384V3.43425H19.5V3.44384H20.3ZM20.3 3.45347V3.44384H19.5V3.45347H20.3ZM20.3 3.46314V3.45347H19.5V3.46314H20.3ZM20.3 3.47285V3.46314H19.5V3.47285H20.3ZM20.3 3.48261V3.47285H19.5V3.48261H20.3ZM20.3 3.49241V3.48261H19.5V3.49241H20.3ZM20.3 3.50226V3.49241H19.5V3.50226H20.3ZM20.3 3.51214V3.50226H19.5V3.51214H20.3ZM20.3 3.52207V3.51214H19.5V3.52207H20.3ZM20.3 3.53204V3.52207H19.5V3.53204H20.3ZM20.3 3.54206V3.53204H19.5V3.54206H20.3ZM20.3 3.55212V3.54206H19.5V3.55212H20.3ZM20.3 3.56221V3.55212H19.5V3.56221H20.3ZM20.3 3.57235V3.56221H19.5V3.57235H20.3ZM20.3 3.58253V3.57235H19.5V3.58253H20.3ZM20.3 3.59276V3.58253H19.5V3.59276H20.3ZM20.3 3.60302V3.59276H19.5V3.60302H20.3ZM20.3 3.61333V3.60302H19.5V3.61333H20.3ZM20.3 3.62367V3.61333H19.5V3.62367H20.3ZM20.3 3.63406V3.62367H19.5V3.63406H20.3ZM20.3 3.64448V3.63406H19.5V3.64448H20.3ZM20.3 3.65495V3.64448H19.5V3.65495H20.3ZM20.3 3.66546V3.65495H19.5V3.66546H20.3ZM20.3 3.676V3.66546H19.5V3.676H20.3ZM20.3 3.68659V3.676H19.5V3.68659H20.3ZM20.3 3.69722V3.68659H19.5V3.69722H20.3ZM20.3 3.70788V3.69722H19.5V3.70788H20.3ZM20.3 3.71859V3.70788H19.5V3.71859H20.3ZM20.3 3.72933V3.71859H19.5V3.72933H20.3ZM20.3 3.74011V3.72933H19.5V3.74011H20.3ZM20.3 3.75093V3.74011H19.5V3.75093H20.3ZM20.3 3.76179V3.75093H19.5V3.76179H20.3ZM20.3 3.77269V3.76179H19.5V3.77269H20.3ZM20.3 3.78363V3.77269H19.5V3.78363H20.3ZM20.3 3.7946V3.78363H19.5V3.7946H20.3ZM20.3 3.80561V3.7946H19.5V3.80561H20.3ZM20.3 3.81666V3.80561H19.5V3.81666H20.3ZM20.3 3.82775V3.81666H19.5V3.82775H20.3ZM20.3 3.83887V3.82775H19.5V3.83887H20.3ZM20.3 3.85003V3.83887H19.5V3.85003H20.3ZM20.3 3.86123V3.85003H19.5V3.86123H20.3ZM20.3 3.87246V3.86123H19.5V3.87246H20.3ZM20.3 3.88373V3.87246H19.5V3.88373H20.3ZM20.3 3.89504V3.88373H19.5V3.89504H20.3ZM20.3 3.90638V3.89504H19.5V3.90638H20.3ZM20.3 3.91776V3.90638H19.5V3.91776H20.3ZM20.3 3.92918V3.91776H19.5V3.92918H20.3ZM20.3 3.94063V3.92918H19.5V3.94063H20.3ZM20.3 3.95211V3.94063H19.5V3.95211H20.3ZM20.3 3.96363V3.95211H19.5V3.96363H20.3ZM20.3 3.97519V3.96363H19.5V3.97519H20.3ZM20.3 3.98678V3.97519H19.5V3.98678H20.3ZM20.3 3.9984V3.98678H19.5V3.9984H20.3ZM20.3 4.01006V3.9984H19.5V4.01006H20.3ZM20.3 4.02176V4.01006H19.5V4.02176H20.3ZM20.3 4.03349V4.02176H19.5V4.03349H20.3ZM20.3 4.04525V4.03349H19.5V4.04525H20.3ZM20.3 4.05705V4.04525H19.5V4.05705H20.3ZM20.3 4.06888V4.05705H19.5V4.06888H20.3ZM20.3 4.08074V4.06888H19.5V4.08074H20.3ZM20.3 4.09264V4.08074H19.5V4.09264H20.3ZM20.3 4.10457V4.09264H19.5V4.10457H20.3ZM20.3 4.11653V4.10457H19.5V4.11653H20.3ZM20.3 4.12853V4.11653H19.5V4.12853H20.3ZM20.3 4.14055V4.12853H19.5V4.14055H20.3ZM20.3 4.15261V4.14055H19.5V4.15261H20.3ZM20.3 4.16471V4.15261H19.5V4.16471H20.3ZM20.3 4.17683V4.16471H19.5V4.17683H20.3ZM20.3 4.18899V4.17683H19.5V4.18899H20.3ZM20.3 4.20118V4.18899H19.5V4.20118H20.3ZM20.3 4.2134V4.20118H19.5V4.2134H20.3ZM20.3 4.22565V4.2134H19.5V4.22565H20.3ZM20.3 4.23793V4.22565H19.5V4.23793H20.3ZM20.3 4.25024V4.23793H19.5V4.25024H20.3ZM20.3 4.26259V4.25024H19.5V4.26259H20.3ZM20.3 4.27496V4.26259H19.5V4.27496H20.3ZM20.3 4.28737V4.27496H19.5V4.28737H20.3ZM20.3 4.2998V4.28737H19.5V4.2998H20.3ZM20.3 4.31227V4.2998H19.5V4.31227H20.3ZM20.3 4.32476V4.31227H19.5V4.32476H20.3ZM20.3 4.33729V4.32476H19.5V4.33729H20.3ZM20.3 4.34984V4.33729H19.5V4.34984H20.3ZM20.3 4.36242V4.34984H19.5V4.36242H20.3ZM20.3 4.37504V4.36242H19.5V4.37504H20.3ZM20.3 4.38768V4.37504H19.5V4.38768H20.3ZM20.3 4.40035V4.38768H19.5V4.40035H20.3ZM20.3 4.41305V4.40035H19.5V4.41305H20.3ZM20.3 4.42577V4.41305H19.5V4.42577H20.3ZM20.3 4.43853V4.42577H19.5V4.43853H20.3ZM20.3 4.45131V4.43853H19.5V4.45131H20.3ZM20.3 4.46413V4.45131H19.5V4.46413H20.3ZM20.3 4.47697V4.46413H19.5V4.47697H20.3ZM20.3 4.48983V4.47697H19.5V4.48983H20.3ZM20.3 4.50273V4.48983H19.5V4.50273H20.3ZM20.3 4.51565V4.50273H19.5V4.51565H20.3ZM20.3 4.5286V4.51565H19.5V4.5286H20.3ZM20.3 4.54157V4.5286H19.5V4.54157H20.3ZM20.3 4.55457V4.54157H19.5V4.55457H20.3ZM20.3 4.5676V4.55457H19.5V4.5676H20.3ZM20.3 4.58066V4.5676H19.5V4.58066H20.3ZM20.3 4.59374V4.58066H19.5V4.59374H20.3ZM20.3 4.60685V4.59374H19.5V4.60685H20.3ZM20.3 4.61998V4.60685H19.5V4.61998H20.3ZM20.3 4.63314V4.61998H19.5V4.63314H20.3ZM20.3 4.64632V4.63314H19.5V4.64632H20.3ZM20.3 4.65953V4.64632H19.5V4.65953H20.3ZM20.3 4.67276V4.65953H19.5V4.67276H20.3ZM20.3 4.68602V4.67276H19.5V4.68602H20.3ZM20.3 4.69931V4.68602H19.5V4.69931H20.3ZM20.3 4.71261V4.69931H19.5V4.71261H20.3ZM20.3 4.72595V4.71261H19.5V4.72595H20.3ZM20.3 4.7393V4.72595H19.5V4.7393H20.3ZM20.3 4.75268V4.7393H19.5V4.75268H20.3ZM20.3 4.76609V4.75268H19.5V4.76609H20.3ZM20.3 4.77952V4.76609H19.5V4.77952H20.3ZM20.3 4.79297V4.77952H19.5V4.79297H20.3ZM20.3 4.80644V4.79297H19.5V4.80644H20.3ZM20.3 4.81994V4.80644H19.5V4.81994H20.3ZM20.3 4.83346V4.81994H19.5V4.83346H20.3ZM20.3 4.847V4.83346H19.5V4.847H20.3ZM20.3 4.86057V4.847H19.5V4.86057H20.3ZM20.3 4.87416V4.86057H19.5V4.87416H20.3ZM20.3 4.88777V4.87416H19.5V4.88777H20.3ZM20.3 4.9014V4.88777H19.5V4.9014H20.3ZM20.3 4.91505V4.9014H19.5V4.91505H20.3ZM20.3 4.92873V4.91505H19.5V4.92873H20.3ZM20.3 4.94243V4.92873H19.5V4.94243H20.3ZM20.3 4.95615V4.94243H19.5V4.95615H20.3ZM20.3 4.96989V4.95615H19.5V4.96989H20.3ZM20.3 4.98365V4.96989H19.5V4.98365H20.3ZM20.3 4.99743V4.98365H19.5V4.99743H20.3ZM20.3 5.01123V4.99743H19.5V5.01123H20.3ZM20.3 5.02505V5.01123H19.5V5.02505H20.3ZM20.3 5.03889V5.02505H19.5V5.03889H20.3ZM20.3 5.05276V5.03889H19.5V5.05276H20.3ZM20.3 5.06664V5.05276H19.5V5.06664H20.3ZM20.3 5.08054V5.06664H19.5V5.08054H20.3ZM20.3 5.09446V5.08054H19.5V5.09446H20.3ZM20.3 5.1084V5.09446H19.5V5.1084H20.3ZM20.3 5.12236V5.1084H19.5V5.12236H20.3ZM20.3 5.13634V5.12236H19.5V5.13634H20.3ZM20.3 5.15034V5.13634H19.5V5.15034H20.3ZM20.3 5.16436V5.15034H19.5V5.16436H20.3ZM20.3 5.17839V5.16436H19.5V5.17839H20.3ZM20.3 5.19245V5.17839H19.5V5.19245H20.3ZM20.3 5.20652V5.19245H19.5V5.20652H20.3ZM20.3 5.22061V5.20652H19.5V5.22061H20.3ZM20.3 5.23471V5.22061H19.5V5.23471H20.3ZM20.3 5.24884V5.23471H19.5V5.24884H20.3ZM20.3 5.26298V5.24884H19.5V5.26298H20.3ZM20.3 5.27714V5.26298H19.5V5.27714H20.3ZM20.3 5.29131V5.27714H19.5V5.29131H20.3ZM20.3 5.30551V5.29131H19.5V5.30551H20.3ZM20.3 5.31972V5.30551H19.5V5.31972H20.3ZM20.3 5.33394V5.31972H19.5V5.33394H20.3ZM20.3 5.34818V5.33394H19.5V5.34818H20.3ZM20.3 5.36244V5.34818H19.5V5.36244H20.3ZM20.3 5.37672V5.36244H19.5V5.37672H20.3ZM20.3 5.39101V5.37672H19.5V5.39101H20.3ZM20.3 5.40531V5.39101H19.5V5.40531H20.3ZM20.3 5.41963V5.40531H19.5V5.41963H20.3ZM20.3 5.43397V5.41963H19.5V5.43397H20.3ZM20.3 5.44832V5.43397H19.5V5.44832H20.3ZM20.3 5.46269V5.44832H19.5V5.46269H20.3ZM20.3 5.47707V5.46269H19.5V5.47707H20.3ZM20.3 5.49146V5.47707H19.5V5.49146H20.3ZM20.3 5.50587V5.49146H19.5V5.50587H20.3ZM20.3 5.5203V5.50587H19.5V5.5203H20.3ZM20.3 5.53473V5.5203H19.5V5.53473H20.3ZM20.3 5.54918V5.53473H19.5V5.54918H20.3ZM20.3 5.56365V5.54918H19.5V5.56365H20.3ZM20.3 5.57813V5.56365H19.5V5.57813H20.3ZM20.3 5.59262V5.57813H19.5V5.59262H20.3ZM20.3 5.60712V5.59262H19.5V5.60712H20.3ZM20.3 5.62164V5.60712H19.5V5.62164H20.3ZM20.3 5.63617V5.62164H19.5V5.63617H20.3ZM20.3 5.65071V5.63617H19.5V5.65071H20.3ZM20.3 5.66527V5.65071H19.5V5.66527H20.3ZM20.3 5.67984V5.66527H19.5V5.67984H20.3ZM20.3 5.69442V5.67984H19.5V5.69442H20.3ZM20.3 5.70901V5.69442H19.5V5.70901H20.3ZM20.3 5.72361V5.70901H19.5V5.72361H20.3ZM20.3 5.73822V5.72361H19.5V5.73822H20.3ZM20.3 5.75285V5.73822H19.5V5.75285H20.3ZM20.3 5.76749V5.75285H19.5V5.76749H20.3ZM20.3 5.78213V5.76749H19.5V5.78213H20.3ZM20.3 5.79679V5.78213H19.5V5.79679H20.3ZM20.3 5.81146V5.79679H19.5V5.81146H20.3ZM20.3 5.82614V5.81146H19.5V5.82614H20.3ZM20.3 5.84083V5.82614H19.5V5.84083H20.3ZM20.3 5.85553V5.84083H19.5V5.85553H20.3ZM20.3 5.87024V5.85553H19.5V5.87024H20.3ZM20.3 5.88496V5.87024H19.5V5.88496H20.3ZM20.3 5.89968V5.88496H19.5V5.89968H20.3ZM20.3 5.91442V5.89968H19.5V5.91442H20.3ZM20.3 5.92917V5.91442H19.5V5.92917H20.3ZM20.3 5.94393V5.92917H19.5V5.94393H20.3ZM20.3 5.95869V5.94393H19.5V5.95869H20.3ZM20.3 5.97346V5.95869H19.5V5.97346H20.3ZM20.3 5.98824V5.97346H19.5V5.98824H20.3ZM20.3 6.00303V5.98824H19.5V6.00303H20.3ZM20.3 6.01783V6.00303H19.5V6.01783H20.3ZM20.3 6.03264V6.01783H19.5V6.03264H20.3ZM20.3 6.04745V6.03264H19.5V6.04745H20.3ZM20.3 6.06227V6.04745H19.5V6.06227H20.3ZM20.3 6.0771V6.06227H19.5V6.0771H20.3ZM20.3 6.09194V6.0771H19.5V6.09194H20.3ZM20.3 6.10678V6.09194H19.5V6.10678H20.3ZM20.3 6.12163V6.10678H19.5V6.12163H20.3ZM20.3 6.13648V6.12163H19.5V6.13648H20.3ZM20.3 6.15135V6.13648H19.5V6.15135H20.3ZM20.3 6.16621V6.15135H19.5V6.16621H20.3ZM20.3 6.18109V6.16621H19.5V6.18109H20.3ZM20.3 6.19597V6.18109H19.5V6.19597H20.3ZM20.3 6.21086V6.19597H19.5V6.21086H20.3ZM20.3 6.22575V6.21086H19.5V6.22575H20.3ZM20.3 6.24065V6.22575H19.5V6.24065H20.3ZM20.3 6.25555V6.24065H19.5V6.25555H20.3ZM20.3 6.27046V6.25555H19.5V6.27046H20.3ZM20.3 6.28537V6.27046H19.5V6.28537H20.3ZM20.3 6.30028V6.28537H19.5V6.30028H20.3ZM20.3 6.31521V6.30028H19.5V6.31521H20.3ZM20.3 6.33013V6.31521H19.5V6.33013H20.3ZM20.3 6.34506V6.33013H19.5V6.34506H20.3ZM20.3 6.36V6.34506H19.5V6.36H20.3ZM20.3 6.37493V6.36H19.5V6.37493H20.3ZM20.3 6.38987V6.37493H19.5V6.38987H20.3ZM20.3 6.40482V6.38987H19.5V6.40482H20.3ZM20.3 6.41977V6.40482H19.5V6.41977H20.3ZM20.3 6.43472V6.41977H19.5V6.43472H20.3ZM20.3 6.44967V6.43472H19.5V6.44967H20.3ZM20.3 6.46463V6.44967H19.5V6.46463H20.3ZM20.3 6.47959V6.46463H19.5V6.47959H20.3ZM20.3 6.49455V6.47959H19.5V6.49455H20.3ZM20.3 6.50951V6.49455H19.5V6.50951H20.3ZM20.3 6.52448V6.50951H19.5V6.52448H20.3ZM20.3 6.53944V6.52448H19.5V6.53944H20.3ZM20.3 6.55441V6.53944H19.5V6.55441H20.3ZM20.3 6.56938V6.55441H19.5V6.56938H20.3ZM20.3 6.58436V6.56938H19.5V6.58436H20.3ZM20.3 6.59933V6.58436H19.5V6.59933H20.3ZM20.3 6.6143V6.59933H19.5V6.6143H20.3ZM20.3 6.62928V6.6143H19.5V6.62928H20.3ZM20.3 6.64425V6.62928H19.5V6.64425H20.3ZM20.3 6.65923V6.64425H19.5V6.65923H20.3ZM20.3 6.6742V6.65923H19.5V6.6742H20.3ZM20.3 6.68918V6.6742H19.5V6.68918H20.3ZM20.3 6.70415V6.68918H19.5V6.70415H20.3ZM20.3 6.71913V6.70415H19.5V6.71913H20.3ZM20.3 6.7341V6.71913H19.5V6.7341H20.3ZM20.3 6.74908V6.7341H19.5V6.74908H20.3ZM20.3 6.76405V6.74908H19.5V6.76405H20.3ZM20.3 6.77902V6.76405H19.5V6.77902H20.3ZM20.3 6.79399V6.77902H19.5V6.79399H20.3ZM20.3 6.80896V6.79399H19.5V6.80896H20.3ZM20.3 6.82393V6.80896H19.5V6.82393H20.3ZM20.3 6.83889V6.82393H19.5V6.83889H20.3ZM20.3 6.85386V6.83889H19.5V6.85386H20.3ZM20.3 6.86882V6.85386H19.5V6.86882H20.3ZM20.3 6.88378V6.86882H19.5V6.88378H20.3ZM20.3 6.89873V6.88378H19.5V6.89873H20.3ZM20.3 6.91369V6.89873H19.5V6.91369H20.3ZM20.3 6.92864V6.91369H19.5V6.92864H20.3ZM20.3 6.94359V6.92864H19.5V6.94359H20.3ZM20.3 6.95853V6.94359H19.5V6.95853H20.3ZM20.3 6.97347V6.95853H19.5V6.97347H20.3ZM20.3 6.98841V6.97347H19.5V6.98841H20.3ZM20.3 7.00335V6.98841H19.5V7.00335H20.3ZM20.3 7.01828V7.00335H19.5V7.01828H20.3ZM20.3 7.0332V7.01828H19.5V7.0332H20.3ZM20.3 7.04813V7.0332H19.5V7.04813H20.3ZM20.3 7.06304V7.04813H19.5V7.06304H20.3ZM20.3 7.07796V7.06304H19.5V7.07796H20.3ZM20.3 7.09286V7.07796H19.5V7.09286H20.3ZM20.3 7.10777V7.09286H19.5V7.10777H20.3ZM20.3 7.12266V7.10777H19.5V7.12266H20.3ZM20.3 7.13756V7.12266H19.5V7.13756H20.3ZM20.3 7.15244V7.13756H19.5V7.15244H20.3ZM20.3 7.16733V7.15244H19.5V7.16733H20.3ZM20.3 7.1822V7.16733H19.5V7.1822H20.3ZM20.3 7.19707V7.1822H19.5V7.19707H20.3ZM20.3 7.21193V7.19707H19.5V7.21193H20.3ZM20.3 7.22679V7.21193H19.5V7.22679H20.3ZM20.3 7.24164V7.22679H19.5V7.24164H20.3ZM20.3 7.25648V7.24164H19.5V7.25648H20.3ZM20.3 7.27132V7.25648H19.5V7.27132H20.3ZM20.3 7.28615V7.27132H19.5V7.28615H20.3ZM20.3 7.30097V7.28615H19.5V7.30097H20.3ZM20.3 7.31579V7.30097H19.5V7.31579H20.3ZM20.3 7.33059V7.31579H19.5V7.33059H20.3ZM20.3 7.34539V7.33059H19.5V7.34539H20.3ZM20.3 7.36018V7.34539H19.5V7.36018H20.3ZM20.3 7.37497V7.36018H19.5V7.37497H20.3ZM20.3 7.38974V7.37497H19.5V7.38974H20.3ZM20.3 7.40451V7.38974H19.5V7.40451H20.3ZM20.3 7.41926V7.40451H19.5V7.41926H20.3ZM20.3 7.43401V7.41926H19.5V7.43401H20.3ZM20.3 7.44875V7.43401H19.5V7.44875H20.3ZM20.3 7.46348V7.44875H19.5V7.46348H20.3ZM20.3 7.4782V7.46348H19.5V7.4782H20.3ZM20.3 7.49291V7.4782H19.5V7.49291H20.3ZM20.3 7.50761V7.49291H19.5V7.50761H20.3ZM20.3 7.5223V7.50761H19.5V7.5223H20.3ZM20.3 7.53698V7.5223H19.5V7.53698H20.3ZM20.3 7.55165V7.53698H19.5V7.55165H20.3ZM20.3 7.56631V7.55165H19.5V7.56631H20.3ZM20.3 7.58096V7.56631H19.5V7.58096H20.3ZM20.3 7.5956V7.58096H19.5V7.5956H20.3ZM20.3 7.61022V7.5956H19.5V7.61022H20.3ZM20.3 7.62484V7.61022H19.5V7.62484H20.3ZM20.3 7.63944V7.62484H19.5V7.63944H20.3ZM20.3 7.65404V7.63944H19.5V7.65404H20.3ZM20.3 7.66862V7.65404H19.5V7.66862H20.3ZM20.3 7.68319V7.66862H19.5V7.68319H20.3ZM20.3 7.69774V7.68319H19.5V7.69774H20.3ZM20.3 7.71229V7.69774H19.5V7.71229H20.3ZM20.3 7.72682V7.71229H19.5V7.72682H20.3ZM20.3 7.74134V7.72682H19.5V7.74134H20.3ZM20.3 7.75584V7.74134H19.5V7.75584H20.3ZM20.3 7.77034V7.75584H19.5V7.77034H20.3ZM20.3 7.78482V7.77034H19.5V7.78482H20.3ZM20.3 7.79928V7.78482H19.5V7.79928H20.3ZM20.3 7.81374V7.79928H19.5V7.81374H20.3ZM20.3 7.82818V7.81374H19.5V7.82818H20.3ZM20.3 7.8426V7.82818H19.5V7.8426H20.3ZM20.3 7.85701V7.8426H19.5V7.85701H20.3ZM20.3 7.87141V7.85701H19.5V7.87141H20.3ZM20.3 7.88579V7.87141H19.5V7.88579H20.3ZM20.3 7.90016V7.88579H19.5V7.90016H20.3ZM20.3 7.91451V7.90016H19.5V7.91451H20.3ZM20.3 7.92885V7.91451H19.5V7.92885H20.3ZM20.3 7.94317V7.92885H19.5V7.94317H20.3ZM20.3 7.95748V7.94317H19.5V7.95748H20.3ZM20.3 7.97177V7.95748H19.5V7.97177H20.3ZM20.3 7.98605V7.97177H19.5V7.98605H20.3ZM20.3 8.00031V7.98605H19.5V8.00031H20.3ZM20.3 8.01455V8.00031H19.5V8.01455H20.3ZM20.3 8.02878V8.01455H19.5V8.02878H20.3ZM20.3 8.04299V8.02878H19.5V8.04299H20.3ZM20.3 8.05719V8.04299H19.5V8.05719H20.3ZM20.3 8.07137V8.05719H19.5V8.07137H20.3ZM20.3 8.08553V8.07137H19.5V8.08553H20.3ZM20.3 8.09967V8.08553H19.5V8.09967H20.3ZM20.3 8.1138V8.09967H19.5V8.1138H20.3ZM20.3 8.12791V8.1138H19.5V8.12791H20.3ZM20.3 8.142V8.12791H19.5V8.142H20.3ZM20.3 8.15607V8.142H19.5V8.15607H20.3ZM20.3 8.17013V8.15607H19.5V8.17013H20.3ZM20.3 8.18417V8.17013H19.5V8.18417H20.3ZM20.3 8.19818V8.18417H19.5V8.19818H20.3ZM20.3 8.21218V8.19818H19.5V8.21218H20.3ZM20.3 8.22617V8.21218H19.5V8.22617H20.3ZM20.3 8.24013V8.22617H19.5V8.24013H20.3ZM20.3 8.25407V8.24013H19.5V8.25407H20.3ZM20.3 8.268V8.25407H19.5V8.268H20.3ZM20.3 8.2819V8.268H19.5V8.2819H20.3ZM20.3 8.29579V8.2819H19.5V8.29579H20.3ZM20.3 8.30965V8.29579H19.5V8.30965H20.3ZM20.3 8.3235V8.30965H19.5V8.3235H20.3ZM20.3 8.33732V8.3235H19.5V8.33732H20.3ZM20.3 8.35113V8.33732H19.5V8.35113H20.3ZM20.3 8.36491V8.35113H19.5V8.36491H20.3ZM20.3 8.37867V8.36491H19.5V8.37867H20.3ZM20.3 8.39242V8.37867H19.5V8.39242H20.3ZM20.3 8.40614V8.39242H19.5V8.40614H20.3ZM20.3 8.41984V8.40614H19.5V8.41984H20.3ZM20.3 8.43352V8.41984H19.5V8.43352H20.3ZM20.3 8.44717V8.43352H19.5V8.44717H20.3ZM20.3 8.46081V8.44717H19.5V8.46081H20.3ZM20.3 8.47442V8.46081H19.5V8.47442H20.3ZM20.3 8.48801V8.47442H19.5V8.48801H20.3ZM20.3 8.50158V8.48801H19.5V8.50158H20.3ZM20.3 8.51513V8.50158H19.5V8.51513H20.3ZM20.3 8.52865V8.51513H19.5V8.52865H20.3ZM20.3 8.54215V8.52865H19.5V8.54215H20.3ZM20.3 8.55563V8.54215H19.5V8.55563H20.3ZM20.3 8.56908V8.55563H19.5V8.56908H20.3ZM20.3 8.58251V8.56908H19.5V8.58251H20.3ZM20.3 8.59592V8.58251H19.5V8.59592H20.3ZM20.3 8.6093V8.59592H19.5V8.6093H20.3ZM20.3 8.62266V8.6093H19.5V8.62266H20.3ZM20.3 8.636V8.62266H19.5V8.636H20.3ZM20.3 8.64931V8.636H19.5V8.64931H20.3ZM20.3 8.6626V8.64931H19.5V8.6626H20.3ZM20.3 8.67586V8.6626H19.5V8.67586H20.3ZM20.3 8.6891V8.67586H19.5V8.6891H20.3ZM20.3 8.70231V8.6891H19.5V8.70231H20.3ZM20.3 8.71549V8.70231H19.5V8.71549H20.3ZM20.3 8.72866V8.71549H19.5V8.72866H20.3ZM20.3 8.74179V8.72866H19.5V8.74179H20.3ZM20.3 8.7549V8.74179H19.5V8.7549H20.3ZM20.3 8.76799V8.7549H19.5V8.76799H20.3ZM20.3 8.78105V8.76799H19.5V8.78105H20.3ZM20.3 8.79408V8.78105H19.5V8.79408H20.3ZM20.3 8.80708V8.79408H19.5V8.80708H20.3ZM20.3 8.82006V8.80708H19.5V8.82006H20.3ZM20.3 8.83301V8.82006H19.5V8.83301H20.3ZM20.3 8.84594V8.83301H19.5V8.84594H20.3ZM20.3 8.85884V8.84594H19.5V8.85884H20.3ZM20.3 8.87171V8.85884H19.5V8.87171H20.3ZM20.3 8.88455V8.87171H19.5V8.88455H20.3ZM20.3 8.89737V8.88455H19.5V8.89737H20.3ZM20.3 8.91015V8.89737H19.5V8.91015H20.3ZM20.3 8.92291V8.91015H19.5V8.92291H20.3ZM20.3 8.93564V8.92291H19.5V8.93564H20.3ZM20.3 8.94835V8.93564H19.5V8.94835H20.3ZM20.3 8.96102V8.94835H19.5V8.96102H20.3ZM20.3 8.97367V8.96102H19.5V8.97367H20.3ZM20.3 8.98628V8.97367H19.5V8.98628H20.3ZM20.3 8.99887V8.98628H19.5V8.99887H20.3ZM20.3 9.01143V8.99887H19.5V9.01143H20.3ZM20.3 9.02395V9.01143H19.5V9.02395H20.3ZM20.3 9.03645V9.02395H19.5V9.03645H20.3ZM20.3 9.04892V9.03645H19.5V9.04892H20.3ZM20.3 9.06136V9.04892H19.5V9.06136H20.3ZM20.3 9.07377V9.06136H19.5V9.07377H20.3ZM20.3 9.08615V9.07377H19.5V9.08615H20.3ZM20.3 9.0985V9.08615H19.5V9.0985H20.3ZM20.3 9.11081V9.0985H19.5V9.11081H20.3ZM20.3 9.1231V9.11081H19.5V9.1231H20.3ZM20.3 9.13535V9.1231H19.5V9.13535H20.3ZM20.3 9.14758V9.13535H19.5V9.14758H20.3ZM20.3 9.15977V9.14758H19.5V9.15977H20.3ZM20.3 9.17193V9.15977H19.5V9.17193H20.3ZM20.3 9.18406V9.17193H19.5V9.18406H20.3ZM20.3 9.19616V9.18406H19.5V9.19616H20.3ZM20.3 9.20822V9.19616H19.5V9.20822H20.3ZM20.3 9.22025V9.20822H19.5V9.22025H20.3ZM20.3 9.23225V9.22025H19.5V9.23225H20.3ZM20.3 9.24422V9.23225H19.5V9.24422H20.3ZM20.3 9.25615V9.24422H19.5V9.25615H20.3ZM20.3 9.26806V9.25615H19.5V9.26806H20.3ZM20.3 9.27992V9.26806H19.5V9.27992H20.3ZM20.3 9.29176V9.27992H19.5V9.29176H20.3ZM20.3 9.30356V9.29176H19.5V9.30356H20.3ZM20.3 9.31533V9.30356H19.5V9.31533H20.3ZM20.3 9.32706V9.31533H19.5V9.32706H20.3ZM20.3 9.33876V9.32706H19.5V9.33876H20.3ZM20.3 9.35042V9.33876H19.5V9.35042H20.3ZM20.3 9.36205V9.35042H19.5V9.36205H20.3ZM20.3 9.37365V9.36205H19.5V9.37365H20.3ZM20.3 9.38521V9.37365H19.5V9.38521H20.3ZM20.3 9.39673V9.38521H19.5V9.39673H20.3ZM20.3 9.40822V9.39673H19.5V9.40822H20.3ZM20.3 9.41968V9.40822H19.5V9.41968H20.3ZM20.3 9.4311V9.41968H19.5V9.4311H20.3ZM20.3 9.44248V9.4311H19.5V9.44248H20.3ZM20.3 9.45383V9.44248H19.5V9.45383H20.3ZM20.3 9.46514V9.45383H19.5V9.46514H20.3ZM20.3 9.47641V9.46514H19.5V9.47641H20.3ZM20.3 9.48765V9.47641H19.5V9.48765H20.3ZM20.3 9.49886V9.48765H19.5V9.49886H20.3ZM20.3 9.51002V9.49886H19.5V9.51002H20.3ZM20.3 9.52115V9.51002H19.5V9.52115H20.3ZM20.3 9.53224V9.52115H19.5V9.53224H20.3ZM20.3 9.54329V9.53224H19.5V9.54329H20.3ZM20.3 9.55431V9.54329H19.5V9.55431H20.3ZM20.3 9.56529V9.55431H19.5V9.56529H20.3ZM20.3 9.57623V9.56529H19.5V9.57623H20.3ZM20.3 9.58713V9.57623H19.5V9.58713H20.3ZM20.3 9.598V9.58713H19.5V9.598H20.3ZM20.3 9.60882V9.598H19.5V9.60882H20.3ZM20.3 9.61961V9.60882H19.5V9.61961H20.3ZM20.3 9.63036V9.61961H19.5V9.63036H20.3ZM20.3 9.64107V9.63036H19.5V9.64107H20.3ZM20.3 9.65174V9.64107H19.5V9.65174H20.3ZM20.3 9.66237V9.65174H19.5V9.66237H20.3ZM20.3 9.67296V9.66237H19.5V9.67296H20.3ZM20.3 9.68351V9.67296H19.5V9.68351H20.3ZM20.3 9.69402V9.68351H19.5V9.69402H20.3ZM20.3 9.70449V9.69402H19.5V9.70449H20.3ZM20.3 9.71493V9.70449H19.5V9.71493H20.3ZM20.3 9.72532V9.71493H19.5V9.72532H20.3ZM20.3 9.73567V9.72532H19.5V9.73567H20.3ZM20.3 9.74598V9.73567H19.5V9.74598H20.3ZM20.3 9.75625V9.74598H19.5V9.75625H20.3ZM20.3 9.76647V9.75625H19.5V9.76647H20.3ZM20.3 9.77666V9.76647H19.5V9.77666H20.3ZM20.3 9.78681V9.77666H19.5V9.78681H20.3ZM20.3 9.79691V9.78681H19.5V9.79691H20.3ZM20.3 9.80697V9.79691H19.5V9.80697H20.3ZM20.3 9.81699V9.80697H19.5V9.81699H20.3ZM20.3 9.82697V9.81699H19.5V9.82697H20.3ZM20.3 9.8369V9.82697H19.5V9.8369H20.3ZM20.3 9.8468V9.8369H19.5V9.8468H20.3ZM20.3 9.85665V9.8468H19.5V9.85665H20.3ZM20.3 9.86645V9.85665H19.5V9.86645H20.3ZM20.3 9.87622V9.86645H19.5V9.87622H20.3ZM20.3 9.88594V9.87622H19.5V9.88594H20.3ZM20.3 9.89561V9.88594H19.5V9.89561H20.3ZM20.3 9.90525V9.89561H19.5V9.90525H20.3ZM20.3 9.91484V9.90525H19.5V9.91484H20.3ZM20.3 9.92438V9.91484H19.5V9.92438H20.3ZM20.3 9.93388V9.92438H19.5V9.93388H20.3ZM20.3 9.94334V9.93388H19.5V9.94334H20.3ZM20.3 9.95275V9.94334H19.5V9.95275H20.3ZM20.3 9.96212V9.95275H19.5V9.96212H20.3ZM20.3 9.97144V9.96212H19.5V9.97144H20.3ZM20.3 11.8762V9.97144H19.5V11.8762H20.3ZM20.3 20.4V11.8762H19.5V20.4H20.3ZM28.4 20H19.9V20.8H28.4V20ZM28 15.7333V20.4H28.8V15.7333H28ZM24.4 16.1333H28.4V15.3333H24.4V16.1333ZM22 13.7333C22 15.0588 23.0745 16.1333 24.4 16.1333V15.3333C23.5163 15.3333 22.8 14.617 22.8 13.7333H22ZM22 10.0191V13.7333H22.8V10.0191H22ZM24.4 7.61906C23.0745 7.61906 22 8.69358 22 10.0191H22.8C22.8 9.13541 23.5163 8.41906 24.4 8.41906V7.61906ZM28.4 7.61906H24.4V8.41906H28.4V7.61906ZM28 3.3524V8.01906H28.8V3.3524H28ZM23.4 3.7524H28.4V2.9524H23.4V3.7524ZM22 2.3524C22 3.1256 22.6268 3.7524 23.4 3.7524V2.9524C23.0686 2.9524 22.8 2.68377 22.8 2.3524H22ZM23.4 0.952397C22.6268 0.952397 22 1.5792 22 2.3524H22.8C22.8 2.02103 23.0686 1.7524 23.4 1.7524V0.952397ZM28.4 0.952397H23.4V1.7524H28.4V0.952397ZM30.8 3.3524C30.8 2.02691 29.7255 0.952397 28.4 0.952397V1.7524C29.2837 1.7524 30 2.46874 30 3.3524H30.8ZM30.8 8.01906V3.3524H30V8.01906H30.8ZM28.4 10.4191C29.7255 10.4191 30.8 9.34455 30.8 8.01906H30C30 8.90272 29.2837 9.61906 28.4 9.61906V10.4191ZM24.4 10.4191L28.4 10.4191L28.4 9.61906L24.4 9.61907L24.4 10.4191ZM24.8 13.7333V10.0191H24V13.7333H24.8ZM28.4 13.3333H24.4V14.1333H28.4V13.3333ZM30.8 15.7333C30.8 14.4079 29.7255 13.3333 28.4 13.3333V14.1333C29.2837 14.1333 30 14.8497 30 15.7333H30.8ZM30.8 20.4V15.7333H30V20.4H30.8ZM28.4 22.8C29.7255 22.8 30.8 21.7255 30.8 20.4H30C30 21.2837 29.2837 22 28.4 22V22.8ZM19.9 22.8H28.4V22H19.9V22.8ZM17.5 20.4C17.5 21.7255 18.5745 22.8 19.9 22.8V22C19.0163 22 18.3 21.2837 18.3 20.4H17.5Z" fill="#544125" mask="url(#path-1-outside-1_2_114)"/>
<circle cx="13.4" cy="6.40002" r="1" fill="black"/>
<circle cx="17.4" cy="6.40002" r="1" fill="black"/>
<defs>
<linearGradient id="paint0_linear_2_114" x1="15.4" y1="0.35652" x2="15.4" y2="22.4435" gradientUnits="userSpaceOnUse">
<stop stop-color="#E4D652"/>
<stop offset="1" stop-color="#CBBA24"/>
</linearGradient>
</defs>
</svg>
