<svg width="30" height="12" viewBox="0 0 30 12" fill="none" xmlns="http://www.w3.org/2000/svg">
<path d="M1.91699 7.84762C1.74984 7.84762 1.59961 7.80848 1.46631 7.73019C1.33301 7.64979 1.2325 7.54717 1.16479 7.42233L1.14893 7.48898C1.12988 7.5715 1.11507 7.62969 1.10449 7.66354C1.08968 7.72278 1.05688 7.76193 1.0061 7.78097C0.955322 7.80001 0.880208 7.80954 0.780762 7.80954H0.714111C0.487712 7.80954 0.374512 7.75029 0.374512 7.6318V3.72799C0.374512 3.66663 0.402018 3.62114 0.457031 3.59152C0.512044 3.55978 0.597738 3.54391 0.714111 3.54391H0.869629C1.09603 3.54391 1.20923 3.60527 1.20923 3.72799V4.97848C1.36792 4.86211 1.55941 4.80392 1.78369 4.80392C2.03337 4.80392 2.24707 4.86634 2.4248 4.99118C2.60465 5.1139 2.74113 5.28952 2.83423 5.51803C2.92733 5.74655 2.97388 6.01421 2.97388 6.32101C2.97388 6.64051 2.92839 6.91557 2.8374 7.14621C2.74854 7.37472 2.6237 7.54928 2.46289 7.66989C2.3042 7.78838 2.12223 7.84762 1.91699 7.84762ZM1.67261 7.16208C1.97518 7.16208 2.12646 6.88172 2.12646 6.32101C2.12646 5.74761 1.9519 5.4609 1.60278 5.4609C1.47371 5.4609 1.34253 5.49687 1.20923 5.56881V6.82882C1.3383 7.05099 1.49276 7.16208 1.67261 7.16208ZM4.98761 7.84762C4.49249 7.84762 4.12327 7.71538 3.87994 7.45089C3.63661 7.18429 3.51495 6.81507 3.51495 6.34323C3.51495 5.81214 3.63661 5.42282 3.87994 5.17526C4.12327 4.9277 4.45864 4.80392 4.88604 4.80392C5.16957 4.80392 5.40126 4.86846 5.58111 4.99752C5.76308 5.12659 5.89532 5.3001 5.97784 5.51803C6.06248 5.73597 6.10479 5.98247 6.10479 6.25753C6.10479 6.28927 6.08575 6.33159 6.04767 6.38449C6.0117 6.43738 5.97044 6.48499 5.92389 6.52731C5.87734 6.56963 5.84137 6.59079 5.81598 6.59079H4.37823C4.39728 6.80661 4.46075 6.96001 4.56866 7.05099C4.67869 7.13986 4.83103 7.18429 5.02569 7.18429C5.13149 7.18429 5.2267 7.17265 5.31134 7.14938C5.39809 7.12399 5.49013 7.09119 5.58746 7.05099C5.64671 7.02348 5.68691 7.00973 5.70807 7.00973C5.74615 7.00973 5.78741 7.03724 5.83185 7.09225C5.8784 7.14515 5.91754 7.20651 5.94928 7.27633C5.98313 7.34616 6.00006 7.40011 6.00006 7.4382C6.00006 7.52495 5.94081 7.59901 5.82232 7.66037C5.70595 7.72173 5.56736 7.76828 5.40655 7.80001C5.24786 7.83175 5.10821 7.84762 4.98761 7.84762ZM5.29229 6.03537C5.29229 5.86186 5.25844 5.72327 5.19073 5.61959C5.12302 5.5138 5.02146 5.4609 4.88604 5.4609C4.60675 5.4609 4.43748 5.65239 4.37823 6.03537H5.29229ZM7.12512 8.96481C7.00874 8.96481 6.92305 8.94894 6.86804 8.9172C6.81302 8.88758 6.78552 8.84209 6.78552 8.78073V5.84176C6.78552 5.67249 6.78023 5.54025 6.76965 5.44503C6.76119 5.3477 6.74955 5.2546 6.73474 5.16574C6.72416 5.10861 6.71887 5.06841 6.71887 5.04513C6.71887 5.00281 6.75801 4.96896 6.8363 4.94357C6.91459 4.91606 7.00345 4.89596 7.1029 4.88327C7.20446 4.87057 7.28592 4.86422 7.34729 4.86422C7.41499 4.86422 7.46154 4.88961 7.48693 4.9404C7.51444 4.98906 7.53877 5.05994 7.55993 5.15304L7.5758 5.22604C7.64139 5.1012 7.74084 4.99964 7.87414 4.92135C8.00956 4.84306 8.1619 4.80392 8.33117 4.80392C8.53641 4.80392 8.71838 4.86317 8.87707 4.98166C9.03576 5.10014 9.15954 5.27471 9.24841 5.50534C9.33939 5.73385 9.38488 6.00786 9.38488 6.32736C9.38488 6.63416 9.33833 6.90182 9.24523 7.13034C9.15214 7.35885 9.01672 7.53553 8.83898 7.66037C8.66125 7.7852 8.44755 7.84762 8.19787 7.84762C7.98417 7.84762 7.79056 7.78838 7.61706 7.66989V8.78073C7.61706 8.84209 7.58955 8.88758 7.53454 8.9172C7.48164 8.94894 7.39701 8.96481 7.28063 8.96481H7.12512ZM8.01379 7.18429C8.36291 7.18429 8.53747 6.89865 8.53747 6.32736C8.53747 5.76665 8.38619 5.48629 8.08361 5.48629C7.90588 5.48629 7.75036 5.59738 7.61706 5.81955V7.07638C7.74825 7.14832 7.88049 7.18429 8.01379 7.18429ZM10.3639 4.36276C10.2455 4.36276 10.1587 4.34795 10.1037 4.31833C10.0508 4.2887 10.0243 4.24321 10.0243 4.18185V3.72799C10.0243 3.66663 10.0519 3.62114 10.1069 3.59152C10.1619 3.55978 10.2476 3.54391 10.3639 3.54391H10.5195C10.6358 3.54391 10.7215 3.55978 10.7765 3.59152C10.8316 3.62114 10.8591 3.66663 10.8591 3.72799V4.18185C10.8591 4.24321 10.8316 4.2887 10.7765 4.31833C10.7236 4.34795 10.638 4.36276 10.5195 4.36276H10.3639ZM10.3639 7.80954C10.1375 7.80954 10.0243 7.75029 10.0243 7.6318V5.01657C10.0243 4.95732 10.0519 4.91289 10.1069 4.88327C10.1619 4.85364 10.2476 4.83883 10.3639 4.83883H10.5195C10.6358 4.83883 10.7215 4.85364 10.7765 4.88327C10.8316 4.91289 10.8591 4.95732 10.8591 5.01657V7.6318C10.8591 7.75029 10.7459 7.80954 10.5195 7.80954H10.3639ZM11.9429 7.80954C11.7186 7.80954 11.6064 7.75029 11.6064 7.6318V5.84176C11.6064 5.57093 11.5885 5.34559 11.5525 5.16574C11.5419 5.10861 11.5366 5.06841 11.5366 5.04513C11.5366 5.00281 11.5758 4.96896 11.654 4.94357C11.7344 4.91606 11.8244 4.89596 11.9238 4.88327C12.0254 4.87057 12.1068 4.86422 12.1682 4.86422C12.2338 4.86422 12.2793 4.88856 12.3047 4.93722C12.3322 4.98589 12.3565 5.05677 12.3777 5.14987L12.3967 5.23239C12.4856 5.1139 12.6041 5.01339 12.7522 4.93087C12.9024 4.84624 13.0632 4.80392 13.2346 4.80392C13.5181 4.80392 13.7276 4.87798 13.863 5.02609C13.9984 5.1742 14.0662 5.40377 14.0662 5.71481V7.6318C14.0662 7.75029 13.9519 7.80954 13.7234 7.80954H13.5679C13.3436 7.80954 13.2314 7.75029 13.2314 7.6318V5.84176C13.2314 5.7275 13.2039 5.64075 13.1489 5.58151C13.096 5.52226 13.0093 5.49264 12.8887 5.49264C12.7871 5.49264 12.6972 5.5265 12.6189 5.5942C12.5406 5.66191 12.4814 5.73703 12.4412 5.81955V7.6318C12.4412 7.75029 12.3269 7.80954 12.0984 7.80954H11.9429Z" fill="url(#paint0_linear_2_119)"/>
<path d="M1.46631 7.73019L1.2597 8.07273L1.26374 8.0751L1.46631 7.73019ZM1.16479 7.42233L1.51641 7.23162L1.01787 6.31245L0.775672 7.32968L1.16479 7.42233ZM1.14893 7.48898L0.759794 7.39633L0.759169 7.39904L1.14893 7.48898ZM1.10449 7.66354L0.7227 7.54423L0.719245 7.55529L0.716435 7.56653L1.10449 7.66354ZM0.457031 3.59152L0.646753 3.94386L0.65692 3.93799L0.457031 3.59152ZM1.20923 4.97848H0.809229V5.76784L1.44577 5.30104L1.20923 4.97848ZM2.4248 4.99118L2.19488 5.31853L2.19935 5.32159L2.4248 4.99118ZM2.8374 7.14621L2.46531 6.99942L2.4646 7.00123L2.8374 7.14621ZM2.46289 7.66989L2.70221 7.9904L2.70289 7.98989L2.46289 7.66989ZM1.20923 5.56881L1.01926 5.2168L0.809229 5.33015V5.56881H1.20923ZM1.20923 6.82882H0.809229V6.93658L0.863359 7.02976L1.20923 6.82882ZM1.91699 7.44762C1.81508 7.44762 1.7358 7.42458 1.66888 7.38528L1.26374 8.0751C1.46342 8.19238 1.6846 8.24762 1.91699 8.24762V7.44762ZM1.67291 7.38767C1.59456 7.34042 1.54694 7.28793 1.51641 7.23162L0.813182 7.61303C0.918062 7.80641 1.07146 7.95916 1.25971 8.07271L1.67291 7.38767ZM0.775672 7.32968L0.759803 7.39633L1.53805 7.58163L1.55392 7.51498L0.775672 7.32968ZM0.759169 7.39904C0.740154 7.48144 0.72828 7.52637 0.7227 7.54423L1.48628 7.78285C1.50186 7.733 1.51961 7.66156 1.53868 7.57892L0.759169 7.39904ZM0.716435 7.56653C0.720877 7.54876 0.732779 7.51553 0.762178 7.48044C0.792854 7.44383 0.830588 7.41959 0.865654 7.40644L1.14655 8.1555C1.3375 8.0839 1.45052 7.92867 1.49255 7.76055L0.716435 7.56653ZM0.865654 7.40644C0.878254 7.40171 0.879264 7.4033 0.86138 7.40557C0.844734 7.40768 0.818548 7.40954 0.780762 7.40954V8.20954C0.895054 8.20954 1.0278 8.20004 1.14655 8.1555L0.865654 7.40644ZM0.780762 7.40954H0.714111V8.20954H0.780762V7.40954ZM0.714111 7.40954C0.673849 7.40954 0.648263 7.40682 0.63428 7.40438C0.619321 7.40177 0.626304 7.40098 0.644891 7.4107C0.66541 7.42144 0.702464 7.44655 0.733119 7.49468C0.764814 7.54444 0.774512 7.59507 0.774512 7.6318H-0.0254883C-0.0254883 7.72778 -0.00164014 7.83024 0.0583548 7.92444C0.117309 8.017 0.196813 8.07914 0.273933 8.1195C0.416387 8.19406 0.579046 8.20954 0.714111 8.20954V7.40954ZM0.774512 7.6318V3.72799H-0.0254883V7.6318H0.774512ZM0.774512 3.72799C0.774512 3.75883 0.766946 3.80601 0.737434 3.85482C0.708157 3.90324 0.670973 3.93062 0.646671 3.94371L0.267391 3.23933C0.188076 3.28204 0.109633 3.34697 0.0528488 3.44089C-0.00416934 3.53519 -0.0254883 3.6358 -0.0254883 3.72799H0.774512ZM0.65692 3.93799C0.644458 3.94518 0.635488 3.94849 0.632243 3.94959C0.628963 3.9507 0.629621 3.9502 0.635397 3.94913C0.647777 3.94683 0.67279 3.94391 0.714111 3.94391V3.14391C0.577233 3.14391 0.40495 3.15977 0.257142 3.24504L0.65692 3.93799ZM0.714111 3.94391H0.869629V3.14391H0.714111V3.94391ZM0.869629 3.94391C0.909293 3.94391 0.934045 3.94669 0.947081 3.94904C0.961005 3.95156 0.953019 3.95206 0.933709 3.94159C0.91223 3.92995 0.876309 3.9042 0.847273 3.85699C0.817616 3.80876 0.809229 3.76101 0.809229 3.72799H1.60923C1.60923 3.63361 1.58669 3.53217 1.52873 3.43793C1.4714 3.34469 1.39303 3.2806 1.31495 3.23827C1.1708 3.16013 1.00588 3.14391 0.869629 3.14391V3.94391ZM0.809229 3.72799V4.97848H1.60923V3.72799H0.809229ZM1.44577 5.30104C1.5265 5.24184 1.6321 5.20392 1.78369 5.20392V4.40392C1.48672 4.40392 1.20934 4.48237 0.972683 4.65592L1.44577 5.30104ZM1.78369 5.20392C1.9638 5.20392 2.09421 5.24778 2.1949 5.3185L2.65471 4.66385C2.39993 4.4849 2.10293 4.40392 1.78369 4.40392V5.20392ZM2.19935 5.32159C2.3059 5.39429 2.39626 5.5032 2.46379 5.66895L3.20467 5.36711C3.086 5.07584 2.90341 4.8335 2.65026 4.66077L2.19935 5.32159ZM2.46379 5.66895C2.53325 5.83943 2.57388 6.05378 2.57388 6.32101H3.37388C3.37388 5.97463 3.32141 5.65366 3.20467 5.36711L2.46379 5.66895ZM2.57388 6.32101C2.57388 6.6041 2.53338 6.82687 2.46531 6.99942L3.2095 7.29299C3.32339 7.00428 3.37388 6.67692 3.37388 6.32101H2.57388ZM2.4646 7.00123C2.39683 7.17549 2.31204 7.28303 2.22289 7.34989L2.70289 7.98989C2.93536 7.81554 3.10024 7.57396 3.2102 7.29118L2.4646 7.00123ZM2.22357 7.34938C2.13664 7.41428 2.03934 7.44762 1.91699 7.44762V8.24762C2.20513 8.24762 2.47176 8.16247 2.70221 7.9904L2.22357 7.34938ZM1.67261 7.56208C1.81228 7.56208 1.95331 7.52893 2.08138 7.44982C2.20837 7.37138 2.3004 7.26152 2.36502 7.14177C2.48779 6.91425 2.52646 6.62426 2.52646 6.32101H1.72646C1.72646 6.57847 1.6895 6.70901 1.66098 6.76185C1.64996 6.78228 1.64744 6.77755 1.66096 6.7692C1.67556 6.76018 1.68422 6.76208 1.67261 6.76208V7.56208ZM2.52646 6.32101C2.52646 6.00674 2.48096 5.70403 2.3372 5.46791C2.17385 5.19963 1.9101 5.0609 1.60278 5.0609V5.8609C1.63436 5.8609 1.64251 5.867 1.63981 5.86552C1.63638 5.86364 1.64209 5.86457 1.65389 5.88395C1.68469 5.93453 1.72646 6.06187 1.72646 6.32101H2.52646ZM1.60278 5.0609C1.39674 5.0609 1.20077 5.11885 1.01926 5.2168L1.3992 5.92082C1.48429 5.8749 1.55069 5.8609 1.60278 5.8609V5.0609ZM0.809229 5.56881V6.82882H1.60923V5.56881H0.809229ZM0.863359 7.02976C1.03003 7.31665 1.29352 7.56208 1.67261 7.56208V6.76208C1.6715 6.76208 1.66879 6.76364 1.65542 6.75402C1.63698 6.74076 1.6007 6.70639 1.5551 6.62789L0.863359 7.02976ZM3.87994 7.45089L3.58449 7.72055L3.58557 7.72172L3.87994 7.45089ZM3.87994 5.17526L3.59467 4.89486L3.87994 5.17526ZM5.58111 4.99752L5.34789 5.32251L5.3497 5.32378L5.58111 4.99752ZM5.97784 5.51803L5.60375 5.65968L5.60497 5.66284L5.97784 5.51803ZM6.04767 6.38449L5.72294 6.15068L5.7169 6.15956L6.04767 6.38449ZM4.37823 6.59079V6.19079H3.94138L3.97978 6.62594L4.37823 6.59079ZM4.56866 7.05099L4.31077 7.35687L4.31733 7.36217L4.56866 7.05099ZM5.31134 7.14938L5.41741 7.53511L5.4237 7.53327L5.31134 7.14938ZM5.58746 7.05099L5.74017 7.4207L5.74811 7.41741L5.75591 7.41379L5.58746 7.05099ZM5.83185 7.09225L5.52067 7.34359L5.52598 7.35016L5.53156 7.3565L5.83185 7.09225ZM5.94928 7.27633L5.58502 7.44191L5.58935 7.45084L5.94928 7.27633ZM5.82232 7.66037L5.63838 7.30516L5.63576 7.30654L5.82232 7.66037ZM5.40655 7.80001L5.3291 7.40758L5.32811 7.40778L5.40655 7.80001ZM5.29229 6.03537V6.43537H5.69229V6.03537H5.29229ZM5.19073 5.61959L4.85381 5.83523L4.85582 5.83831L5.19073 5.61959ZM4.37823 6.03537L3.98293 5.97421L3.9116 6.43537H4.37823V6.03537ZM4.98761 7.44762C4.56065 7.44762 4.31665 7.33479 4.17431 7.18007L3.58557 7.72172C3.92988 8.09597 4.42433 8.24762 4.98761 8.24762V7.44762ZM4.17539 7.18124C4.01788 7.00867 3.91495 6.74675 3.91495 6.34323H3.11495C3.11495 6.88339 3.25535 7.35991 3.5845 7.72055L4.17539 7.18124ZM3.91495 6.34323C3.91495 5.86268 4.0263 5.59698 4.16521 5.45565L3.59467 4.89486C3.24693 5.24866 3.11495 5.7616 3.11495 6.34323H3.91495ZM4.16521 5.45565C4.31665 5.30159 4.53951 5.20392 4.88604 5.20392V4.40392C4.37777 4.40392 3.92989 4.55381 3.59467 4.89486L4.16521 5.45565ZM4.88604 5.20392C5.10944 5.20392 5.25293 5.25435 5.3479 5.3225L5.81433 4.67255C5.5496 4.48256 5.22971 4.40392 4.88604 4.40392V5.20392ZM5.3497 5.32378C5.46383 5.40474 5.54807 5.51258 5.60376 5.65967L6.35192 5.37639C6.24258 5.08761 6.06233 4.84845 5.81253 4.67126L5.3497 5.32378ZM5.60497 5.66284C5.66881 5.82723 5.70479 6.02342 5.70479 6.25753H6.50479C6.50479 5.94152 6.45614 5.64471 6.35071 5.37323L5.60497 5.66284ZM5.70479 6.25753C5.70479 6.22585 5.70948 6.2006 5.71383 6.1837C5.71818 6.16676 5.72304 6.15494 5.72574 6.14893C5.73066 6.13801 5.73218 6.13809 5.72305 6.15077L6.37228 6.61821C6.41693 6.55619 6.50479 6.42448 6.50479 6.25753H5.70479ZM5.7169 6.15956C5.69833 6.18687 5.67768 6.21054 5.65482 6.23133L6.19296 6.82329C6.26319 6.75944 6.32507 6.6879 6.37844 6.60941L5.7169 6.15956ZM5.65482 6.23133C5.64275 6.2423 5.64478 6.23862 5.65919 6.23014C5.66701 6.22554 5.68314 6.21676 5.70661 6.20867C5.72979 6.20067 5.76756 6.19079 5.81598 6.19079V6.99079C5.93211 6.99079 6.0207 6.94564 6.06481 6.91969C6.11519 6.89005 6.15847 6.85463 6.19296 6.82329L5.65482 6.23133ZM5.81598 6.19079H4.37823V6.99079H5.81598V6.19079ZM3.97978 6.62594C4.00325 6.89194 4.08792 7.16886 4.31082 7.3568L4.8265 6.74518C4.83358 6.75115 4.7913 6.72128 4.77668 6.55563L3.97978 6.62594ZM4.31733 7.36217C4.52116 7.5268 4.77367 7.58429 5.02569 7.58429V6.78429C4.88839 6.78429 4.83622 6.75292 4.82 6.73981L4.31733 7.36217ZM5.02569 7.58429C5.16025 7.58429 5.292 7.56955 5.4174 7.53506L5.20528 6.7637C5.16141 6.77576 5.10273 6.78429 5.02569 6.78429V7.58429ZM5.4237 7.53327C5.52615 7.50329 5.63174 7.46548 5.74017 7.4207L5.43476 6.68129C5.34852 6.71691 5.27003 6.74469 5.19898 6.76548L5.4237 7.53327ZM5.75591 7.41379C5.76672 7.40877 5.77521 7.40506 5.78161 7.4024C5.78477 7.40109 5.78719 7.40014 5.78893 7.39947C5.79069 7.3988 5.79153 7.39851 5.79152 7.39851C5.7915 7.39852 5.7912 7.39862 5.79064 7.3988C5.79008 7.39898 5.7892 7.39925 5.78801 7.3996C5.78575 7.40026 5.78169 7.40137 5.77611 7.40263C5.77064 7.40385 5.76237 7.40551 5.75184 7.4069C5.74153 7.40827 5.72654 7.40973 5.70807 7.40973V6.60973C5.62839 6.60973 5.56111 6.63182 5.53257 6.64158C5.49419 6.65471 5.45538 6.6713 5.41902 6.68819L5.75591 7.41379ZM5.70807 7.40973C5.62747 7.40973 5.57116 7.38016 5.5457 7.36318C5.52161 7.34713 5.51402 7.33536 5.52067 7.34359L6.14302 6.84092C6.08318 6.76683 5.93834 6.60973 5.70807 6.60973V7.40973ZM5.53156 7.3565C5.54988 7.37732 5.56827 7.40475 5.58513 7.44185L6.31342 7.11081C6.26681 7.00827 6.20691 6.91298 6.13213 6.828L5.53156 7.3565ZM5.58935 7.45084C5.59476 7.46199 5.59867 7.47084 5.60143 7.47755C5.60421 7.48434 5.60543 7.48802 5.6057 7.4889C5.60603 7.48993 5.60484 7.48641 5.60348 7.47901C5.60216 7.47183 5.60006 7.4577 5.60006 7.4382H6.40006C6.40006 7.30417 6.34758 7.18097 6.3092 7.10182L5.58935 7.45084ZM5.60006 7.4382C5.60006 7.4133 5.6045 7.38733 5.61361 7.3626C5.62257 7.33829 5.63408 7.32042 5.64328 7.30893C5.6598 7.28827 5.66676 7.29047 5.63838 7.30517L6.00627 8.01556C6.17909 7.92606 6.40006 7.74583 6.40006 7.4382H5.60006ZM5.63576 7.30654C5.56091 7.34601 5.46078 7.38159 5.3291 7.40758L5.48401 8.19244C5.67394 8.15496 5.85099 8.09745 6.00889 8.01419L5.63576 7.30654ZM5.32811 7.40778C5.18709 7.43598 5.07469 7.44762 4.98761 7.44762V8.24762C5.14173 8.24762 5.30863 8.22752 5.485 8.19225L5.32811 7.40778ZM5.69229 6.03537C5.69229 5.81412 5.64967 5.5908 5.52564 5.40088L4.85582 5.83831C4.86721 5.85575 4.89229 5.9096 4.89229 6.03537H5.69229ZM5.52764 5.40397C5.3798 5.17297 5.14512 5.0609 4.88604 5.0609V5.8609C4.90113 5.8609 4.89483 5.86359 4.87901 5.85534C4.87164 5.85151 4.86511 5.84675 4.86003 5.84198C4.85509 5.83736 4.8533 5.8344 4.85382 5.83522L5.52764 5.40397ZM4.88604 5.0609C4.64371 5.0609 4.41806 5.1494 4.24993 5.3396C4.09474 5.51516 4.01864 5.74342 3.98293 5.97421L4.77353 6.09652C4.79707 5.94434 4.83523 5.88537 4.84931 5.86944C4.85228 5.86609 4.85391 5.8649 4.85406 5.86479C4.85416 5.86472 4.85405 5.86477 4.85425 5.86469C4.85451 5.86458 4.85653 5.86372 4.86118 5.86284C4.86594 5.86193 4.87399 5.8609 4.88604 5.8609V5.0609ZM4.37823 6.43537H5.29229V5.63537H4.37823V6.43537ZM6.86804 8.9172L7.06801 8.57058L7.05768 8.56501L6.86804 8.9172ZM6.76965 5.44503L6.37104 5.4797L6.3721 5.48921L6.76965 5.44503ZM6.73474 5.16574L7.12936 5.09997L7.12805 5.0929L6.73474 5.16574ZM6.8363 4.94357L6.95974 5.32417L6.96889 5.32095L6.8363 4.94357ZM7.1029 4.88327L7.05329 4.48635L7.05225 4.48649L7.1029 4.88327ZM7.48693 4.9404L7.12916 5.11928L7.13371 5.12837L7.13871 5.13722L7.48693 4.9404ZM7.55993 5.15304L7.95082 5.06807L7.94998 5.06439L7.55993 5.15304ZM7.5758 5.22604L7.18493 5.31101L7.41849 6.38541L7.9299 5.41209L7.5758 5.22604ZM7.87414 4.92135L7.67393 4.57505L7.67157 4.57644L7.87414 4.92135ZM9.24841 5.50534L8.87514 5.64917L8.87678 5.6533L9.24841 5.50534ZM7.61706 7.66989L7.84265 7.33957L7.21706 6.91234V7.66989H7.61706ZM7.53454 8.9172L7.3449 8.56501L7.33672 8.56942L7.32874 8.5742L7.53454 8.9172ZM7.61706 5.81955L7.27406 5.61375L7.21706 5.70875V5.81955H7.61706ZM7.61706 7.07638H7.21706V7.31322L7.42473 7.42711L7.61706 7.07638ZM7.12512 8.56481C7.0838 8.56481 7.05878 8.56189 7.0464 8.55959C7.04063 8.55853 7.03997 8.55802 7.04325 8.55913C7.04649 8.56023 7.05546 8.56354 7.06793 8.57073L6.66815 9.26368C6.81596 9.34895 6.98824 9.36481 7.12512 9.36481V8.56481ZM7.05768 8.56501C7.08198 8.5781 7.11916 8.60548 7.14844 8.6539C7.17795 8.70271 7.18552 8.74989 7.18552 8.78073H6.38552C6.38552 8.87292 6.40684 8.97354 6.46385 9.06783C6.52064 9.16175 6.59908 9.22668 6.6784 9.26939L7.05768 8.56501ZM7.18552 8.78073V5.84176H6.38552V8.78073H7.18552ZM7.18552 5.84176C7.18552 5.66707 7.18019 5.51776 7.1672 5.40086L6.3721 5.48921C6.38026 5.56273 6.38552 5.67791 6.38552 5.84176H7.18552ZM7.16814 5.41038C7.15885 5.3035 7.14596 5.19998 7.12929 5.09998L6.34018 5.2315C6.35313 5.30923 6.36352 5.39191 6.37115 5.47969L7.16814 5.41038ZM7.12805 5.0929C7.12354 5.06853 7.12086 5.0515 7.11942 5.04056C7.11908 5.03798 7.11884 5.03601 7.11869 5.03461C7.11853 5.03318 7.11848 5.03252 7.11848 5.03254C7.11848 5.03257 7.1185 5.03282 7.11853 5.03328C7.11856 5.03374 7.11861 5.03447 7.11865 5.03544C7.11874 5.03729 7.11887 5.04061 7.11887 5.04513H6.31887C6.31887 5.10937 6.33104 5.18252 6.34142 5.23857L7.12805 5.0929ZM7.11887 5.04513C7.11887 5.09893 7.10579 5.15147 7.08198 5.19781C7.05913 5.24228 7.03097 5.27231 7.00989 5.29055C6.97224 5.32311 6.94482 5.32888 6.9597 5.32406L6.7129 4.56308C6.64949 4.58364 6.56336 4.61904 6.48656 4.68546C6.40048 4.75991 6.31887 4.8823 6.31887 5.04513H7.11887ZM6.96889 5.32095C7.01581 5.30447 7.07647 5.28989 7.15355 5.28005L7.05225 4.48649C6.93044 4.50204 6.81336 4.52766 6.7037 4.56619L6.96889 5.32095ZM7.15251 5.28018C7.24692 5.26838 7.3098 5.26422 7.34729 5.26422V4.46422C7.26205 4.46422 7.16201 4.47277 7.05329 4.48636L7.15251 5.28018ZM7.34729 5.26422C7.33231 5.26422 7.29099 5.26145 7.24144 5.23442C7.18785 5.20519 7.15027 5.16149 7.12916 5.11928L7.8447 4.76151C7.79821 4.66852 7.72466 4.58673 7.62452 4.53211C7.52842 4.47969 7.42997 4.46422 7.34729 4.46422V5.26422ZM7.13871 5.13722C7.13712 5.13441 7.14078 5.14039 7.14748 5.15993C7.15396 5.17878 7.16166 5.20551 7.16988 5.24169L7.94998 5.06439C7.92538 4.95614 7.89061 4.84169 7.83516 4.74357L7.13871 5.13722ZM7.16906 5.23801L7.18493 5.31101L7.96667 5.14107L7.9508 5.06807L7.16906 5.23801ZM7.9299 5.41209C7.95748 5.35959 8.00134 5.31053 8.07671 5.26627L7.67157 4.57644C7.48034 4.68875 7.3253 4.84282 7.2217 5.03999L7.9299 5.41209ZM8.07434 5.26765C8.14394 5.22741 8.22623 5.20392 8.33117 5.20392V4.40392C8.09757 4.40392 7.87517 4.45872 7.67394 4.57506L8.07434 5.26765ZM8.33117 5.20392C8.45352 5.20392 8.55082 5.23726 8.63775 5.30217L9.11639 4.66114C8.88594 4.48907 8.61931 4.40392 8.33117 4.40392V5.20392ZM8.63775 5.30217C8.72268 5.36558 8.8067 5.47149 8.87516 5.64916L9.62166 5.36152C9.51238 5.07792 9.34884 4.83471 9.11639 4.66114L8.63775 5.30217ZM8.87678 5.6533C8.94434 5.82298 8.98488 6.04411 8.98488 6.32736H9.78488C9.78488 5.9716 9.73445 5.64473 9.62004 5.35737L8.87678 5.6533ZM8.98488 6.32736C8.98488 6.59459 8.94425 6.80894 8.8748 6.97942L9.61567 7.28126C9.73241 6.99471 9.78488 6.67373 9.78488 6.32736H8.98488ZM8.8748 6.97942C8.8066 7.14681 8.71577 7.2581 8.60908 7.33304L9.06889 7.98769C9.31766 7.81296 9.49767 7.57089 9.61567 7.28126L8.8748 6.97942ZM8.60908 7.33304C8.50839 7.40376 8.37798 7.44762 8.19787 7.44762V8.24762C8.51711 8.24762 8.81411 8.16665 9.06889 7.98769L8.60908 7.33304ZM8.19787 7.44762C8.06319 7.44762 7.94847 7.41184 7.84265 7.33957L7.39148 8.00021C7.63265 8.16492 7.90515 8.24762 8.19787 8.24762V7.44762ZM7.21706 7.66989V8.78073H8.01706V7.66989H7.21706ZM7.21706 8.78073C7.21706 8.74989 7.22463 8.70271 7.25414 8.6539C7.28342 8.60548 7.3206 8.5781 7.3449 8.56501L7.72418 9.26939C7.8035 9.22668 7.88194 9.16175 7.93872 9.06783C7.99574 8.97354 8.01706 8.87292 8.01706 8.78073H7.21706ZM7.32874 8.5742C7.343 8.56565 7.35366 8.56156 7.35807 8.56004C7.36254 8.55849 7.36285 8.55879 7.35768 8.55976C7.34643 8.56187 7.32209 8.56481 7.28063 8.56481V9.36481C7.41541 9.36481 7.59122 9.34967 7.74034 9.2602L7.32874 8.5742ZM7.28063 8.56481H7.12512V9.36481H7.28063V8.56481ZM8.01379 7.58429C8.32042 7.58429 8.58421 7.44644 8.74786 7.17864C8.89193 6.9429 8.93747 6.64073 8.93747 6.32736H8.13747C8.13747 6.58528 8.09573 6.71158 8.06524 6.76148C8.05359 6.78053 8.048 6.78141 8.05136 6.77958C8.05395 6.77816 8.0456 6.78429 8.01379 6.78429V7.58429ZM8.93747 6.32736C8.93747 6.02411 8.8988 5.73412 8.77602 5.5066C8.7114 5.38685 8.61937 5.27699 8.49239 5.19855C8.36432 5.11944 8.22329 5.08629 8.08361 5.08629V5.88629C8.09522 5.88629 8.08657 5.88819 8.07196 5.87917C8.05844 5.87082 8.06097 5.86609 8.07199 5.88652C8.1005 5.93936 8.13747 6.0699 8.13747 6.32736H8.93747ZM8.08361 5.08629C7.70707 5.08629 7.44352 5.33133 7.27406 5.61375L7.96006 6.02534C8.00794 5.94555 8.04593 5.90956 8.06617 5.8951C8.07545 5.88847 8.08032 5.88681 8.08097 5.8866C8.08135 5.88647 8.08165 5.88629 8.08361 5.88629V5.08629ZM7.21706 5.81955V7.07638H8.01706V5.81955H7.21706ZM7.42473 7.42711C7.60753 7.52735 7.80536 7.58429 8.01379 7.58429V6.78429C7.95562 6.78429 7.88896 6.76929 7.80939 6.72566L7.42473 7.42711ZM10.1037 4.31833L9.90822 4.66738L9.91405 4.67051L10.1037 4.31833ZM10.1069 3.59152L10.2966 3.94386L10.3068 3.93799L10.1069 3.59152ZM10.7765 3.59152L10.5766 3.93814L10.5869 3.94371L10.7765 3.59152ZM10.7765 4.31833L10.5869 3.96609L10.5811 3.96932L10.7765 4.31833ZM10.1069 4.88327L9.91722 4.53108L10.1069 4.88327ZM10.3639 3.96276C10.3201 3.96276 10.2924 3.95992 10.2773 3.95736C10.2702 3.95614 10.2683 3.95538 10.2705 3.95607C10.2726 3.95674 10.281 3.95951 10.2933 3.96614L9.91405 4.67051C10.0592 4.74867 10.2287 4.76276 10.3639 4.76276V3.96276ZM10.2991 3.96932C10.3255 3.98408 10.3621 4.0129 10.39 4.06094C10.4178 4.10874 10.4243 4.15376 10.4243 4.18185H9.62435C9.62435 4.2713 9.64414 4.36975 9.69838 4.46304C9.75276 4.55658 9.82899 4.62294 9.90825 4.66733L10.2991 3.96932ZM10.4243 4.18185V3.72799H9.62435V4.18185H10.4243ZM10.4243 3.72799C10.4243 3.75883 10.4168 3.80601 10.3873 3.85482C10.358 3.90324 10.3208 3.93062 10.2965 3.94371L9.91722 3.23933C9.83791 3.28204 9.75947 3.34697 9.70268 3.44089C9.64566 3.53519 9.62435 3.6358 9.62435 3.72799H10.4243ZM10.3068 3.93799C10.2943 3.94518 10.2853 3.94849 10.2821 3.94959C10.2788 3.9507 10.2795 3.9502 10.2852 3.94913C10.2976 3.94683 10.3226 3.94391 10.3639 3.94391V3.14391C10.2271 3.14391 10.0548 3.15977 9.90698 3.24504L10.3068 3.93799ZM10.3639 3.94391H10.5195V3.14391H10.3639V3.94391ZM10.5195 3.94391C10.5608 3.94391 10.5858 3.94683 10.5982 3.94913C10.604 3.9502 10.6046 3.9507 10.6013 3.94959C10.5981 3.94849 10.5891 3.94518 10.5767 3.93799L10.9764 3.24504C10.8286 3.15977 10.6563 3.14391 10.5195 3.14391V3.94391ZM10.5869 3.94371C10.5626 3.93062 10.5254 3.90324 10.4961 3.85482C10.4666 3.80601 10.4591 3.75883 10.4591 3.72799H11.2591C11.2591 3.6358 11.2377 3.53519 11.1807 3.44089C11.1239 3.34697 11.0455 3.28204 10.9662 3.23933L10.5869 3.94371ZM10.4591 3.72799V4.18185H11.2591V3.72799H10.4591ZM10.4591 4.18185C10.4591 4.15102 10.4666 4.10383 10.4961 4.05502C10.5254 4.0066 10.5626 3.97922 10.5869 3.96614L10.9662 4.67051C11.0455 4.62781 11.1239 4.56287 11.1807 4.46896C11.2377 4.37466 11.2591 4.27405 11.2591 4.18185H10.4591ZM10.5811 3.96932C10.5953 3.96139 10.6054 3.9579 10.6086 3.95686C10.612 3.95579 10.611 3.95636 10.6045 3.95749C10.5905 3.9599 10.5635 3.96276 10.5195 3.96276V4.76276C10.6526 4.76276 10.8255 4.74936 10.972 4.66733L10.5811 3.96932ZM10.5195 3.96276H10.3639V4.76276H10.5195V3.96276ZM10.3639 7.40954C10.3237 7.40954 10.2981 7.40682 10.2841 7.40438C10.2692 7.40177 10.2761 7.40098 10.2947 7.4107C10.3152 7.42144 10.3523 7.44655 10.383 7.49468C10.4146 7.54444 10.4243 7.59507 10.4243 7.6318H9.62435C9.62435 7.72778 9.64819 7.83024 9.70819 7.92444C9.76714 8.017 9.84665 8.07914 9.92377 8.1195C10.0662 8.19406 10.2289 8.20954 10.3639 8.20954V7.40954ZM10.4243 7.6318V5.01657H9.62435V7.6318H10.4243ZM10.4243 5.01657C10.4243 5.05114 10.4155 5.10018 10.3851 5.14935C10.3553 5.19739 10.3186 5.22356 10.2965 5.23545L9.91722 4.53108C9.84011 4.5726 9.76212 4.63579 9.70487 4.72827C9.64693 4.82187 9.62435 4.92275 9.62435 5.01657H10.4243ZM10.2965 5.23545C10.2846 5.24185 10.2765 5.24457 10.2743 5.24526C10.2721 5.24597 10.2738 5.24526 10.2805 5.2441C10.2948 5.24163 10.3215 5.23883 10.3639 5.23883V4.43883C10.2293 4.43883 10.0617 4.45329 9.91722 4.53108L10.2965 5.23545ZM10.3639 5.23883H10.5195V4.43883H10.3639V5.23883ZM10.5195 5.23883C10.5619 5.23883 10.5886 5.24163 10.6029 5.2441C10.6096 5.24526 10.6113 5.24597 10.6091 5.24526C10.6069 5.24457 10.5988 5.24185 10.5869 5.23545L10.9662 4.53108C10.8217 4.45329 10.6541 4.43883 10.5195 4.43883V5.23883ZM10.5869 5.23545C10.5648 5.22356 10.5281 5.19739 10.4983 5.14935C10.4679 5.10018 10.4591 5.05114 10.4591 5.01657H11.2591C11.2591 4.92275 11.2365 4.82187 11.1785 4.72827C11.1213 4.63579 11.0433 4.5726 10.9662 4.53108L10.5869 5.23545ZM10.4591 5.01657V7.6318H11.2591V5.01657H10.4591ZM10.4591 7.6318C10.4591 7.59507 10.4688 7.54444 10.5005 7.49468C10.5311 7.44655 10.5682 7.42144 10.5887 7.4107C10.6073 7.40098 10.6143 7.40177 10.5993 7.40438C10.5853 7.40682 10.5597 7.40954 10.5195 7.40954V8.20954C10.6545 8.20954 10.8172 8.19406 10.9596 8.1195C11.0368 8.07914 11.1163 8.017 11.1752 7.92444C11.2352 7.83024 11.2591 7.72778 11.2591 7.6318H10.4591ZM10.5195 7.40954H10.3639V8.20954H10.5195V7.40954ZM11.5525 5.16574L11.1591 5.23858L11.1602 5.24418L11.5525 5.16574ZM11.654 4.94357L11.7775 5.32411L11.7835 5.32203L11.654 4.94357ZM11.9238 4.88327L11.8742 4.48635L11.8732 4.48649L11.9238 4.88327ZM12.3047 4.93722L11.9498 5.12235L11.9565 5.13404L12.3047 4.93722ZM12.3777 5.14987L11.9876 5.23852L11.9879 5.23981L12.3777 5.14987ZM12.3967 5.23239L12.007 5.32233L12.2004 6.16075L12.7167 5.47239L12.3967 5.23239ZM12.7522 4.93087L12.9469 5.28031L12.9485 5.27937L12.7522 4.93087ZM13.1489 5.58151L12.8505 5.84797L12.8558 5.85369L13.1489 5.58151ZM12.4412 5.81955L12.0816 5.64436L12.0412 5.72729V5.81955H12.4412ZM11.9429 7.40954C11.9033 7.40954 11.8784 7.40684 11.865 7.40449C11.8508 7.40197 11.8583 7.40136 11.8774 7.41143C11.8984 7.42255 11.9354 7.448 11.9658 7.49611C11.997 7.54569 12.0064 7.59579 12.0064 7.6318H11.2064C11.2064 7.72706 11.2299 7.829 11.2892 7.92301C11.3476 8.01555 11.4266 8.07804 11.5037 8.11878C11.6461 8.194 11.8085 8.20954 11.9429 8.20954V7.40954ZM12.0064 7.6318V5.84176H11.2064V7.6318H12.0064ZM12.0064 5.84176C12.0064 5.55578 11.9877 5.30202 11.9447 5.08729L11.1602 5.24418C11.1892 5.38915 11.2064 5.58608 11.2064 5.84176H12.0064ZM11.9458 5.0929C11.9413 5.06853 11.9386 5.0515 11.9372 5.04056C11.9368 5.03798 11.9366 5.03601 11.9364 5.03461C11.9363 5.03318 11.9362 5.03252 11.9362 5.03254C11.9362 5.03257 11.9362 5.03282 11.9363 5.03328C11.9363 5.03374 11.9364 5.03447 11.9364 5.03544C11.9365 5.03729 11.9366 5.04061 11.9366 5.04513H11.1366C11.1366 5.10937 11.1488 5.18252 11.1592 5.23857L11.9458 5.0929ZM11.9366 5.04513C11.9366 5.09893 11.9235 5.15147 11.8997 5.19781C11.8769 5.24228 11.8487 5.27231 11.8276 5.29055C11.79 5.32311 11.7626 5.32888 11.7774 5.32406L11.5306 4.56308C11.4672 4.58364 11.3811 4.61904 11.3043 4.68546C11.2182 4.75991 11.1366 4.8823 11.1366 5.04513H11.9366ZM11.7835 5.32203C11.8343 5.30468 11.8972 5.28991 11.9745 5.28005L11.8732 4.48649C11.7515 4.50201 11.6346 4.52745 11.5246 4.5651L11.7835 5.32203ZM11.9734 5.28018C12.0678 5.26838 12.1307 5.26422 12.1682 5.26422V4.46422C12.083 4.46422 11.9829 4.47277 11.8742 4.48636L11.9734 5.28018ZM12.1682 5.26422C12.1526 5.26422 12.1118 5.26136 12.0629 5.23519C12.01 5.20694 11.972 5.16442 11.95 5.12225L12.6593 4.7522C12.5502 4.54299 12.3478 4.46422 12.1682 4.46422V5.26422ZM11.9565 5.13404C11.9549 5.13123 11.9585 5.13722 11.9652 5.15676C11.9717 5.17561 11.9794 5.20234 11.9876 5.23852L12.7677 5.06122C12.7431 4.95297 12.7084 4.83851 12.6529 4.7404L11.9565 5.13404ZM11.9879 5.23981L12.007 5.32233L12.7865 5.14244L12.7674 5.05992L11.9879 5.23981ZM12.7167 5.47239C12.7674 5.4048 12.8407 5.33947 12.9469 5.2803L12.5575 4.58145C12.3675 4.68732 12.2038 4.823 12.0767 4.99239L12.7167 5.47239ZM12.9485 5.27937C13.0392 5.22828 13.1324 5.20392 13.2346 5.20392V4.40392C12.994 4.40392 12.7656 4.46419 12.5559 4.58237L12.9485 5.27937ZM13.2346 5.20392C13.4534 5.20392 13.5352 5.26034 13.5678 5.296L14.1582 4.75618C13.92 4.49561 13.5829 4.40392 13.2346 4.40392V5.20392ZM13.5678 5.296C13.6071 5.33895 13.6662 5.4508 13.6662 5.71481H14.4662C14.4662 5.35675 14.3898 5.00946 14.1582 4.75618L13.5678 5.296ZM13.6662 5.71481V7.6318H14.4662V5.71481H13.6662ZM13.6662 7.6318C13.6662 7.59435 13.6762 7.5432 13.7083 7.49326C13.7392 7.44512 13.7763 7.42036 13.7963 7.41C13.8145 7.4006 13.8208 7.40157 13.8052 7.40427C13.7906 7.4068 13.7643 7.40954 13.7234 7.40954V8.20954C13.8592 8.20954 14.0221 8.19411 14.1646 8.1202C14.2417 8.08022 14.3217 8.01844 14.3812 7.92586C14.4419 7.83148 14.4662 7.7285 14.4662 7.6318H13.6662ZM13.7234 7.40954H13.5679V8.20954H13.7234V7.40954ZM13.5679 7.40954C13.5283 7.40954 13.5034 7.40684 13.49 7.40449C13.4758 7.40197 13.4833 7.40136 13.5024 7.41143C13.5234 7.42255 13.5604 7.448 13.5908 7.49611C13.622 7.54569 13.6314 7.59579 13.6314 7.6318H12.8314C12.8314 7.72706 12.8549 7.829 12.9142 7.92301C12.9726 8.01555 13.0516 8.07804 13.1287 8.11878C13.2711 8.194 13.4335 8.20954 13.5679 8.20954V7.40954ZM13.6314 7.6318V5.84176H12.8314V7.6318H13.6314ZM13.6314 5.84176C13.6314 5.66827 13.5897 5.46832 13.442 5.30933L12.8558 5.85369C12.8475 5.84478 12.8413 5.83585 12.8368 5.82792C12.8324 5.82013 12.8303 5.81438 12.8295 5.8119C12.8282 5.80767 12.8314 5.81566 12.8314 5.84176H13.6314ZM13.4473 5.3151C13.2864 5.13496 13.0641 5.09264 12.8887 5.09264V5.89264C12.9181 5.89264 12.9239 5.89648 12.9149 5.8934C12.9098 5.89164 12.9001 5.88773 12.8881 5.88009C12.8759 5.8723 12.8628 5.86165 12.8505 5.84791L13.4473 5.3151ZM12.8887 5.09264C12.689 5.09264 12.5067 5.16241 12.3572 5.29166L12.8805 5.89675C12.8839 5.89386 12.8859 5.89257 12.8865 5.8922C12.8871 5.89185 12.8869 5.89205 12.886 5.89238C12.8856 5.89253 12.8852 5.89266 12.8848 5.89275C12.8845 5.89285 12.8843 5.89288 12.8843 5.89288C12.8843 5.89288 12.8846 5.89282 12.8853 5.89276C12.886 5.89271 12.8871 5.89264 12.8887 5.89264V5.09264ZM12.3572 5.29166C12.2432 5.39025 12.1483 5.50736 12.0816 5.64436L12.8007 5.99473C12.8144 5.96669 12.838 5.93358 12.8805 5.89675L12.3572 5.29166ZM12.0412 5.81955V7.6318H12.8412V5.81955H12.0412ZM12.0412 7.6318C12.0412 7.59435 12.0512 7.5432 12.0833 7.49326C12.1142 7.44512 12.1513 7.42036 12.1713 7.41C12.1895 7.4006 12.1958 7.40157 12.1802 7.40427C12.1656 7.4068 12.1393 7.40954 12.0984 7.40954V8.20954C12.2342 8.20954 12.3971 8.19411 12.5396 8.1202C12.6167 8.08022 12.6967 8.01844 12.7562 7.92586C12.8169 7.83148 12.8412 7.7285 12.8412 7.6318H12.0412ZM12.0984 7.40954H11.9429V8.20954H12.0984V7.40954Z" fill="#6D6961"/>
<path d="M15.3641 7.80954C15.1377 7.80954 15.0245 7.75029 15.0245 7.6318V3.72799C15.0245 3.66663 15.052 3.62114 15.107 3.59152C15.162 3.55978 15.2477 3.54391 15.3641 3.54391H15.5196C15.746 3.54391 15.8592 3.60527 15.8592 3.72799V5.18478C15.9523 5.07264 16.0676 4.98166 16.2052 4.91183C16.3448 4.83989 16.494 4.80392 16.6527 4.80392C16.9362 4.80392 17.1489 4.87903 17.2906 5.02926C17.4324 5.17737 17.5033 5.40589 17.5033 5.71481V7.6318C17.5033 7.75029 17.3911 7.80954 17.1668 7.80954H17.0113C16.7828 7.80954 16.6686 7.75029 16.6686 7.6318V5.84176C16.6686 5.60902 16.548 5.49264 16.3067 5.49264C16.2052 5.49264 16.1153 5.5265 16.037 5.5942C15.9608 5.6598 15.9015 5.73491 15.8592 5.81955V7.6318C15.8592 7.75029 15.746 7.80954 15.5196 7.80954H15.3641ZM19.6186 7.84762C19.1234 7.84762 18.7542 7.71538 18.5109 7.45089C18.2676 7.18429 18.1459 6.81507 18.1459 6.34323C18.1459 5.81214 18.2676 5.42282 18.5109 5.17526C18.7542 4.9277 19.0896 4.80392 19.517 4.80392C19.8005 4.80392 20.0322 4.86846 20.2121 4.99752C20.394 5.12659 20.5263 5.3001 20.6088 5.51803C20.6934 5.73597 20.7358 5.98247 20.7358 6.25753C20.7358 6.28927 20.7167 6.33159 20.6786 6.38449C20.6427 6.43738 20.6014 6.48499 20.5548 6.52731C20.5083 6.56963 20.4723 6.59079 20.4469 6.59079H19.0092C19.0282 6.80661 19.0917 6.96001 19.1996 7.05099C19.3096 7.13986 19.462 7.18429 19.6567 7.18429C19.7624 7.18429 19.8577 7.17265 19.9423 7.14938C20.029 7.12399 20.1211 7.09119 20.2184 7.05099C20.2777 7.02348 20.3179 7.00973 20.339 7.00973C20.3771 7.00973 20.4184 7.03724 20.4628 7.09225C20.5094 7.14515 20.5485 7.20651 20.5802 7.27633C20.6141 7.34616 20.631 7.40011 20.631 7.4382C20.631 7.52495 20.5718 7.59901 20.4533 7.66037C20.3369 7.72173 20.1983 7.76828 20.0375 7.80001C19.8788 7.83175 19.7392 7.84762 19.6186 7.84762ZM19.9233 6.03537C19.9233 5.86186 19.8894 5.72327 19.8217 5.61959C19.754 5.5138 19.6524 5.4609 19.517 5.4609C19.2377 5.4609 19.0684 5.65239 19.0092 6.03537H19.9233ZM22.6765 7.84762C22.1962 7.84762 21.8397 7.72384 21.6069 7.47628C21.3742 7.22661 21.2578 6.84892 21.2578 6.34323C21.2578 5.8333 21.3752 5.44927 21.6101 5.19113C21.8449 4.93299 22.211 4.80392 22.7082 4.80392C22.85 4.80392 22.9928 4.81979 23.1367 4.85153C23.2827 4.88115 23.4033 4.92558 23.4985 4.98483C23.5958 5.04196 23.6445 5.11178 23.6445 5.1943C23.6445 5.22816 23.6255 5.28105 23.5874 5.35299C23.5514 5.42493 23.5091 5.48947 23.4604 5.5466C23.4139 5.60161 23.3747 5.62912 23.343 5.62912C23.3282 5.62912 23.2954 5.6143 23.2446 5.58468C23.1642 5.5466 23.088 5.51697 23.0161 5.49582C22.9441 5.47254 22.8563 5.4609 22.7527 5.4609C22.5305 5.4609 22.3686 5.53179 22.2671 5.67355C22.1655 5.8132 22.1147 6.02902 22.1147 6.32101C22.1147 6.61512 22.1623 6.83305 22.2575 6.97482C22.3549 7.11447 22.5093 7.18429 22.7209 7.18429C22.8373 7.18429 22.9389 7.17265 23.0256 7.14938C23.1124 7.12399 23.1949 7.09225 23.2732 7.05416C23.288 7.04782 23.306 7.04041 23.3271 7.03195C23.3483 7.02348 23.3641 7.01925 23.3747 7.01925C23.4128 7.01925 23.4541 7.04676 23.4985 7.10177C23.5451 7.15467 23.5842 7.21603 23.6159 7.28585C23.6498 7.35568 23.6667 7.40963 23.6667 7.44772C23.6667 7.54505 23.6032 7.62334 23.4763 7.68258C23.3493 7.74183 23.2076 7.78415 23.051 7.80954C22.8944 7.83493 22.7696 7.84762 22.6765 7.84762ZM24.5347 7.80954C24.3083 7.80954 24.1951 7.75029 24.1951 7.6318V3.72799C24.1951 3.66663 24.2226 3.62114 24.2776 3.59152C24.3326 3.55978 24.4183 3.54391 24.5347 3.54391H24.6902C24.9166 3.54391 25.0298 3.60527 25.0298 3.72799V5.95919L25.0489 5.96554L25.7344 4.94674C25.764 4.90231 25.8053 4.87374 25.8582 4.86105C25.9111 4.84624 25.9841 4.83883 26.0772 4.83883H26.2867C26.4982 4.83883 26.604 4.8674 26.604 4.92453C26.604 4.95415 26.586 4.99012 26.5501 5.03244L25.7693 6.1528L26.6866 7.60641C26.7183 7.65931 26.7342 7.69845 26.7342 7.72384C26.7342 7.78097 26.6263 7.80954 26.4104 7.80954H26.1756C26.0846 7.80954 26.0105 7.80213 25.9534 7.78732C25.8963 7.77251 25.8571 7.74394 25.836 7.70163L25.0489 6.40353L25.0298 6.41305V7.6318C25.0298 7.75029 24.9166 7.80954 24.6902 7.80954H24.5347ZM27.9354 7.84762C27.7894 7.84762 27.6445 7.83175 27.5006 7.80001C27.3567 7.76828 27.2372 7.72278 27.1419 7.66354C27.0488 7.6043 27.0023 7.53659 27.0023 7.46041C27.0023 7.41387 27.0192 7.35568 27.0531 7.28585C27.0869 7.21603 27.1271 7.15573 27.1737 7.10495C27.2223 7.05205 27.2647 7.0256 27.3006 7.0256C27.3197 7.0256 27.3609 7.04041 27.4244 7.07003C27.4985 7.10389 27.5693 7.13139 27.6371 7.15255C27.7048 7.17371 27.782 7.18429 27.8687 7.18429C27.9767 7.18429 28.0581 7.16419 28.1131 7.12399C28.1681 7.08379 28.1956 7.02454 28.1956 6.94625C28.1956 6.88701 28.1787 6.83834 28.1449 6.80026C28.1131 6.76006 28.0719 6.72726 28.0211 6.70187C27.9703 6.67648 27.8984 6.6458 27.8053 6.60983L27.7132 6.57492C27.5926 6.52837 27.4868 6.47547 27.3958 6.41623C27.3049 6.35698 27.2276 6.27129 27.1642 6.15915C27.1007 6.04489 27.0689 5.90101 27.0689 5.7275C27.0689 5.53496 27.1102 5.36992 27.1927 5.23239C27.2774 5.09274 27.3969 4.98694 27.5514 4.915C27.7058 4.84095 27.8878 4.80392 28.0973 4.80392C28.2179 4.80392 28.3438 4.81556 28.4749 4.83883C28.6061 4.86211 28.7162 4.89808 28.805 4.94674C28.896 4.99541 28.9415 5.05677 28.9415 5.13083C28.9415 5.17314 28.9277 5.23027 28.9002 5.30221C28.8748 5.37415 28.8431 5.43763 28.805 5.49264C28.7669 5.54765 28.731 5.57516 28.6971 5.57516C28.6865 5.57516 28.6569 5.56564 28.6082 5.5466C28.5427 5.51909 28.4792 5.49793 28.4178 5.48312C28.3586 5.46619 28.2898 5.45773 28.2115 5.45773C28.0126 5.45773 27.9132 5.52332 27.9132 5.65451C27.9132 5.71375 27.9312 5.76453 27.9671 5.80685C28.0052 5.84917 28.0518 5.88408 28.1068 5.91159C28.1618 5.93909 28.239 5.97189 28.3385 6.00998C28.4527 6.05652 28.5236 6.08615 28.5511 6.09884C28.6992 6.1729 28.8177 6.27129 28.9066 6.39401C28.9976 6.51461 29.0431 6.67648 29.0431 6.8796C29.0431 7.07215 28.9997 7.24142 28.9129 7.38742C28.8262 7.53341 28.6992 7.64661 28.5321 7.72702C28.3649 7.80742 28.166 7.84762 27.9354 7.84762Z" fill="url(#paint1_linear_2_119)"/>
<path d="M15.107 3.59152L15.2968 3.94386L15.3069 3.93799L15.107 3.59152ZM15.8592 5.18478H15.4592V6.29282L16.167 5.44028L15.8592 5.18478ZM16.2052 4.91183L16.3863 5.2685L16.3884 5.26742L16.2052 4.91183ZM17.2906 5.02926L16.9997 5.3038L17.0017 5.30585L17.2906 5.02926ZM16.037 5.5942L16.298 5.89731L16.2986 5.89675L16.037 5.5942ZM15.8592 5.81955L15.5015 5.64066L15.4592 5.72512V5.81955H15.8592ZM15.3641 7.40954C15.3239 7.40954 15.2983 7.40682 15.2843 7.40438C15.2693 7.40177 15.2763 7.40098 15.2949 7.4107C15.3154 7.42144 15.3525 7.44655 15.3831 7.49468C15.4148 7.54444 15.4245 7.59507 15.4245 7.6318H14.6245C14.6245 7.72778 14.6484 7.83024 14.7084 7.92444C14.7673 8.017 14.8468 8.07914 14.9239 8.1195C15.0664 8.19406 15.229 8.20954 15.3641 8.20954V7.40954ZM15.4245 7.6318V3.72799H14.6245V7.6318H15.4245ZM15.4245 3.72799C15.4245 3.75883 15.4169 3.80601 15.3874 3.85482C15.3582 3.90324 15.321 3.93062 15.2967 3.94371L14.9174 3.23933C14.8381 3.28204 14.7596 3.34697 14.7029 3.44089C14.6458 3.53519 14.6245 3.6358 14.6245 3.72799H15.4245ZM15.3069 3.93799C15.2945 3.94518 15.2855 3.94849 15.2822 3.94959C15.279 3.9507 15.2796 3.9502 15.2854 3.94913C15.2978 3.94683 15.3228 3.94391 15.3641 3.94391V3.14391C15.2272 3.14391 15.055 3.15977 14.9071 3.24504L15.3069 3.93799ZM15.3641 3.94391H15.5196V3.14391H15.3641V3.94391ZM15.5196 3.94391C15.5593 3.94391 15.584 3.94669 15.5971 3.94904C15.611 3.95156 15.603 3.95206 15.5837 3.94159C15.5622 3.92995 15.5263 3.9042 15.4973 3.85699C15.4676 3.80876 15.4592 3.76101 15.4592 3.72799H16.2592C16.2592 3.63361 16.2367 3.53217 16.1787 3.43793C16.1214 3.34469 16.043 3.2806 15.9649 3.23827C15.8208 3.16013 15.6559 3.14391 15.5196 3.14391V3.94391ZM15.4592 3.72799V5.18478H16.2592V3.72799H15.4592ZM16.167 5.44028C16.2232 5.37258 16.2945 5.31507 16.3863 5.2685L16.0241 4.55516C15.8408 4.64824 15.6815 4.7727 15.5515 4.92928L16.167 5.44028ZM16.3884 5.26742C16.4708 5.22497 16.557 5.20392 16.6527 5.20392V4.40392C16.4309 4.40392 16.2189 4.45481 16.022 4.55624L16.3884 5.26742ZM16.6527 5.20392C16.8684 5.20392 16.9583 5.25996 16.9997 5.30379L17.5815 4.75473C17.3394 4.49811 17.004 4.40392 16.6527 4.40392V5.20392ZM17.0017 5.30585C17.0433 5.34931 17.1033 5.45777 17.1033 5.71481H17.9033C17.9033 5.35401 17.8215 5.00543 17.5796 4.75268L17.0017 5.30585ZM17.1033 5.71481V7.6318H17.9033V5.71481H17.1033ZM17.1033 7.6318C17.1033 7.59579 17.1127 7.54569 17.144 7.49611C17.1743 7.448 17.2113 7.42255 17.2323 7.41143C17.2514 7.40136 17.2589 7.40197 17.2447 7.40449C17.2313 7.40684 17.2064 7.40954 17.1668 7.40954V8.20954C17.3012 8.20954 17.4636 8.194 17.606 8.11878C17.6831 8.07804 17.7621 8.01555 17.8205 7.92301C17.8799 7.829 17.9033 7.72706 17.9033 7.6318H17.1033ZM17.1668 7.40954H17.0113V8.20954H17.1668V7.40954ZM17.0113 7.40954C16.9704 7.40954 16.9441 7.4068 16.9295 7.40427C16.9139 7.40157 16.9203 7.4006 16.9384 7.41C16.9584 7.42036 16.9955 7.44512 17.0265 7.49326C17.0586 7.5432 17.0686 7.59435 17.0686 7.6318H16.2686C16.2686 7.7285 16.2928 7.83148 16.3535 7.92586C16.413 8.01844 16.493 8.08022 16.5701 8.1202C16.7126 8.19411 16.8755 8.20954 17.0113 8.20954V7.40954ZM17.0686 7.6318V5.84176H16.2686V7.6318H17.0686ZM17.0686 5.84176C17.0686 5.66003 17.0207 5.45113 16.8558 5.29207C16.6937 5.13558 16.4855 5.09264 16.3067 5.09264V5.89264C16.3361 5.89264 16.3459 5.89633 16.3426 5.89525C16.3374 5.8936 16.3197 5.88648 16.3004 5.86777C16.2807 5.84877 16.2712 5.8294 16.2679 5.81963C16.2652 5.81195 16.2686 5.81698 16.2686 5.84176H17.0686ZM16.3067 5.09264C16.1071 5.09264 15.9247 5.16241 15.7753 5.29166L16.2986 5.89675C16.302 5.89386 16.304 5.89257 16.3046 5.8922C16.3052 5.89185 16.305 5.89205 16.3041 5.89238C16.3037 5.89253 16.3033 5.89266 16.3029 5.89275C16.3026 5.89285 16.3024 5.89288 16.3024 5.89288C16.3024 5.89288 16.3027 5.89282 16.3034 5.89276C16.3041 5.89271 16.3052 5.89264 16.3067 5.89264V5.09264ZM15.776 5.2911C15.6622 5.38909 15.5689 5.50571 15.5015 5.64066L16.217 5.99843C16.2342 5.96411 16.2594 5.9305 16.298 5.89731L15.776 5.2911ZM15.4592 5.81955V7.6318H16.2592V5.81955H15.4592ZM15.4592 7.6318C15.4592 7.59507 15.4689 7.54444 15.5006 7.49468C15.5313 7.44655 15.5683 7.42144 15.5889 7.4107C15.6074 7.40098 15.6144 7.40177 15.5995 7.40438C15.5855 7.40682 15.5599 7.40954 15.5196 7.40954V8.20954C15.6547 8.20954 15.8174 8.19406 15.9598 8.1195C16.0369 8.07914 16.1164 8.017 16.1754 7.92444C16.2354 7.83024 16.2592 7.72778 16.2592 7.6318H15.4592ZM15.5196 7.40954H15.3641V8.20954H15.5196V7.40954ZM18.5109 7.45089L18.2155 7.72055L18.2165 7.72172L18.5109 7.45089ZM18.5109 5.17526L18.2256 4.89486L18.5109 5.17526ZM20.2121 4.99752L19.9789 5.32251L19.9807 5.32378L20.2121 4.99752ZM20.6088 5.51803L20.2347 5.65968L20.2359 5.66284L20.6088 5.51803ZM20.6786 6.38449L20.3539 6.15068L20.3479 6.15956L20.6786 6.38449ZM19.0092 6.59079V6.19079H18.5723L18.6107 6.62594L19.0092 6.59079ZM19.1996 7.05099L18.9417 7.35687L18.9483 7.36217L19.1996 7.05099ZM19.9423 7.14938L20.0484 7.53511L20.0547 7.53327L19.9423 7.14938ZM20.2184 7.05099L20.3711 7.4207L20.3791 7.41741L20.3869 7.41379L20.2184 7.05099ZM20.4628 7.09225L20.1516 7.34359L20.1569 7.35016L20.1625 7.3565L20.4628 7.09225ZM20.5802 7.27633L20.216 7.44191L20.2203 7.45084L20.5802 7.27633ZM20.4533 7.66037L20.2693 7.30516L20.2667 7.30654L20.4533 7.66037ZM20.0375 7.80001L19.9601 7.40758L19.9591 7.40778L20.0375 7.80001ZM19.9233 6.03537V6.43537H20.3233V6.03537H19.9233ZM19.8217 5.61959L19.4848 5.83523L19.4868 5.83831L19.8217 5.61959ZM19.0092 6.03537L18.6139 5.97421L18.5426 6.43537H19.0092V6.03537ZM19.6186 7.44762C19.1916 7.44762 18.9476 7.33479 18.8053 7.18007L18.2165 7.72172C18.5608 8.09597 19.0553 8.24762 19.6186 8.24762V7.44762ZM18.8063 7.18124C18.6488 7.00867 18.5459 6.74675 18.5459 6.34323H17.7459C17.7459 6.88339 17.8863 7.35991 18.2155 7.72055L18.8063 7.18124ZM18.5459 6.34323C18.5459 5.86268 18.6573 5.59698 18.7962 5.45565L18.2256 4.89486C17.8779 5.24866 17.7459 5.7616 17.7459 6.34323H18.5459ZM18.7962 5.45565C18.9476 5.30159 19.1705 5.20392 19.517 5.20392V4.40392C19.0087 4.40392 18.5608 4.55381 18.2256 4.89486L18.7962 5.45565ZM19.517 5.20392C19.7404 5.20392 19.8839 5.25435 19.9789 5.3225L20.4453 4.67255C20.1806 4.48256 19.8607 4.40392 19.517 4.40392V5.20392ZM19.9807 5.32378C20.0948 5.40474 20.179 5.51258 20.2347 5.65967L20.9829 5.37639C20.8735 5.08761 20.6933 4.84845 20.4435 4.67126L19.9807 5.32378ZM20.2359 5.66284C20.2998 5.82723 20.3358 6.02342 20.3358 6.25753H21.1358C21.1358 5.94152 21.0871 5.64471 20.9817 5.37323L20.2359 5.66284ZM20.3358 6.25753C20.3358 6.22585 20.3404 6.2006 20.3448 6.1837C20.3491 6.16676 20.354 6.15494 20.3567 6.14893C20.3616 6.13801 20.3631 6.13809 20.354 6.15077L21.0032 6.61821C21.0479 6.55619 21.1358 6.42448 21.1358 6.25753H20.3358ZM20.3479 6.15956C20.3293 6.18687 20.3086 6.21054 20.2858 6.23133L20.8239 6.82329C20.8941 6.75944 20.956 6.6879 21.0094 6.60941L20.3479 6.15956ZM20.2858 6.23133C20.2737 6.2423 20.2757 6.23862 20.2901 6.23014C20.298 6.22554 20.3141 6.21676 20.3376 6.20867C20.3608 6.20067 20.3985 6.19079 20.4469 6.19079V6.99079C20.5631 6.99079 20.6517 6.94564 20.6958 6.91969C20.7461 6.89005 20.7894 6.85463 20.8239 6.82329L20.2858 6.23133ZM20.4469 6.19079H19.0092V6.99079H20.4469V6.19079ZM18.6107 6.62594C18.6342 6.89194 18.7189 7.16886 18.9418 7.3568L19.4575 6.74518C19.4645 6.75115 19.4223 6.72128 19.4076 6.55563L18.6107 6.62594ZM18.9483 7.36217C19.1521 7.5268 19.4046 7.58429 19.6567 7.58429V6.78429C19.5193 6.78429 19.4672 6.75292 19.451 6.73981L18.9483 7.36217ZM19.6567 7.58429C19.7912 7.58429 19.923 7.56955 20.0484 7.53506L19.8362 6.7637C19.7924 6.77576 19.7337 6.78429 19.6567 6.78429V7.58429ZM20.0547 7.53327C20.1571 7.50329 20.2627 7.46548 20.3711 7.4207L20.0657 6.68129C19.9795 6.71691 19.901 6.74469 19.8299 6.76548L20.0547 7.53327ZM20.3869 7.41379C20.3977 7.40877 20.4062 7.40506 20.4126 7.4024C20.4157 7.40109 20.4181 7.40014 20.4199 7.39947C20.4217 7.3988 20.4225 7.39851 20.4225 7.39851C20.4225 7.39852 20.4222 7.39862 20.4216 7.3988C20.421 7.39898 20.4202 7.39925 20.419 7.3996C20.4167 7.40026 20.4127 7.40137 20.4071 7.40263C20.4016 7.40385 20.3933 7.40551 20.3828 7.4069C20.3725 7.40827 20.3575 7.40973 20.339 7.40973V6.60973C20.2593 6.60973 20.1921 6.63182 20.1635 6.64158C20.1251 6.65471 20.0863 6.6713 20.05 6.68819L20.3869 7.41379ZM20.339 7.40973C20.2584 7.40973 20.2021 7.38016 20.1767 7.36318C20.1526 7.34713 20.145 7.33536 20.1516 7.34359L20.774 6.84092C20.7141 6.76683 20.5693 6.60973 20.339 6.60973V7.40973ZM20.1625 7.3565C20.1808 7.37732 20.1992 7.40475 20.2161 7.44185L20.9444 7.11081C20.8978 7.00827 20.8379 6.91298 20.7631 6.828L20.1625 7.3565ZM20.2203 7.45084C20.2257 7.46199 20.2296 7.47084 20.2324 7.47755C20.2352 7.48434 20.2364 7.48802 20.2367 7.4889C20.237 7.48993 20.2358 7.48641 20.2344 7.47901C20.2331 7.47183 20.231 7.4577 20.231 7.4382H21.031C21.031 7.30417 20.9785 7.18097 20.9402 7.10182L20.2203 7.45084ZM20.231 7.4382C20.231 7.4133 20.2355 7.38733 20.2446 7.3626C20.2535 7.33829 20.265 7.32042 20.2742 7.30893C20.2908 7.28827 20.2977 7.29047 20.2693 7.30517L20.6372 8.01556C20.8101 7.92606 21.031 7.74583 21.031 7.4382H20.231ZM20.2667 7.30654C20.1919 7.34601 20.0917 7.38159 19.9601 7.40758L20.115 8.19244C20.3049 8.15496 20.482 8.09745 20.6398 8.01419L20.2667 7.30654ZM19.9591 7.40778C19.8181 7.43598 19.7057 7.44762 19.6186 7.44762V8.24762C19.7727 8.24762 19.9396 8.22752 20.116 8.19225L19.9591 7.40778ZM20.3233 6.03537C20.3233 5.81412 20.2806 5.5908 20.1566 5.40088L19.4868 5.83831C19.4982 5.85575 19.5233 5.9096 19.5233 6.03537H20.3233ZM20.1586 5.40397C20.0108 5.17297 19.7761 5.0609 19.517 5.0609V5.8609C19.5321 5.8609 19.5258 5.86359 19.51 5.85534C19.5026 5.85151 19.4961 5.84675 19.491 5.84198C19.4861 5.83736 19.4843 5.8344 19.4848 5.83522L20.1586 5.40397ZM19.517 5.0609C19.2747 5.0609 19.049 5.1494 18.8809 5.3396C18.7257 5.51516 18.6496 5.74342 18.6139 5.97421L19.4045 6.09652C19.428 5.94434 19.4662 5.88537 19.4803 5.86944C19.4832 5.86609 19.4849 5.8649 19.485 5.86479C19.4851 5.86472 19.485 5.86477 19.4852 5.86469C19.4855 5.86458 19.4875 5.86372 19.4921 5.86284C19.4969 5.86193 19.5049 5.8609 19.517 5.8609V5.0609ZM19.0092 6.43537H19.9233V5.63537H19.0092V6.43537ZM21.6069 7.47628L21.3143 7.74904L21.3155 7.75027L21.6069 7.47628ZM23.1367 4.85153L23.0505 5.24219L23.0572 5.24354L23.1367 4.85153ZM23.4985 4.98483L23.2871 5.32456L23.296 5.3298L23.4985 4.98483ZM23.5874 5.35299L23.2338 5.16579L23.2296 5.17411L23.5874 5.35299ZM23.4604 5.5466L23.1559 5.28721L23.1551 5.28822L23.4604 5.5466ZM23.2446 5.58468L23.4461 5.23917L23.4313 5.23053L23.4158 5.22319L23.2446 5.58468ZM23.0161 5.49582L22.8929 5.87653L22.9032 5.87956L23.0161 5.49582ZM22.2671 5.67355L22.5906 5.90882L22.5922 5.9065L22.2671 5.67355ZM22.2575 6.97482L21.9254 7.19787L21.9294 7.20354L22.2575 6.97482ZM23.0256 7.14938L23.1293 7.53582L23.138 7.53327L23.0256 7.14938ZM23.2732 7.05416L23.1156 6.68651L23.1068 6.69028L23.0982 6.69447L23.2732 7.05416ZM23.4985 7.10177L23.1873 7.35311L23.1926 7.35968L23.1982 7.36602L23.4985 7.10177ZM23.6159 7.28585L23.2517 7.45143L23.256 7.46036L23.6159 7.28585ZM22.6765 7.44762C22.2599 7.44762 22.0286 7.34084 21.8983 7.20229L21.3155 7.75027C21.6507 8.10684 22.1324 8.24762 22.6765 8.24762V7.44762ZM21.8995 7.20353C21.7627 7.05676 21.6578 6.7956 21.6578 6.34323H20.8578C20.8578 6.90225 20.9856 7.39646 21.3143 7.74903L21.8995 7.20353ZM21.6578 6.34323C21.6578 5.88765 21.7633 5.6171 21.9059 5.46032L21.3142 4.92194C20.9871 5.28144 20.8578 5.77894 20.8578 6.34323H21.6578ZM21.9059 5.46032C22.0374 5.31589 22.2747 5.20392 22.7082 5.20392V4.40392C22.1473 4.40392 21.6525 4.55009 21.3142 4.92194L21.9059 5.46032ZM22.7082 5.20392C22.8199 5.20392 22.9338 5.2164 23.0505 5.24214L23.2229 4.46092C23.0518 4.42318 22.8801 4.40392 22.7082 4.40392V5.20392ZM23.0572 5.24354C23.1709 5.26662 23.2433 5.29714 23.2872 5.32445L23.7098 4.64521C23.5633 4.55403 23.3945 4.49568 23.2162 4.45952L23.0572 5.24354ZM23.296 5.3298C23.3104 5.33821 23.2974 5.334 23.2798 5.30876C23.259 5.27882 23.2445 5.23753 23.2445 5.1943H24.0445C24.0445 4.91969 23.8701 4.73913 23.701 4.63986L23.296 5.3298ZM23.2445 5.1943C23.2445 5.17997 23.2455 5.16802 23.2466 5.15895C23.2477 5.14983 23.2491 5.14258 23.2502 5.1375C23.2524 5.12774 23.2542 5.12285 23.2539 5.12388C23.2536 5.12462 23.2521 5.12857 23.2486 5.13616C23.2452 5.14362 23.2404 5.15345 23.2339 5.16584L23.9409 5.54015C23.9652 5.49419 23.9885 5.44496 24.0066 5.39485C24.0228 5.34974 24.0445 5.27795 24.0445 5.1943H23.2445ZM23.2296 5.17411C23.207 5.21922 23.1822 5.25636 23.1559 5.28721L23.7649 5.80598C23.836 5.72258 23.8958 5.63065 23.9451 5.53188L23.2296 5.17411ZM23.1551 5.28822C23.1439 5.30138 23.1475 5.29433 23.1662 5.28121C23.1818 5.27025 23.2444 5.22912 23.343 5.22912V6.02912C23.4733 6.02912 23.5714 5.97423 23.6261 5.93576C23.6839 5.89513 23.7304 5.84683 23.7658 5.80497L23.1551 5.28822ZM23.343 5.22912C23.3731 5.22912 23.397 5.23272 23.4119 5.23558C23.4275 5.23856 23.4396 5.24199 23.4473 5.2444C23.4622 5.24901 23.4711 5.25311 23.4719 5.25346C23.4735 5.25417 23.466 5.25077 23.4461 5.23917L23.0431 5.93019C23.0739 5.94822 23.1083 5.96703 23.1426 5.98256C23.1571 5.98908 23.2402 6.02912 23.343 6.02912V5.22912ZM23.4158 5.22319C23.32 5.17777 23.2242 5.14008 23.129 5.11207L22.9032 5.87956C22.9519 5.89387 23.0084 5.91542 23.0734 5.94618L23.4158 5.22319ZM23.1392 5.11524C23.0158 5.07531 22.8838 5.0609 22.7527 5.0609V5.8609C22.8289 5.8609 22.8725 5.86977 22.893 5.87639L23.1392 5.11524ZM22.7527 5.0609C22.4408 5.0609 22.1388 5.16568 21.9419 5.4406L22.5922 5.9065C22.5984 5.89789 22.6202 5.8609 22.7527 5.8609V5.0609ZM21.9436 5.43828C21.7684 5.6792 21.7147 5.99713 21.7147 6.32101H22.5147C22.5147 6.06091 22.5626 5.94719 22.5906 5.90882L21.9436 5.43828ZM21.7147 6.32101C21.7147 6.64369 21.7643 6.95778 21.9255 7.19784L22.5896 6.7518C22.5604 6.70833 22.5147 6.58655 22.5147 6.32101H21.7147ZM21.9294 7.20354C22.1199 7.47686 22.4143 7.58429 22.7209 7.58429V6.78429C22.6583 6.78429 22.6254 6.77389 22.6112 6.76744C22.5999 6.76236 22.5933 6.75703 22.5857 6.7461L21.9294 7.20354ZM22.7209 7.58429C22.8626 7.58429 23.0005 7.57027 23.1293 7.53572L22.922 6.76304C22.8773 6.77503 22.812 6.78429 22.7209 6.78429V7.58429ZM23.138 7.53327C23.2454 7.50183 23.349 7.46212 23.4482 7.41386L23.0982 6.69447C23.0408 6.72238 22.9793 6.74615 22.9132 6.76548L23.138 7.53327ZM23.4307 7.42182C23.4416 7.41716 23.4564 7.41104 23.4757 7.40334L23.1786 6.66056C23.1555 6.66978 23.1343 6.67848 23.1156 6.68651L23.4307 7.42182ZM23.4757 7.40334C23.4757 7.40334 23.4753 7.40348 23.4747 7.40371C23.4741 7.40394 23.4731 7.40431 23.4717 7.40477C23.4692 7.40565 23.4645 7.40718 23.458 7.40892C23.4516 7.41062 23.4417 7.41299 23.429 7.41502C23.4166 7.417 23.3979 7.41925 23.3747 7.41925V6.61925C23.2821 6.61925 23.205 6.64996 23.1786 6.66056L23.4757 7.40334ZM23.3747 7.41925C23.2941 7.41925 23.2378 7.38968 23.2124 7.3727C23.1883 7.35665 23.1807 7.34488 23.1873 7.35311L23.8097 6.85044C23.7498 6.77635 23.605 6.61925 23.3747 6.61925V7.41925ZM23.1982 7.36602C23.2165 7.38684 23.2349 7.41427 23.2518 7.45138L23.9801 7.12033C23.9335 7.01779 23.8736 6.9225 23.7988 6.83752L23.1982 7.36602ZM23.256 7.46036C23.2614 7.47151 23.2653 7.48036 23.2681 7.48707C23.2709 7.49386 23.2721 7.49754 23.2724 7.49842C23.2727 7.49945 23.2715 7.49593 23.2701 7.48853C23.2688 7.48135 23.2667 7.46722 23.2667 7.44772H24.0667C24.0667 7.31369 24.0142 7.1905 23.9759 7.11134L23.256 7.46036ZM23.2667 7.44772C23.2667 7.42768 23.2701 7.40466 23.2786 7.38118C23.2871 7.35787 23.2984 7.3399 23.3084 7.32751C23.3268 7.30488 23.3358 7.30673 23.3071 7.32011L23.6454 8.04506C23.8421 7.9533 24.0667 7.76605 24.0667 7.44772H23.2667ZM23.3071 7.32011C23.2176 7.36188 23.1119 7.39444 22.987 7.41469L23.115 8.20438C23.3033 8.17386 23.481 8.12178 23.6454 8.04506L23.3071 7.32011ZM22.987 7.41469C22.8391 7.43868 22.7384 7.44762 22.6765 7.44762V8.24762C22.8008 8.24762 22.9498 8.23117 23.115 8.20438L22.987 7.41469ZM24.2776 3.59152L24.4673 3.94386L24.4775 3.93799L24.2776 3.59152ZM25.0298 5.95919H24.6298V6.2475L24.9033 6.33867L25.0298 5.95919ZM25.0489 5.96554L24.9224 6.34502L25.2109 6.4412L25.3807 6.18885L25.0489 5.96554ZM25.7344 4.94674L26.0663 5.17005L26.0672 5.16862L25.7344 4.94674ZM25.8582 4.86105L25.9515 5.25L25.9588 5.24826L25.966 5.24624L25.8582 4.86105ZM26.5501 5.03244L26.2453 4.77338L26.2329 4.788L26.2219 4.80374L26.5501 5.03244ZM25.7693 6.1528L25.4411 5.9241L25.2894 6.14182L25.431 6.36626L25.7693 6.1528ZM26.6866 7.60641L27.0296 7.40056L27.0248 7.39295L26.6866 7.60641ZM25.836 7.70163L26.1937 7.52274L26.1865 7.50817L26.178 7.49423L25.836 7.70163ZM25.0489 6.40353L25.3909 6.19614L25.1997 5.88088L24.87 6.04576L25.0489 6.40353ZM25.0298 6.41305L24.8509 6.05528L24.6298 6.16584V6.41305H25.0298ZM24.5347 7.40954C24.4944 7.40954 24.4688 7.40682 24.4549 7.40438C24.4399 7.40177 24.4469 7.40098 24.4655 7.4107C24.486 7.42144 24.5231 7.44655 24.5537 7.49468C24.5854 7.54444 24.5951 7.59507 24.5951 7.6318H23.7951C23.7951 7.72778 23.8189 7.83024 23.8789 7.92444C23.9379 8.017 24.0174 8.07914 24.0945 8.1195C24.237 8.19406 24.3996 8.20954 24.5347 8.20954V7.40954ZM24.5951 7.6318V3.72799H23.7951V7.6318H24.5951ZM24.5951 3.72799C24.5951 3.75883 24.5875 3.80601 24.558 3.85482C24.5287 3.90324 24.4916 3.93062 24.4673 3.94371L24.088 3.23933C24.0087 3.28204 23.9302 3.34697 23.8734 3.44089C23.8164 3.53519 23.7951 3.6358 23.7951 3.72799H24.5951ZM24.4775 3.93799C24.465 3.94518 24.4561 3.94849 24.4528 3.94959C24.4495 3.9507 24.4502 3.9502 24.456 3.94913C24.4684 3.94683 24.4934 3.94391 24.5347 3.94391V3.14391C24.3978 3.14391 24.2255 3.15977 24.0777 3.24504L24.4775 3.93799ZM24.5347 3.94391H24.6902V3.14391H24.5347V3.94391ZM24.6902 3.94391C24.7299 3.94391 24.7546 3.94669 24.7677 3.94904C24.7816 3.95156 24.7736 3.95206 24.7543 3.94159C24.7328 3.92995 24.6969 3.9042 24.6679 3.85699C24.6382 3.80876 24.6298 3.76101 24.6298 3.72799H25.4298C25.4298 3.63361 25.4073 3.53217 25.3493 3.43793C25.292 3.34469 25.2136 3.2806 25.1355 3.23827C24.9914 3.16013 24.8265 3.14391 24.6902 3.14391V3.94391ZM24.6298 3.72799V5.95919H25.4298V3.72799H24.6298ZM24.9033 6.33867L24.9224 6.34502L25.1753 5.58607L25.1563 5.57972L24.9033 6.33867ZM25.3807 6.18885L26.0663 5.17005L25.4025 4.72343L24.717 5.74223L25.3807 6.18885ZM26.0672 5.16862C26.0559 5.18566 26.0387 5.20463 26.0153 5.22087C25.9919 5.23703 25.9691 5.24578 25.9515 5.25L25.7648 4.47209C25.6159 4.50783 25.4883 4.59483 25.4016 4.72486L26.0672 5.16862ZM25.966 5.24624C25.9645 5.24667 25.9722 5.24445 25.993 5.24234C26.0131 5.24031 26.0407 5.23883 26.0772 5.23883V4.43883C25.9691 4.43883 25.8543 4.44675 25.7503 4.47586L25.966 5.24624ZM26.0772 5.23883H26.2867V4.43883H26.0772V5.23883ZM26.2867 5.23883C26.3312 5.23883 26.365 5.24036 26.3897 5.24258C26.4156 5.24491 26.4239 5.24738 26.4204 5.24643C26.4182 5.24581 26.4089 5.24322 26.3953 5.23708C26.382 5.23111 26.3588 5.21922 26.3324 5.19786C26.3055 5.17603 26.272 5.14163 26.2455 5.09151C26.218 5.03951 26.204 4.9819 26.204 4.92453H27.004C27.004 4.76605 26.923 4.6467 26.836 4.57621C26.7609 4.5154 26.6803 4.48794 26.629 4.47408C26.5237 4.44566 26.4014 4.43883 26.2867 4.43883V5.23883ZM26.204 4.92453C26.204 4.85912 26.2234 4.81352 26.2328 4.79484C26.2424 4.7755 26.2497 4.76816 26.2453 4.77338L26.8549 5.2915C26.9052 5.23229 27.004 5.10265 27.004 4.92453H26.204ZM26.2219 4.80374L25.4411 5.9241L26.0975 6.3815L26.8783 5.26113L26.2219 4.80374ZM25.431 6.36626L26.3483 7.81987L27.0248 7.39295L26.1076 5.93934L25.431 6.36626ZM26.3436 7.81221C26.3532 7.8282 26.3541 7.83189 26.3516 7.82572C26.3501 7.82223 26.3464 7.81253 26.3428 7.79774C26.3393 7.78356 26.3342 7.7578 26.3342 7.72384H27.1342C27.1342 7.63655 27.1091 7.565 27.093 7.52516C27.0746 7.47985 27.0517 7.43752 27.0296 7.40061L26.3436 7.81221ZM26.3342 7.72384C26.3342 7.66506 26.3488 7.60642 26.3771 7.55395C26.4043 7.50354 26.4383 7.46941 26.4652 7.44809C26.4915 7.42721 26.5144 7.41573 26.5272 7.41009C26.5404 7.40427 26.5491 7.40189 26.5509 7.40143C26.5534 7.40077 26.5439 7.40334 26.5169 7.40573C26.4912 7.408 26.4562 7.40954 26.4104 7.40954V8.20954C26.5271 8.20954 26.6501 8.20271 26.7556 8.17479C26.8068 8.16124 26.8874 8.13438 26.9627 8.07458C27.0499 8.00535 27.1342 7.88558 27.1342 7.72384H26.3342ZM26.4104 7.40954H26.1756V8.20954H26.4104V7.40954ZM26.1756 7.40954C26.1023 7.40954 26.0655 7.40316 26.0538 7.40012L25.853 8.17452C25.9556 8.2011 26.0669 8.20954 26.1756 8.20954V7.40954ZM26.0538 7.40012C26.0637 7.40268 26.088 7.41056 26.117 7.43167C26.1477 7.45409 26.175 7.48536 26.1937 7.52274L25.4782 7.88051C25.5634 8.05094 25.7139 8.13846 25.853 8.17452L26.0538 7.40012ZM26.178 7.49423L25.3909 6.19614L24.7068 6.61092L25.4939 7.90902L26.178 7.49423ZM24.87 6.04576L24.8509 6.05528L25.2087 6.77082L25.2277 6.7613L24.87 6.04576ZM24.6298 6.41305V7.6318H25.4298V6.41305H24.6298ZM24.6298 7.6318C24.6298 7.59507 24.6395 7.54444 24.6712 7.49468C24.7019 7.44655 24.7389 7.42144 24.7594 7.4107C24.778 7.40098 24.785 7.40177 24.77 7.40438C24.7561 7.40682 24.7305 7.40954 24.6902 7.40954V8.20954C24.8253 8.20954 24.9879 8.19406 25.1304 8.1195C25.2075 8.07914 25.287 8.017 25.346 7.92444C25.406 7.83024 25.4298 7.72778 25.4298 7.6318H24.6298ZM24.6902 7.40954H24.5347V8.20954H24.6902V7.40954ZM27.1419 7.66354L26.9272 8.00102L26.9306 8.00316L27.1419 7.66354ZM27.0531 7.28585L26.6931 7.11134L27.0531 7.28585ZM27.1737 7.10495L26.8793 6.83412L26.8788 6.83466L27.1737 7.10495ZM27.4244 7.07003L27.2552 7.43252L27.2581 7.43382L27.4244 7.07003ZM28.1449 6.80026L27.8309 7.04812L27.8381 7.05728L27.8459 7.066L28.1449 6.80026ZM27.8053 6.60983L27.9494 6.2367L27.9471 6.23583L27.8053 6.60983ZM27.7132 6.57492L27.5692 6.94809L27.5714 6.94892L27.7132 6.57492ZM27.1642 6.15915L26.8145 6.35341L26.816 6.35618L27.1642 6.15915ZM27.1927 5.23239L26.8506 5.02506L26.8497 5.02659L27.1927 5.23239ZM27.5514 4.915L27.7203 5.27763L27.7243 5.27569L27.5514 4.915ZM28.805 4.94674L28.6129 5.2976L28.6164 5.29946L28.805 4.94674ZM28.9002 5.30221L28.5265 5.15931L28.523 5.16908L28.9002 5.30221ZM28.6082 5.5466L28.4535 5.91558L28.4625 5.91909L28.6082 5.5466ZM28.4178 5.48312L28.3079 5.86773L28.3159 5.87001L28.324 5.87195L28.4178 5.48312ZM27.9671 5.80685L27.6622 6.06601L27.6698 6.07444L27.9671 5.80685ZM28.3385 6.00998L28.4894 5.63946L28.4815 5.63643L28.3385 6.00998ZM28.5511 6.09884L28.7301 5.7409L28.7187 5.73566L28.5511 6.09884ZM28.9066 6.39401L28.5825 6.62866L28.5873 6.6349L28.9066 6.39401ZM27.9354 7.44762C27.8186 7.44762 27.7026 7.43496 27.5867 7.4094L27.4144 8.19062C27.5863 8.22855 27.7602 8.24762 27.9354 8.24762V7.44762ZM27.5867 7.4094C27.4741 7.38455 27.4 7.353 27.3533 7.32392L26.9306 8.00316C27.0743 8.09257 27.2393 8.152 27.4144 8.19062L27.5867 7.4094ZM27.3567 7.32608C27.3408 7.31597 27.3511 7.31889 27.3668 7.34171C27.3856 7.36903 27.4023 7.41114 27.4023 7.46041H26.6023C26.6023 7.72867 26.7748 7.90402 26.9272 8.001L27.3567 7.32608ZM27.4023 7.46041C27.4023 7.47286 27.4012 7.48199 27.4003 7.48714C27.3995 7.49231 27.3988 7.49457 27.3991 7.49359C27.3993 7.49265 27.4004 7.48936 27.4027 7.48354C27.405 7.47774 27.4083 7.47005 27.413 7.46036L26.6931 7.11134C26.6483 7.2038 26.6023 7.32596 26.6023 7.46041H27.4023ZM27.413 7.46036C27.432 7.42111 27.4513 7.39406 27.4685 7.37524L26.8788 6.83466C26.803 6.91739 26.7418 7.01095 26.6931 7.11134L27.413 7.46036ZM27.468 7.37577C27.4778 7.36518 27.4733 7.37254 27.4539 7.38464C27.4351 7.39637 27.3813 7.4256 27.3006 7.4256V6.6256C27.0825 6.6256 26.9373 6.77113 26.8793 6.83412L27.468 7.37577ZM27.3006 7.4256C27.2781 7.4256 27.2603 7.4235 27.2493 7.42184C27.2378 7.42011 27.229 7.41814 27.2237 7.41683C27.2136 7.41435 27.2086 7.41242 27.2107 7.41319C27.2122 7.41372 27.2167 7.41541 27.2247 7.41883C27.2326 7.42218 27.2427 7.42666 27.2553 7.43251L27.5936 6.70756C27.5564 6.69023 27.5179 6.67347 27.481 6.66023C27.4588 6.65225 27.386 6.6256 27.3006 6.6256V7.4256ZM27.2581 7.43382C27.3452 7.47366 27.4319 7.50751 27.5177 7.53435L27.7564 6.77076C27.7068 6.75528 27.6517 6.73411 27.5907 6.70624L27.2581 7.43382ZM27.5177 7.53435C27.6316 7.56991 27.7502 7.58429 27.8687 7.58429V6.78429C27.8138 6.78429 27.778 6.77751 27.7564 6.77076L27.5177 7.53435ZM27.8687 7.58429C28.0156 7.58429 28.1961 7.55881 28.3491 7.44695L27.8771 6.80103C27.9001 6.78421 27.9165 6.78048 27.9149 6.78086C27.9144 6.781 27.9105 6.78191 27.9025 6.78276C27.8945 6.7836 27.8834 6.78429 27.8687 6.78429V7.58429ZM28.3491 7.44695C28.5236 7.31944 28.5956 7.13042 28.5956 6.94625H27.7956C27.7956 6.93859 27.7971 6.91354 27.8122 6.88096C27.8282 6.84648 27.8524 6.81909 27.8771 6.80103L28.3491 7.44695ZM28.5956 6.94625C28.5956 6.80596 28.5532 6.65755 28.4438 6.53451L27.8459 7.066C27.8276 7.04542 27.8137 7.02134 27.8052 6.99673C27.7969 6.973 27.7956 6.95478 27.7956 6.94625H28.5956ZM28.4588 6.5524C28.3869 6.46129 28.2975 6.39289 28.2 6.3441L27.8422 7.05964C27.8447 7.06087 27.8439 7.06078 27.8412 7.05864C27.8384 7.05642 27.8347 7.0529 27.8309 7.04812L28.4588 6.5524ZM28.2 6.3441C28.1325 6.31036 28.0469 6.27439 27.9494 6.23671L27.6611 6.98295C27.7498 7.01721 27.8081 7.0426 27.8422 7.05964L28.2 6.3441ZM27.9471 6.23583L27.8551 6.20092L27.5714 6.94892L27.6634 6.98383L27.9471 6.23583ZM27.8573 6.20175C27.7579 6.1634 27.6778 6.12251 27.6141 6.08103L27.1776 6.75142C27.2958 6.82843 27.4273 6.89334 27.5692 6.94809L27.8573 6.20175ZM27.6141 6.08103C27.586 6.06274 27.55 6.02884 27.5123 5.96211L26.816 6.35618C26.9052 6.51374 27.0237 6.65122 27.1776 6.75142L27.6141 6.08103ZM27.5138 5.96489C27.4924 5.92637 27.4689 5.85451 27.4689 5.7275H26.6689C26.6689 5.9475 26.7089 6.16341 26.8145 6.3534L27.5138 5.96489ZM27.4689 5.7275C27.4689 5.59286 27.4974 5.50213 27.5357 5.43819L26.8497 5.02659C26.723 5.23771 26.6689 5.47706 26.6689 5.7275H27.4689ZM27.5348 5.43971C27.5765 5.37088 27.6343 5.31762 27.7202 5.2776L27.3825 4.5524C27.1595 4.65627 26.9782 4.8146 26.8506 5.02507L27.5348 5.43971ZM27.7243 5.27569C27.8141 5.23263 27.9346 5.20392 28.0973 5.20392V4.40392C27.841 4.40392 27.5975 4.44927 27.3784 4.55432L27.7243 5.27569ZM28.0973 5.20392C28.1921 5.20392 28.2946 5.21308 28.4051 5.23268L28.5448 4.44498C28.3929 4.41804 28.2436 4.40392 28.0973 4.40392V5.20392ZM28.4051 5.23268C28.5061 5.25061 28.572 5.27521 28.6129 5.29758L28.9971 4.5959C28.8603 4.52095 28.7061 4.4736 28.5448 4.44498L28.4051 5.23268ZM28.6164 5.29946C28.6271 5.30518 28.6086 5.29791 28.5861 5.26749C28.5594 5.23157 28.5415 5.18244 28.5415 5.13083H29.3415C29.3415 4.85329 29.1566 4.6812 28.9937 4.59403L28.6164 5.29946ZM28.5415 5.13083C28.5415 5.12007 28.5423 5.11303 28.5427 5.11054C28.543 5.10794 28.5432 5.10822 28.5423 5.11179C28.5405 5.11942 28.536 5.13483 28.5266 5.15936L29.2739 5.44507C29.3069 5.35863 29.3415 5.24683 29.3415 5.13083H28.5415ZM28.523 5.16908C28.5079 5.21209 28.4914 5.24293 28.4761 5.26496L29.1339 5.72033C29.1948 5.63233 29.2418 5.53621 29.2774 5.43534L28.523 5.16908ZM28.4761 5.26496C28.4706 5.27292 28.4796 5.25738 28.5065 5.23679C28.5349 5.2151 28.6007 5.17516 28.6971 5.17516V5.97516C28.9476 5.97516 29.0886 5.78574 29.1339 5.72033L28.4761 5.26496ZM28.6971 5.17516C28.7234 5.17516 28.7437 5.17791 28.7536 5.17945C28.7648 5.18118 28.7732 5.18306 28.7778 5.18414C28.7866 5.18624 28.7912 5.18781 28.7894 5.18721C28.7859 5.1861 28.775 5.18233 28.754 5.1741L28.4625 5.91909C28.4901 5.9299 28.5184 5.94042 28.5446 5.94883C28.5575 5.95299 28.5745 5.95813 28.5934 5.96261C28.6058 5.96554 28.6465 5.97516 28.6971 5.97516V5.17516ZM28.7629 5.17772C28.6801 5.14297 28.5962 5.1147 28.5117 5.09429L28.324 5.87195C28.3621 5.88117 28.4052 5.89521 28.4536 5.91547L28.7629 5.17772ZM28.5277 5.09851C28.4246 5.06905 28.3174 5.05773 28.2115 5.05773V5.85773C28.2622 5.85773 28.2925 5.86333 28.3079 5.86773L28.5277 5.09851ZM28.2115 5.05773C28.0808 5.05773 27.9131 5.07698 27.7675 5.17301C27.5928 5.28827 27.5132 5.47055 27.5132 5.65451H28.3132C28.3132 5.67256 28.3096 5.70782 28.2888 5.74884C28.2673 5.79142 28.2365 5.82205 28.208 5.84083C28.1822 5.85785 28.1646 5.8612 28.1669 5.8607C28.169 5.86024 28.1825 5.85773 28.2115 5.85773V5.05773ZM27.5132 5.65451C27.5132 5.80182 27.5606 5.94622 27.6624 6.06591L28.2719 5.54779C28.2845 5.56256 28.296 5.58156 28.3037 5.60349C28.3114 5.62505 28.3132 5.64316 28.3132 5.65451H27.5132ZM27.6698 6.07444C27.744 6.15686 27.8317 6.22127 27.9279 6.26936L28.2857 5.55382C28.2718 5.54689 28.2664 5.54148 28.2644 5.53926L27.6698 6.07444ZM27.9279 6.26936C28 6.30542 28.0912 6.3436 28.1954 6.38352L28.4815 5.63643C28.3869 5.60018 28.3236 5.57277 28.2857 5.55382L27.9279 6.26936ZM28.1875 6.38041C28.3051 6.42829 28.3662 6.45402 28.3835 6.46203L28.7187 5.73566C28.6811 5.71827 28.6004 5.68476 28.4894 5.63954L28.1875 6.38041ZM28.3722 6.45661C28.4682 6.50461 28.5349 6.56275 28.5826 6.62861L29.2306 6.1594C29.1005 5.97982 28.9302 5.84118 28.73 5.74107L28.3722 6.45661ZM28.5873 6.6349C28.6105 6.66566 28.6431 6.73373 28.6431 6.8796H29.4431C29.4431 6.61922 29.3847 6.36357 29.2259 6.15311L28.5873 6.6349ZM28.6431 6.8796C28.6431 7.01006 28.6144 7.10685 28.5691 7.18309L29.2568 7.59175C29.385 7.37599 29.4431 7.13424 29.4431 6.8796H28.6431ZM28.5691 7.18309C28.5262 7.25516 28.4617 7.31699 28.3587 7.36655L28.7055 8.08748C28.9367 7.97623 29.1261 7.81167 29.2568 7.59175L28.5691 7.18309ZM28.3587 7.36655C28.2572 7.41539 28.1203 7.44762 27.9354 7.44762V8.24762C28.2118 8.24762 28.4727 8.19945 28.7055 8.08748L28.3587 7.36655Z" fill="#544125"/>
<defs>
<linearGradient id="paint0_linear_2_119" x1="7.5" y1="0.800014" x2="7.5" y2="11.8" gradientUnits="userSpaceOnUse">
<stop stop-color="#FFFEE1"/>
<stop offset="1" stop-color="#D7CFB6"/>
</linearGradient>
<linearGradient id="paint1_linear_2_119" x1="22.15" y1="0.800014" x2="22.15" y2="11.8" gradientUnits="userSpaceOnUse">
<stop stop-color="#FFF500"/>
<stop offset="1" stop-color="#D7A700"/>
</linearGradient>
</defs>
</svg>
