<svg width="28" height="28" viewBox="0 0 28 28" fill="none" xmlns="http://www.w3.org/2000/svg">
<path d="M2.27437 13.7813L2.31545 14.0622L2.58896 13.9859L6.24114 12.9663L6.46556 12.9036L6.41884 12.6754L5.90542 10.167L6.33448 6.81304L8.57201 10.3112L8.64575 10.4265H8.78261H9.82609H9.96295L10.0367 10.3112L12.2742 6.81304L12.7033 10.167L12.1899 12.6754L12.1431 12.9036L12.3676 12.9663L16.0197 13.9859L16.2932 14.0622L16.3343 13.7813L16.8561 10.2126L16.861 10.1787L16.8567 10.1447L15.8132 1.98788L15.7931 1.83091L15.6426 1.7819L12.5122 0.762291L12.3683 0.715422L12.2601 0.82119L9.30435 3.70929L6.34863 0.82119L6.24039 0.715422L6.09649 0.762291L2.96605 1.7819L2.81558 1.83091L2.7955 1.98788L1.75202 10.1447L1.74767 10.1787L1.75263 10.2126L2.27437 13.7813Z" fill="url(#paint0_linear_2_47)" stroke="#544125" stroke-width="0.5"/>
<circle cx="12" cy="4.54902" r="1" fill="black"/>
<circle cx="6.65" cy="4.54902" r="1" fill="black"/>
<path d="M25.7256 14.2187L25.6846 13.9378L25.411 14.0141L21.7589 15.0337L21.5344 15.0964L21.5812 15.3246L22.0946 17.833L21.6655 21.187L19.428 17.6888L19.3543 17.5735L19.2174 17.5735L18.1739 17.5735L18.0371 17.5735L17.9633 17.6888L15.7258 21.187L15.2967 17.833L15.8101 15.3246L15.8569 15.0964L15.6324 15.0337L11.9803 14.0141L11.7068 13.9378L11.6657 14.2187L11.1439 17.7874L11.139 17.8213L11.1433 17.8553L12.1868 26.0121L12.2069 26.1691L12.3574 26.2181L15.4878 27.2377L15.6317 27.2846L15.7399 27.1788L18.6957 24.2907L21.6514 27.1788L21.7596 27.2846L21.9035 27.2377L25.0339 26.2181L25.1844 26.1691L25.2045 26.0121L26.248 17.8553L26.2523 17.8213L26.2474 17.7874L25.7256 14.2187Z" fill="url(#paint1_linear_2_47)" stroke="#959595" stroke-width="0.5"/>
<mask id="mask0_2_47" style="mask-type:alpha" maskUnits="userSpaceOnUse" x="11" y="14" width="15" height="13">
<path d="M21.8261 15.2745L25.4783 14.2549L26 17.8235L24.9565 25.9804L21.8261 27L18.6957 23.9412L15.5652 27L12.4348 25.9804L11.3913 17.8235L11.913 14.2549L15.5652 15.2745L15.0435 17.8235L15.5652 21.902L18.1739 17.8235L19.2174 17.8235L21.8261 21.902L22.3478 17.8235L21.8261 15.2745Z" fill="url(#paint2_linear_2_47)"/>
</mask>
<g mask="url(#mask0_2_47)">
<path fill-rule="evenodd" clip-rule="evenodd" d="M24.4348 30.5686C27.0281 30.5686 29.1304 28.5144 29.1304 25.9804C29.1304 23.4464 27.0281 21.3922 24.4348 21.3922C21.8414 21.3922 19.7391 23.4464 19.7391 25.9804C19.7391 28.5144 21.8414 30.5686 24.4348 30.5686ZM24.2213 29.3109V30.1464C23.2034 30.0974 22.2791 29.7 21.571 29.0736L22.1756 28.4828C22.7278 28.9592 23.439 29.2637 24.2213 29.3109ZM26.694 28.4828C26.1417 28.9592 25.4306 29.2637 24.6482 29.3109V30.1464C25.6662 30.0974 26.5904 29.7 27.2986 29.0736L26.694 28.4828ZM26.3914 28.1872C25.9175 28.5888 25.3129 28.847 24.6482 28.8928V28.0557C25.0775 28.014 25.4694 27.8481 25.7856 27.5952L26.3914 28.1872ZM26.9958 28.1879C27.4833 27.6483 27.795 26.9534 27.8432 26.1889H28.6983C28.6482 27.1836 28.2415 28.0867 27.6004 28.7787L26.9958 28.1879ZM26.6933 27.8923L26.0874 27.3003C26.3462 26.9913 26.516 26.6084 26.5586 26.1889H27.4154C27.3685 26.8384 27.1042 27.4292 26.6933 27.8923ZM25.7837 27.0035C25.9673 26.7727 26.0902 26.4936 26.1291 26.1889H24.9501L25.7837 27.0035ZM24.2213 25.4769V24.3248C23.9096 24.3628 23.6239 24.483 23.3877 24.6623L24.2213 25.4769ZM23.0859 24.9573L23.9195 25.7718H22.7405C22.7794 25.4672 22.9023 25.1881 23.0859 24.9573ZM23.084 24.3656C23.4002 24.1127 23.7921 23.9468 24.2213 23.9051V23.0679C23.5567 23.1138 22.9521 23.372 22.4781 23.7736L23.084 24.3656ZM22.1763 24.0685L22.7821 24.6605C22.5234 24.9695 22.3536 25.3524 22.3109 25.7718H21.4541C21.501 25.1224 21.7653 24.5316 22.1763 24.0685ZM22.1756 23.478C22.7278 23.0016 23.439 22.697 24.2213 22.6499V21.8144C23.2034 21.8634 22.2791 22.2608 21.571 22.8872L22.1756 23.478ZM21.8738 23.7729C21.3863 24.3125 21.0746 25.0073 21.0263 25.7718H20.1713C20.2214 24.7771 20.6281 23.874 21.2691 23.1821L21.8738 23.7729ZM24.6482 26.4839L25.4818 27.2984C25.2457 27.4778 24.96 27.5979 24.6482 27.6359V26.4839ZM24.2213 26.4839V27.6359C23.9096 27.5979 23.6239 27.4778 23.3877 27.2984L24.2213 26.4839ZM24.6482 24.3248V25.4769L25.4818 24.6623C25.2457 24.483 24.96 24.3628 24.6482 24.3248ZM24.6482 23.9051V23.0679C25.3129 23.1138 25.9175 23.372 26.3914 23.7736L25.7856 24.3656C25.4694 24.1127 25.0775 23.9468 24.6482 23.9051ZM24.6482 21.8144V22.6499C25.4306 22.697 26.1417 23.0016 26.694 23.478L27.2986 22.8872C26.5904 22.2608 25.6662 21.8634 24.6482 21.8144ZM24.4348 21.8093L24.4389 21.8093L24.4307 21.8093L24.4348 21.8093ZM24.2213 28.0557V28.8928C23.5567 28.847 22.9521 28.5888 22.4781 28.1872L23.084 27.5952C23.4002 27.8481 23.7921 28.014 24.2213 28.0557ZM21.2691 28.7787L21.8738 28.1879C21.3863 27.6483 21.0746 26.9534 21.0263 26.1889H20.1713C20.2214 27.1836 20.6281 28.0867 21.2691 28.7787ZM22.7821 27.3003L22.1763 27.8923C21.7653 27.4292 21.501 26.8384 21.4541 26.1889H22.3109C22.3536 26.6084 22.5234 26.9913 22.7821 27.3003ZM23.9195 26.1889L23.0859 27.0035C22.9023 26.7727 22.7794 26.4936 22.7405 26.1889H23.9195ZM24.9501 25.7718H26.1291C26.0902 25.4672 25.9673 25.1881 25.7837 24.9573L24.9501 25.7718ZM26.0874 24.6605C26.3462 24.9695 26.516 25.3524 26.5586 25.7718H27.4154C27.3685 25.1224 27.1042 24.5316 26.6933 24.0685L26.0874 24.6605ZM26.9958 23.7729C27.4833 24.3125 27.795 25.0073 27.8432 25.7718H28.6983C28.6482 24.7771 28.2415 23.874 27.6004 23.1821L26.9958 23.7729Z" fill="#D9D9D9" fill-opacity="0.4"/>
<path fill-rule="evenodd" clip-rule="evenodd" d="M17.6522 26.4902C17.6522 28.7426 15.7834 30.5686 13.4783 30.5686C11.1731 30.5686 9.30435 28.7426 9.30435 26.4902C9.30435 24.2377 11.1731 22.4118 13.4783 22.4118C15.7834 22.4118 17.6522 24.2377 17.6522 26.4902ZM13.2885 29.0326V30.1933C12.3837 30.1498 11.5621 29.7965 10.9327 29.2397L11.7726 28.419C12.1852 28.7676 12.7108 28.992 13.2885 29.0326ZM15.1839 28.419C14.7713 28.7676 14.2457 28.992 13.668 29.0326V30.1933C14.5729 30.1498 15.3944 29.7965 16.0239 29.2397L15.1839 28.419ZM14.8137 28.0573C14.4974 28.315 14.1018 28.4829 13.668 28.5211V26.9377L14.8137 28.0573ZM15.082 27.7951L13.9363 26.6756H15.5567C15.5176 27.0995 15.3457 27.486 15.082 27.7951ZM15.4522 28.1568C15.809 27.7536 16.0386 27.2401 16.0802 26.6756H17.2681C17.2235 27.5598 16.862 28.3625 16.2922 28.9776L15.4522 28.1568ZM13.2885 26.0426V24.4593C12.8547 24.4975 12.4591 24.6654 12.1428 24.9231L13.2885 26.0426ZM11.7726 24.5614C12.1852 24.2128 12.7108 23.9884 13.2885 23.9478V22.7871C12.3837 22.8306 11.5621 23.1839 10.9327 23.7406L11.7726 24.5614ZM10.7988 23.8649C10.7964 23.8673 10.794 23.8697 10.7915 23.872ZM10.6643 24.0028L11.5043 24.8236C11.1475 25.2267 10.9179 25.7403 10.8764 26.3048H9.68845C9.73301 25.4206 10.0945 24.6179 10.6643 24.0028ZM11.8745 25.1853L13.0202 26.3048H11.3998C11.4389 25.8809 11.6108 25.4944 11.8745 25.1853ZM13.668 26.0426V24.4593C14.1018 24.4975 14.4974 24.6654 14.8137 24.9231L13.668 26.0426ZM13.668 22.7871V23.9478C14.2457 23.9884 14.7713 24.2128 15.1839 24.5614L16.0239 23.7406C15.3944 23.1839 14.5729 22.8306 13.668 22.7871ZM13.486 22.7825L13.4705 22.7825L13.4783 22.7825L13.486 22.7825ZM13.2885 26.9377V28.5211C12.8547 28.4829 12.4591 28.3149 12.1428 28.0573L13.2885 26.9377ZM10.6643 28.9776L11.5043 28.1568C11.1475 27.7536 10.9179 27.2401 10.8764 26.6756H9.68845C9.73301 27.5598 10.0945 28.3625 10.6643 28.9776ZM13.0202 26.6756L11.8745 27.7951C11.6108 27.486 11.4389 27.0995 11.3998 26.6756H13.0202ZM13.9363 26.3048H15.5567C15.5176 25.8809 15.3457 25.4944 15.082 25.1853L13.9363 26.3048ZM15.4522 24.8236C15.809 25.2267 16.0386 25.7403 16.0802 26.3048H17.2681C17.2235 25.4206 16.862 24.6179 16.2922 24.0028L15.4522 24.8236Z" fill="#D9D9D9" fill-opacity="0.4"/>
</g>
<defs>
<linearGradient id="paint0_linear_2_47" x1="9.30435" y1="1" x2="9.30435" y2="13.7451" gradientUnits="userSpaceOnUse">
<stop stop-color="#FFF500"/>
<stop offset="1" stop-color="#D7A700"/>
</linearGradient>
<linearGradient id="paint1_linear_2_47" x1="18.6957" y1="27" x2="18.6957" y2="14.2549" gradientUnits="userSpaceOnUse">
<stop stop-color="#111000"/>
<stop offset="1" stop-color="#161100"/>
</linearGradient>
<linearGradient id="paint2_linear_2_47" x1="18.6957" y1="27" x2="18.6957" y2="14.2549" gradientUnits="userSpaceOnUse">
<stop stop-color="#111000"/>
<stop offset="1" stop-color="#161100"/>
</linearGradient>
</defs>
</svg>
